<svg xmlns="http://www.w3.org/2000/svg" xmlns:xlink="http://www.w3.org/1999/xlink" viewBox="0 0 2353.38 1513.53"><defs><style>.cls-1{isolation:isolate;}.cls-2{fill:#6165d7;opacity:0.19;}.cls-100,.cls-112,.cls-117,.cls-123,.cls-2,.cls-33,.cls-57,.cls-76{mix-blend-mode:multiply;}.cls-3{opacity:0.59;}.cls-4{fill:url(#linear-gradient);}.cls-5{fill:url(#linear-gradient-2);}.cls-6{fill:url(#linear-gradient-3);}.cls-7{fill:url(#linear-gradient-4);}.cls-8{fill:url(#linear-gradient-5);}.cls-9{fill:url(#linear-gradient-6);}.cls-10{fill:url(#linear-gradient-7);}.cls-11{fill:url(#linear-gradient-8);}.cls-12{fill:url(#linear-gradient-9);}.cls-13{fill:url(#linear-gradient-10);}.cls-14{fill:url(#linear-gradient-11);}.cls-15{fill:url(#linear-gradient-12);}.cls-16{fill:url(#linear-gradient-13);}.cls-17{fill:url(#linear-gradient-14);}.cls-18{fill:url(#linear-gradient-15);}.cls-19{fill:url(#linear-gradient-16);}.cls-20{fill:url(#linear-gradient-17);}.cls-21{fill:url(#linear-gradient-18);}.cls-22{fill:url(#linear-gradient-19);}.cls-23{fill:url(#linear-gradient-20);}.cls-24{fill:url(#linear-gradient-21);}.cls-25{fill:url(#linear-gradient-22);}.cls-26{opacity:0.75;}.cls-27{fill:url(#linear-gradient-23);}.cls-100,.cls-112,.cls-117,.cls-123,.cls-28,.cls-33,.cls-57,.cls-76{opacity:0.3;}.cls-28,.cls-35{mix-blend-mode:soft-light;}.cls-29,.cls-35{fill:#fff;}.cls-30{opacity:0.68;}.cls-31,.cls-76{fill:#97a6b7;}.cls-32{fill:url(#linear-gradient-24);}.cls-33,.cls-34{fill:#d8dee8;}.cls-35{opacity:0.6;}.cls-36,.cls-70{opacity:0.72;}.cls-36{fill:url(#linear-gradient-25);}.cls-37{fill:url(#linear-gradient-26);}.cls-38{fill:url(#linear-gradient-27);}.cls-39{fill:url(#linear-gradient-28);}.cls-40{fill:#ebeff2;}.cls-41{fill:url(#linear-gradient-29);}.cls-42{fill:url(#linear-gradient-30);}.cls-43{fill:#bfc8d6;}.cls-44{fill:url(#linear-gradient-31);}.cls-45{fill:url(#linear-gradient-32);}.cls-46{fill:url(#linear-gradient-33);}.cls-47{fill:url(#linear-gradient-34);}.cls-48{fill:url(#linear-gradient-35);}.cls-49{fill:url(#linear-gradient-36);}.cls-50{fill:url(#linear-gradient-37);}.cls-51{fill:url(#linear-gradient-38);}.cls-52{fill:url(#linear-gradient-39);}.cls-53{fill:url(#linear-gradient-40);}.cls-54{fill:url(#linear-gradient-41);}.cls-55{fill:url(#linear-gradient-42);}.cls-56{fill:url(#linear-gradient-43);}.cls-57{fill:url(#linear-gradient-44);}.cls-58{fill:url(#linear-gradient-45);}.cls-59{fill:url(#linear-gradient-46);}.cls-60{fill:url(#linear-gradient-47);}.cls-61{fill:url(#linear-gradient-48);}.cls-62{fill:url(#linear-gradient-49);}.cls-63{fill:url(#linear-gradient-50);}.cls-64{fill:url(#linear-gradient-51);}.cls-65{fill:url(#linear-gradient-52);}.cls-66{fill:url(#linear-gradient-53);}.cls-67{fill:url(#linear-gradient-54);}.cls-68{fill:url(#linear-gradient-55);}.cls-69{fill:url(#linear-gradient-56);}.cls-70{fill:url(#linear-gradient-57);}.cls-71{fill:url(#linear-gradient-58);}.cls-72{fill:url(#linear-gradient-59);}.cls-73{fill:url(#linear-gradient-60);}.cls-74{fill:url(#linear-gradient-61);}.cls-75{fill:#b7c0ce;}.cls-77{fill:url(#linear-gradient-62);}.cls-78{fill:url(#linear-gradient-63);}.cls-79{fill:url(#linear-gradient-64);}.cls-80{fill:url(#linear-gradient-65);}.cls-81{fill:url(#linear-gradient-66);}.cls-82{fill:url(#linear-gradient-67);}.cls-83{fill:url(#linear-gradient-68);}.cls-84{fill:url(#linear-gradient-69);}.cls-85{fill:url(#linear-gradient-70);}.cls-86{fill:url(#linear-gradient-71);}.cls-87{fill:url(#linear-gradient-72);}.cls-88{fill:url(#linear-gradient-73);}.cls-89{fill:url(#linear-gradient-74);}.cls-90{fill:url(#linear-gradient-75);}.cls-91{fill:url(#linear-gradient-76);}.cls-92{fill:url(#linear-gradient-77);}.cls-93{fill:url(#linear-gradient-78);}.cls-94{fill:#f4f7fa;opacity:0.81;}.cls-95{fill:url(#linear-gradient-79);}.cls-96{fill:url(#linear-gradient-80);}.cls-97{fill:url(#linear-gradient-81);}.cls-98{fill:url(#linear-gradient-82);}.cls-99{fill:url(#linear-gradient-83);}.cls-100{fill:url(#linear-gradient-84);}.cls-101{fill:url(#linear-gradient-85);}.cls-102{fill:url(#linear-gradient-86);}.cls-103{fill:url(#linear-gradient-87);}.cls-104{fill:url(#linear-gradient-88);}.cls-105{fill:url(#linear-gradient-89);}.cls-106{fill:url(#linear-gradient-90);}.cls-107{fill:url(#linear-gradient-91);}.cls-108{fill:url(#linear-gradient-92);}.cls-109{fill:url(#linear-gradient-93);}.cls-110{fill:url(#linear-gradient-94);}.cls-111{fill:url(#linear-gradient-95);}.cls-112{fill:url(#linear-gradient-96);}.cls-113{fill:url(#linear-gradient-97);}.cls-114{fill:url(#linear-gradient-98);}.cls-115{fill:url(#linear-gradient-99);}.cls-116{fill:url(#linear-gradient-100);}.cls-117{fill:url(#linear-gradient-101);}.cls-118{fill:url(#linear-gradient-102);}.cls-119{fill:url(#linear-gradient-103);}.cls-120{fill:url(#linear-gradient-104);}.cls-121{fill:url(#linear-gradient-105);}.cls-122{fill:#26264f;}.cls-124{fill:url(#linear-gradient-106);}</style><linearGradient id="linear-gradient" x1="-7706.4" y1="96.65" x2="-8281.88" y2="486.25" gradientTransform="matrix(-1, 0, 0, 1, -7099.9, 0)" gradientUnits="userSpaceOnUse"><stop offset="0" stop-color="#ff9085"/><stop offset="1" stop-color="#fb6fbb"/></linearGradient><linearGradient id="linear-gradient-2" x1="-7589.77" y1="311.18" x2="-8081.91" y2="644.36" xlink:href="#linear-gradient"/><linearGradient id="linear-gradient-3" x1="-7499.09" y1="321.67" x2="-7904.89" y2="596.4" xlink:href="#linear-gradient"/><linearGradient id="linear-gradient-4" x1="-7411.37" y1="331.58" x2="-7735.95" y2="551.32" xlink:href="#linear-gradient"/><linearGradient id="linear-gradient-5" x1="-7326.48" y1="340.95" x2="-7574.54" y2="508.9" xlink:href="#linear-gradient"/><linearGradient id="linear-gradient-6" x1="-7922.64" y1="528.79" x2="-7176.86" y2="319.86" xlink:href="#linear-gradient"/><linearGradient id="linear-gradient-7" x1="-7860.74" y1="598.01" x2="-7194.52" y2="411.37" xlink:href="#linear-gradient"/><linearGradient id="linear-gradient-8" x1="-7843.11" y1="614.75" x2="-7195.3" y2="433.27" xlink:href="#linear-gradient"/><linearGradient id="linear-gradient-9" x1="-7824.26" y1="630.53" x2="-7194.08" y2="453.99" xlink:href="#linear-gradient"/><linearGradient id="linear-gradient-10" x1="-7804.31" y1="645.41" x2="-7191.04" y2="473.61" xlink:href="#linear-gradient"/><linearGradient id="linear-gradient-11" x1="-8216.01" y1="834.65" x2="-7645.89" y2="645.92" xlink:href="#linear-gradient"/><linearGradient id="linear-gradient-12" x1="-8089.96" y1="922.5" x2="-7603.85" y2="761.58" xlink:href="#linear-gradient"/><linearGradient id="linear-gradient-13" x1="-7582.35" y1="0.7" x2="-8369.73" y2="283.83" gradientTransform="matrix(-1, 0, 0, 1, -7099.9, 0)" gradientUnits="userSpaceOnUse"><stop offset="0" stop-color="#aa80f9"/><stop offset="1" stop-color="#6165d7"/></linearGradient><linearGradient id="linear-gradient-14" x1="-7590.97" y1="118.26" x2="-8301.23" y2="373.66" xlink:href="#linear-gradient-13"/><linearGradient id="linear-gradient-15" x1="-7588.9" y1="146.75" x2="-8282.46" y2="396.14" xlink:href="#linear-gradient-13"/><linearGradient id="linear-gradient-16" x1="-7585.41" y1="174" x2="-8262.86" y2="417.6" xlink:href="#linear-gradient-13"/><linearGradient id="linear-gradient-17" x1="-7580.58" y1="200.08" x2="-8242.52" y2="438.1" xlink:href="#linear-gradient-13"/><linearGradient id="linear-gradient-18" x1="-7569.47" y1="419.64" x2="-9504.67" y2="1729.77" xlink:href="#linear-gradient-13"/><linearGradient id="linear-gradient-19" x1="-7557.08" y1="577.07" x2="-7874.48" y2="791.95" xlink:href="#linear-gradient-13"/><linearGradient id="linear-gradient-20" x1="-7499.34" y1="580.63" x2="-7764.03" y2="759.82" xlink:href="#linear-gradient-13"/><linearGradient id="linear-gradient-21" x1="-7442.82" y1="584.02" x2="-7656.84" y2="728.92" xlink:href="#linear-gradient-13"/><linearGradient id="linear-gradient-22" x1="-7387.47" y1="587.26" x2="-7552.77" y2="699.17" xlink:href="#linear-gradient-13"/><linearGradient id="linear-gradient-23" x1="-9269.41" y1="454.4" x2="-9105.47" y2="765.46" xlink:href="#linear-gradient"/><linearGradient id="linear-gradient-24" x1="-8385.91" y1="971.3" x2="-8385.91" y2="1090.44" gradientTransform="matrix(-1, 0, 0, 1, -7099.9, 0)" gradientUnits="userSpaceOnUse"><stop offset="0.49" stop-color="#ebeff2"/><stop offset="1" stop-color="#fff"/></linearGradient><linearGradient id="linear-gradient-25" x1="-8143.56" y1="784.56" x2="-8743.56" y2="122.56" gradientTransform="matrix(-1, 0, 0, 1, -7099.9, 0)" gradientUnits="userSpaceOnUse"><stop offset="0" stop-color="#ffc444"/><stop offset="1" stop-color="#f36f56"/></linearGradient><linearGradient id="linear-gradient-26" x1="-8091" y1="538.49" x2="-8257.52" y2="354.44" gradientTransform="matrix(-1, 0, 0, 1, -7099.9, 0)" gradientUnits="userSpaceOnUse"><stop offset="0" stop-color="#311944"/><stop offset="1" stop-color="#893976"/></linearGradient><linearGradient id="linear-gradient-27" x1="-8060.83" y1="805.69" x2="-8465.97" y2="681.03" xlink:href="#linear-gradient-26"/><linearGradient id="linear-gradient-28" x1="-7992.29" y1="662.38" x2="-8411.84" y2="533.29" gradientTransform="matrix(-1, 0, 0, 1, -7099.9, 0)" gradientUnits="userSpaceOnUse"><stop offset="0" stop-color="#311944"/><stop offset="0.2" stop-color="#431f4e"/><stop offset="1" stop-color="#893976"/></linearGradient><linearGradient id="linear-gradient-29" x1="-7648.54" y1="480.1" x2="-7780.17" y2="695.3" xlink:href="#linear-gradient-25"/><linearGradient id="linear-gradient-30" x1="-454.7" y1="539.84" x2="-401.14" y2="729.22" gradientTransform="translate(1066.92 5.45) rotate(0.07)" xlink:href="#linear-gradient-25"/><linearGradient id="linear-gradient-31" x1="-7647.58" y1="671.11" x2="-7784.63" y2="895.15" xlink:href="#linear-gradient"/><linearGradient id="linear-gradient-32" x1="-7767.87" y1="787.23" x2="-7796.11" y2="875.34" xlink:href="#linear-gradient"/><linearGradient id="linear-gradient-33" x1="-7741.21" y1="815.78" x2="-7757.11" y2="865.38" xlink:href="#linear-gradient"/><linearGradient id="linear-gradient-34" x1="-7712.1" y1="829.01" x2="-7722.14" y2="860.33" xlink:href="#linear-gradient"/><linearGradient id="linear-gradient-35" x1="-7666.69" y1="749.18" x2="-7710.23" y2="885.06" xlink:href="#linear-gradient"/><linearGradient id="linear-gradient-36" x1="-7637.64" y1="759.73" x2="-7676.46" y2="880.88" xlink:href="#linear-gradient"/><linearGradient id="linear-gradient-37" x1="-7603.55" y1="740.43" x2="-7650.28" y2="886.26" xlink:href="#linear-gradient"/><linearGradient id="linear-gradient-38" x1="-7578.23" y1="768.92" x2="-7612.65" y2="876.36" xlink:href="#linear-gradient"/><linearGradient id="linear-gradient-39" x1="-7553.68" y1="800.33" x2="-7574.58" y2="865.52" xlink:href="#linear-gradient"/><linearGradient id="linear-gradient-40" x1="5168.91" y1="1275.26" x2="5186.82" y2="1275.26" gradientTransform="translate(-3517.03)" xlink:href="#linear-gradient-25"/><linearGradient id="linear-gradient-41" x1="5147.29" y1="1280.33" x2="5179.09" y2="1280.33" gradientTransform="translate(-3517.03)" gradientUnits="userSpaceOnUse"><stop offset="0" stop-color="#444b8c"/><stop offset="1" stop-color="#26264f"/></linearGradient><linearGradient id="linear-gradient-42" x1="5167.63" y1="1268.75" x2="5164.11" y2="1276.88" xlink:href="#linear-gradient-41"/><linearGradient id="linear-gradient-43" x1="5251.39" y1="1094.47" x2="5154.1" y2="1263.31" gradientTransform="translate(-3517.03)" xlink:href="#linear-gradient-26"/><linearGradient id="linear-gradient-44" x1="5262.62" y1="1100.95" x2="5165.33" y2="1269.78" gradientTransform="translate(-3517.03)" xlink:href="#linear-gradient-26"/><linearGradient id="linear-gradient-45" x1="5430.04" y1="1243.13" x2="5444.76" y2="1243.13" xlink:href="#linear-gradient-41"/><linearGradient id="linear-gradient-46" x1="5372.8" y1="1057.93" x2="5307.8" y2="1203.87" gradientTransform="translate(-3517.03)" xlink:href="#linear-gradient-26"/><linearGradient id="linear-gradient-47" x1="965" y1="-1921.49" x2="962.54" y2="-1870.9" gradientTransform="translate(-141.43 1954.6) rotate(31.98)" xlink:href="#linear-gradient-25"/><linearGradient id="linear-gradient-48" x1="5333.83" y1="805.32" x2="5331.38" y2="855.91" gradientTransform="translate(-3517.03)" xlink:href="#linear-gradient-25"/><linearGradient id="linear-gradient-49" x1="-8753.03" y1="730.07" x2="-8933.03" y2="1132.61" gradientTransform="matrix(-1, 0, 0, 1, -7099.9, 0)" gradientUnits="userSpaceOnUse"><stop offset="0" stop-color="#e38ddd"/><stop offset="1" stop-color="#9571f6"/></linearGradient><linearGradient id="linear-gradient-50" x1="-8846.02" y1="688.49" x2="-9026.02" y2="1091.03" xlink:href="#linear-gradient-49"/><linearGradient id="linear-gradient-51" x1="-1494.07" y1="-1230.74" x2="-1491.83" y2="-1290.52" gradientTransform="matrix(-0.97, 0.23, 0.23, 0.97, 585.21, 2468.69)" xlink:href="#linear-gradient-25"/><linearGradient id="linear-gradient-52" x1="715.76" y1="-1247.99" x2="702.91" y2="-1280.64" gradientTransform="translate(1018.23 2142.35) rotate(0.81)" gradientUnits="userSpaceOnUse"><stop offset="0" stop-color="#311944"/><stop offset="1" stop-color="#6b3976"/></linearGradient><linearGradient id="linear-gradient-53" x1="-2024.35" y1="-1359.85" x2="-2024.93" y2="-1313.52" gradientTransform="matrix(-1, -0.08, -0.08, 1, -380.04, 2084.2)" xlink:href="#linear-gradient-25"/><linearGradient id="linear-gradient-54" x1="-4528.8" y1="-2266.07" x2="-5076.48" y2="-819.38" gradientTransform="matrix(-0.85, -0.53, -0.53, 0.85, -3198.22, 3.74)" xlink:href="#linear-gradient-28"/><linearGradient id="linear-gradient-55" x1="-4522.75" y1="-2268.17" x2="-5070.42" y2="-821.48" gradientTransform="matrix(-0.85, -0.53, -0.53, 0.85, -3198.22, 3.74)" xlink:href="#linear-gradient"/><linearGradient id="linear-gradient-56" x1="-8687.67" y1="759.3" x2="-8867.67" y2="1161.84" xlink:href="#linear-gradient-49"/><linearGradient id="linear-gradient-57" x1="-8995.22" y1="314.35" x2="-9014.71" y2="479.27" xlink:href="#linear-gradient-25"/><linearGradient id="linear-gradient-58" x1="-8924.74" y1="101.93" x2="-8978.74" y2="199.43" xlink:href="#linear-gradient"/><linearGradient id="linear-gradient-59" x1="-9113.05" y1="273.25" x2="-9179.23" y2="378.29" xlink:href="#linear-gradient"/><linearGradient id="linear-gradient-60" x1="-8962.97" y1="433.35" x2="-8964.56" y2="244.95" xlink:href="#linear-gradient-26"/><linearGradient id="linear-gradient-61" x1="-8908.58" y1="321.18" x2="-8925.27" y2="510.67" xlink:href="#linear-gradient-13"/><linearGradient id="linear-gradient-62" x1="-8196.06" y1="977.8" x2="-8125.06" y2="924.8" xlink:href="#linear-gradient-26"/><linearGradient id="linear-gradient-63" x1="5489.5" y1="1170.24" x2="5565.5" y2="989.24" gradientTransform="translate(-4486.95)" xlink:href="#linear-gradient-26"/><linearGradient id="linear-gradient-64" x1="5494.18" y1="1172.2" x2="5570.18" y2="991.2" gradientTransform="translate(-4486.95)" xlink:href="#linear-gradient-26"/><linearGradient id="linear-gradient-65" x1="5372.9" y1="1213.94" x2="5409.88" y2="1213.94" gradientTransform="translate(-4486.95)" xlink:href="#linear-gradient-52"/><linearGradient id="linear-gradient-66" x1="5398.38" y1="1211.84" x2="5428.99" y2="1120.02" gradientTransform="translate(-4486.95)" xlink:href="#linear-gradient-25"/><linearGradient id="linear-gradient-67" x1="5441.72" y1="1229.57" x2="5478.7" y2="1229.57" gradientTransform="translate(-4486.95)" xlink:href="#linear-gradient-52"/><linearGradient id="linear-gradient-68" x1="5467.2" y1="1227.47" x2="5497.8" y2="1135.65" gradientTransform="translate(-4486.95)" xlink:href="#linear-gradient-25"/><linearGradient id="linear-gradient-69" x1="-8166.03" y1="1075.06" x2="-8037.02" y2="1088.9" gradientTransform="matrix(-1, 0, 0, 1, -7099.9, 0)" gradientUnits="userSpaceOnUse"><stop offset="0" stop-color="#26264f"/><stop offset="1" stop-color="#444b8c"/></linearGradient><linearGradient id="linear-gradient-70" x1="-8182.77" y1="1109.97" x2="-8092.03" y2="1119.71" xlink:href="#linear-gradient-69"/><linearGradient id="linear-gradient-71" x1="-8121.47" y1="942.7" x2="-8094.07" y2="908" xlink:href="#linear-gradient-49"/><linearGradient id="linear-gradient-72" x1="-8098.26" y1="1012.04" x2="-8239.63" y2="877.16" xlink:href="#linear-gradient-49"/><linearGradient id="linear-gradient-73" x1="-8195.2" y1="1008.85" x2="-8133.95" y2="931.29" xlink:href="#linear-gradient-13"/><linearGradient id="linear-gradient-74" x1="-7128.39" y1="3752.36" x2="-7125.45" y2="3674.04" gradientTransform="matrix(-0.92, 0.4, 0.4, 0.92, -6956.3, 293.55)" xlink:href="#linear-gradient-25"/><linearGradient id="linear-gradient-75" x1="7127.44" y1="2683.27" x2="7107.34" y2="2632.24" gradientTransform="matrix(0.97, -0.25, 0.25, 0.97, -6492.4, 40.66)" xlink:href="#linear-gradient-52"/><linearGradient id="linear-gradient-76" x1="-8658.16" y1="2158.92" x2="-8659.06" y2="2231.34" gradientTransform="matrix(-0.98, 0.19, 0.19, 0.98, -7856.9, 351.13)" xlink:href="#linear-gradient-25"/><linearGradient id="linear-gradient-77" x1="7121.3" y1="2684.68" x2="7101.93" y2="2635.49" gradientTransform="matrix(0.97, -0.25, 0.25, 0.97, -6492.4, 40.66)" xlink:href="#linear-gradient-52"/><linearGradient id="linear-gradient-78" x1="7101.58" y1="2654.33" x2="7102.66" y2="2663.98" gradientTransform="matrix(0.97, -0.25, 0.25, 0.97, -6492.4, 40.66)" gradientUnits="userSpaceOnUse"><stop offset="0" stop-color="#ffc444"/><stop offset="1" stop-color="#f36f56"/></linearGradient><linearGradient id="linear-gradient-79" x1="-8117.84" y1="1032.56" x2="-8259.21" y2="897.68" xlink:href="#linear-gradient-49"/><linearGradient id="linear-gradient-80" x1="-8061.61" y1="1027.2" x2="-8058.83" y2="1014.53" xlink:href="#linear-gradient-69"/><linearGradient id="linear-gradient-81" x1="-8127.61" y1="994.8" x2="-7982.37" y2="994.8" xlink:href="#linear-gradient-69"/><linearGradient id="linear-gradient-82" x1="-7984.61" y1="940.42" x2="-7999.21" y2="905.66" xlink:href="#linear-gradient-69"/><linearGradient id="linear-gradient-83" x1="-8105.07" y1="923.16" x2="-7874.74" y2="923.16" xlink:href="#linear-gradient-69"/><linearGradient id="linear-gradient-84" x1="-8105.07" y1="964.62" x2="-7896.64" y2="964.62" xlink:href="#linear-gradient-69"/><linearGradient id="linear-gradient-85" x1="-8016.61" y1="1003.75" x2="-8003.63" y2="1009.55" gradientTransform="matrix(-1, 0, 0, 1, -7099.9, 0)" xlink:href="#linear-gradient-41"/><linearGradient id="linear-gradient-86" x1="-8038.27" y1="1006.02" x2="-7990.49" y2="1006.02" xlink:href="#linear-gradient-69"/><linearGradient id="linear-gradient-87" x1="-7998.8" y1="968.6" x2="-7939.15" y2="968.6" gradientTransform="matrix(-1, 0, 0, 1, -7099.9, 0)" xlink:href="#linear-gradient-41"/><linearGradient id="linear-gradient-88" x1="-7996.19" y1="968.58" x2="-7936.57" y2="968.58" xlink:href="#linear-gradient-69"/><linearGradient id="linear-gradient-89" x1="-8178.73" y1="1001.23" x2="-8135.94" y2="1001.23" xlink:href="#linear-gradient-69"/><linearGradient id="linear-gradient-90" x1="-8168.21" y1="987.61" x2="-8159.97" y2="1016.02" xlink:href="#linear-gradient-25"/><linearGradient id="linear-gradient-91" x1="-6971.98" y1="1068.39" x2="-6966.14" y2="1142.67" gradientTransform="matrix(-1, 0, 0, 1, -6473.63, 0)" xlink:href="#linear-gradient-69"/><linearGradient id="linear-gradient-92" x1="-6956.91" y1="1109.74" x2="-6957.97" y2="1032.81" gradientTransform="matrix(-1, 0, 0, 1, -6473.63, 0)" gradientUnits="userSpaceOnUse"><stop offset="0" stop-color="#ab316d"/><stop offset="1" stop-color="#792d3d"/></linearGradient><linearGradient id="linear-gradient-93" x1="-6861.69" y1="1059.72" x2="-6855.86" y2="1134" gradientTransform="matrix(-1, 0, 0, 1, -6473.63, 0)" xlink:href="#linear-gradient-69"/><linearGradient id="linear-gradient-94" x1="-6855.84" y1="1108.35" x2="-6856.9" y2="1031.42" xlink:href="#linear-gradient-92"/><linearGradient id="linear-gradient-95" x1="-7601.53" y1="985.12" x2="-7544.66" y2="985.12" gradientTransform="matrix(-1, 0, 0, 1, -7099.9, 0)" xlink:href="#linear-gradient-52"/><linearGradient id="linear-gradient-96" x1="-7597.6" y1="985.12" x2="-7544.66" y2="985.12" xlink:href="#linear-gradient-69"/><linearGradient id="linear-gradient-97" x1="-7585.74" y1="979.51" x2="-7471.24" y2="979.51" gradientTransform="matrix(-1, 0, 0, 1, -7099.9, 0)" xlink:href="#linear-gradient-52"/><linearGradient id="linear-gradient-98" x1="5102.95" y1="498.74" x2="5071.54" y2="592.95" gradientTransform="translate(-4490.44 30.88) rotate(1.25)" xlink:href="#linear-gradient-92"/><linearGradient id="linear-gradient-99" x1="-7688.49" y1="579.22" x2="-7634.78" y2="801.92" gradientTransform="matrix(-1, -0.02, -0.02, 1, -7154.76, -27.25)" xlink:href="#linear-gradient-13"/><linearGradient id="linear-gradient-100" x1="-7604.47" y1="653.99" x2="-7560.24" y2="653.99" gradientTransform="matrix(-1, -0.02, -0.02, 1, -7154.76, -27.25)" xlink:href="#linear-gradient-13"/><linearGradient id="linear-gradient-101" x1="-7607.37" y1="653.99" x2="-7563.14" y2="653.99" gradientTransform="matrix(-1, -0.02, -0.02, 1, -7154.76, -27.25)" xlink:href="#linear-gradient-13"/><linearGradient id="linear-gradient-102" x1="-7643.77" y1="568.44" x2="-7590.06" y2="791.13" gradientTransform="matrix(-1, -0.02, -0.02, 1, -7154.76, -27.25)" xlink:href="#linear-gradient-13"/><linearGradient id="linear-gradient-103" x1="-8880.77" y1="574.83" x2="-8863.3" y2="602.59" gradientTransform="matrix(-1, -0.02, -0.02, 1, -8404.03, -54.49)" xlink:href="#linear-gradient"/><linearGradient id="linear-gradient-104" x1="-7732.74" y1="-1111.47" x2="-7753.19" y2="-1078.4" gradientTransform="matrix(-0.95, -0.31, -0.31, 0.95, -7253.16, -606.47)" xlink:href="#linear-gradient-92"/><linearGradient id="linear-gradient-105" x1="-7675.29" y1="-3296.27" x2="-7693.87" y2="-3266.21" gradientTransform="matrix(-0.85, -0.52, -0.52, 0.85, -7810.07, -497.59)" xlink:href="#linear-gradient-92"/><linearGradient id="linear-gradient-106" x1="-7656.37" y1="571.48" x2="-7602.66" y2="794.17" gradientTransform="matrix(-1, -0.02, -0.02, 1, -7154.76, -27.25)" xlink:href="#linear-gradient-13"/></defs><title>19199746 [Converti]</title><g class="cls-1"><g id="Illustration"><path class="cls-2" d="M1367.9,1045.59c264.44,11.45,695.36,30.09,708,128,5.4,41.8-67.35,83.17-104,104-155.46,88.4-313,58.75-452,48-292.26-22.6-283.38,55.3-572,48-381.38-9.64-748.24-154.56-740-224,5.12-43.07,158.08-56.71,464-84C1041.57,1032.62,1304.06,1042.83,1367.9,1045.59Z"/><path class="cls-2" d="M1427.9,1063.59c104.94.32,130.16,6.19,132,16,4.53,24.11-128.3,91.34-272,94-59.63,1.11-113.92-9-116,0-3.33,14.54,136.8,41.55,136,74-.86,35.38-168.92,67-324,74-264.29,11.9-552.9-45-552-96,.4-22.27,109.61-45.15,328-90C892,1108.48,1130.5,1062.69,1427.9,1063.59Z"/><path class="cls-2" d="M1633.9,1245.59c-68.79,6.46-123.2,11.82-124,24-1.11,17.08,103.24,45.85,206,46,132.77.2,260.88-47.35,258-68C1970,1219.35,1720.44,1237.47,1633.9,1245.59Z"/><path class="cls-2" d="M435.9,1101.59c75.13-7.55,172.91-5.94,174,6,1.14,12.31-100.32,37-202,34-33.15-1-87.59-5.49-88-14C319.45,1118,387.62,1106.44,435.9,1101.59Z"/><g class="cls-3"><path class="cls-4" d="M701.08,401.14l560.22-5.26c30.14-.28,54.79-20.68,54.79-45.55v-3.41c0-24.88-24.65-44.45-54.79-43.73l-560.22,13.4c-24.86.59-44.85,19.17-44.85,41.49v3.06C656.23,383.46,676.22,401.37,701.08,401.14Z"/><path class="cls-5" d="M519,361.9c0,22.61,19.78,40.76,44.38,40.53,24.8-.23,45.07-19.05,45.07-42s-20.27-41.12-45.07-40.53C538.73,320.47,519,339.28,519,361.9Z"/><path class="cls-6" d="M423.37,363.49c0,18.92,16.25,34.08,36.44,33.87s36.92-15.92,36.92-35.09-16.59-34.33-36.92-33.87S423.37,344.57,423.37,363.49Z"/><path class="cls-7" d="M331,365c0,15.34,13,27.63,29,27.45s29.34-12.92,29.34-28.43S376.16,336.26,360,336.61,331,349.68,331,365Z"/><path class="cls-8" d="M241.6,366.51a21.47,21.47,0,0,0,22.09,21.25c12.28-.15,22.28-10,22.28-22s-10-21.5-22.28-21.25S241.6,354.63,241.6,366.51Z"/><path class="cls-9" d="M477.32,523.18l413.18,5c21.75.27,39.5-15,39.5-34v-2.61c0-19-17.75-34.48-39.5-34.48L477.32,457c-18.73,0-33.83,14.19-33.83,31.7v2.4C443.49,508.58,458.59,523,477.32,523.18Z"/><path class="cls-10" d="M339.25,489.23c0,17.83,15.09,32.46,33.81,32.69s34.24-14.22,34.24-32.28S391.92,457,373.06,457,339.25,471.4,339.25,489.23Z"/><path class="cls-11" d="M266,488.78c0,15,12.49,27.24,28,27.42s28.27-12,28.27-27.08-12.7-27.4-28.27-27.42S266,473.81,266,488.78Z"/><path class="cls-12" d="M194.75,488.34a22.51,22.51,0,0,0,22.45,22.29,22.18,22.18,0,0,0,22.64-22,22.51,22.51,0,0,0-22.64-22.29A22.19,22.19,0,0,0,194.75,488.34Z"/><path class="cls-13" d="M125.33,487.92a17.37,17.37,0,0,0,17.21,17.31,17.11,17.11,0,0,0,17.32-17.1,17.35,17.35,0,0,0-17.32-17.31A17.1,17.1,0,0,0,125.33,487.92Z"/><path class="cls-14" d="M558.66,691.34l602.33,25c34.2,1.41,62.19,25.83,62.19,54.51s-28,50.31-62.19,48.33L558.66,784.32c-27.66-1.6-49.89-23.52-49.89-49S531,690.19,558.66,691.34Z"/><path class="cls-15" d="M409.48,685.15c26.48,1.1,48.14,22.44,48.14,47.66S436,777.22,409.48,775.69c-26.23-1.52-47.31-22.83-47.31-47.62S383.25,684.06,409.48,685.15Z"/><path class="cls-16" d="M964,221.16l378.57-14.6c20.59-.8,37.38,12.14,37.38,28.9s-16.79,30.83-37.38,31.43L964,278c-18.13.53-32.76-11.69-32.76-27.29S945.82,221.86,964,221.16Z"/><path class="cls-17" d="M865.31,225c17.66-.68,32.05,11.34,32.05,26.85s-14.39,28.51-32.05,29S833.6,269.32,833.6,254,847.76,225.64,865.31,225Z"/><path class="cls-18" d="M791.08,231.94c14.65-.56,26.58,9.55,26.58,22.58s-11.93,23.94-26.58,24.38-26.34-9.68-26.34-22.59S776.51,232.49,791.08,231.94Z"/><path class="cls-19" d="M718.67,238.74c11.78-.43,21.37,7.81,21.37,18.41s-9.59,19.49-21.37,19.85-21.21-7.88-21.21-18.41S706.94,239.18,718.67,238.74Z"/><path class="cls-20" d="M648,245.38c9.06-.33,16.42,6.09,16.42,14.33s-7.36,15.16-16.42,15.44-16.32-6.13-16.32-14.33S639,245.71,648,245.38Z"/><path class="cls-21" d="M591.67,585l332.38,7.52c18,.41,32.68,13.44,32.68,29.11S942.05,649.53,924.05,649L591.67,638.33c-16-.51-28.89-12.8-28.89-27.45S575.68,584.65,591.67,585Z"/><path class="cls-22" d="M504.64,583c15.6.35,28.3,12.46,28.3,27s-12.7,26-28.3,25.48-28-12.59-28-27S489.14,582.69,504.64,583Z"/><path class="cls-23" d="M439,585.43c13,.3,23.5,10.47,23.5,22.72S452,630,439,629.58s-23.3-10.57-23.3-22.71S426.15,585.12,439,585.43Z"/><path class="cls-24" d="M375,587.75c10.43.25,18.92,8.55,18.92,18.52s-8.49,17.81-18.92,17.49-18.8-8.61-18.8-18.52S364.56,587.5,375,587.75Z"/><path class="cls-25" d="M312.33,590c8,.2,14.56,6.65,14.56,14.41a13.82,13.82,0,0,1-14.56,13.62c-8-.24-14.48-6.69-14.48-14.41A13.81,13.81,0,0,1,312.33,590Z"/></g><g class="cls-26"><path class="cls-27" d="M1837.75,603l348-16.73a14.37,14.37,0,0,1,15.18,14.53V884.28a14.3,14.3,0,0,1-15.18,14.46l-348-18.52c-6.56-.35-11.85-6.63-11.85-14V617C1825.9,609.6,1831.19,603.34,1837.75,603Z"/><g class="cls-28"><path class="cls-29" d="M1911.24,789.79c42.88-17.92,74.68,18.68,113.82-4.21,52.61-30.76,26.69-112.46,81.15-171.74a139.32,139.32,0,0,1,31.18-25.23l48.33-2.32a14.37,14.37,0,0,1,15.18,14.53V884.28a14.3,14.3,0,0,1-15.18,14.46l-337.76-18C1861.12,835.35,1881.24,802.32,1911.24,789.79Z"/></g><g class="cls-30"><path class="cls-29" d="M1966.75,711.56l7.33-.06a82.27,82.27,0,0,1,5.31-21.36l-6.35-3.85a8.4,8.4,0,0,1-2.76-11l.91-1.72a7.36,7.36,0,0,1,10.31-3.2l6.42,3.84a78.41,78.41,0,0,1,14.66-16l-3.73-6.82a8.68,8.68,0,0,1,2.8-11.29l1.61-1a7.32,7.32,0,0,1,10.54,2.67l3.78,6.85a72,72,0,0,1,20.47-6.39V634a8.49,8.49,0,0,1,7.9-8.61l1.91-.07a7.81,7.81,0,0,1,8,8.07v8.16a71.19,71.19,0,0,1,21,5.26l3.93-7.22a8.16,8.16,0,0,1,11.12-3.45l1.71,1a8.47,8.47,0,0,1,3,11.48l-4,7.27a76.65,76.65,0,0,1,15.71,15.9l7-4.29a8.1,8.1,0,0,1,11.37,2.88l1,1.77a8.76,8.76,0,0,1-3.06,11.75l-7,4.28a81.61,81.61,0,0,1,5.79,22.3l8.14-.07a8.44,8.44,0,0,1,8.41,8.53V721a8.53,8.53,0,0,1-8.41,8.62h-8.16a82.05,82.05,0,0,1-5.85,22.34l7,4.2a8.72,8.72,0,0,1,3.05,11.72l-1,1.78a8.14,8.14,0,0,1-11.37,3l-7-4.24a78.19,78.19,0,0,1-15.75,16l4,7.21a8.52,8.52,0,0,1-3,11.51l-1.71,1a8.09,8.09,0,0,1-11.11-3.34l-4-7.2a71.84,71.84,0,0,1-21,5.41v8.14a7.9,7.9,0,0,1-8,8.14l-1.91-.05a8.39,8.39,0,0,1-7.9-8.53v-8.11a71.34,71.34,0,0,1-20.45-6.25l-3.77,6.87a7.36,7.36,0,0,1-10.54,2.77l-1.61-1a8.64,8.64,0,0,1-2.81-11.27l3.75-6.86A77.73,77.73,0,0,1,1987.81,767l-6.39,3.89a7.32,7.32,0,0,1-10.31-3.1l-.91-1.71A8.45,8.45,0,0,1,1973,755l6.37-3.92a81.72,81.72,0,0,1-5.26-21.32h-7.31c-4.14,0-7.48-3.6-7.48-8.07v-2C1959.27,715.24,1962.61,711.59,1966.75,711.56Zm80.07,66.87c30.8.46,56.24-25.66,56.24-58.35s-25.44-58.57-56.24-57.81c-30.17.74-54.18,26.85-54.18,58.34S2016.65,778,2046.82,778.43Z"/><path class="cls-29" d="M1879,797.06l3.82.09a44.08,44.08,0,0,1,2.76-11.38l-3.3-2.18a4.69,4.69,0,0,1-1.44-6l.48-.91a3.68,3.68,0,0,1,5.36-1.52l3.32,2.19a39.2,39.2,0,0,1,7.58-8.29l-1.93-3.72a4.65,4.65,0,0,1,1.45-6l.83-.52a3.79,3.79,0,0,1,5.43,1.66l1.94,3.73a34.72,34.72,0,0,1,10.47-3V757a4.21,4.21,0,0,1,4-4.4h1a4.29,4.29,0,0,1,4,4.46v4.33a36.06,36.06,0,0,1,10.61,3.23l2-3.73a3.88,3.88,0,0,1,5.58-1.58l.86.55a4.71,4.71,0,0,1,1.5,6.11l-2,3.75a42,42,0,0,1,7.85,8.68l3.48-2.12a4,4,0,0,1,5.64,1.72l.5.95a4.65,4.65,0,0,1-1.51,6.11l-3.49,2.12a46.08,46.08,0,0,1,2.88,11.81l4,.09a4.46,4.46,0,0,1,4.16,4.59v1.09a4.21,4.21,0,0,1-4.16,4.39l-4-.1a44.43,44.43,0,0,1-2.91,11.65l3.48,2.29a4.79,4.79,0,0,1,1.52,6.18l-.5.92a3.89,3.89,0,0,1-5.65,1.46l-3.48-2.31a39.23,39.23,0,0,1-7.87,8.28l2,3.84a4.58,4.58,0,0,1-1.5,6l-.86.51a4,4,0,0,1-5.58-1.86l-2-3.83a34.63,34.63,0,0,1-10.62,2.68v4.32a4,4,0,0,1-4,4.27l-1,0a4.46,4.46,0,0,1-4-4.59v-4.32a36.19,36.19,0,0,1-10.47-3.5l-1.93,3.63a3.68,3.68,0,0,1-5.42,1.39l-.83-.56a4.75,4.75,0,0,1-1.45-6.05l1.93-3.64a42.27,42.27,0,0,1-7.56-8.68l-3.32,2a3.8,3.8,0,0,1-5.36-1.78l-.47-.93a4.57,4.57,0,0,1,1.43-5.92l3.31-2a46,46,0,0,1-2.73-11.52l-3.81-.1a4.28,4.28,0,0,1-3.91-4.45v-1.06A4,4,0,0,1,1879,797.06Zm41.23,36.79c15.58.55,28.34-13,28.34-30.16s-12.76-31.33-28.34-31.54c-15.41-.2-27.78,13.31-27.78,30.18S1904.86,833.31,1920.27,833.85Z"/></g></g><path class="cls-31" d="M1176.45,1084.84a50.65,50.65,0,0,0,33.6-38.16l25-123.62,213.68,7.58,26.3,128.8c3.68,18-11.06,36.13-28,42.77l-89.4,35a116.15,116.15,0,0,1-52.26,7.58l-188.93-16.16a11.73,11.73,0,0,1-10.6-10.39c-.64-5.57-4.51-11.82.76-13.57Z"/><path class="cls-32" d="M1174.33,1077.32a50.25,50.25,0,0,0,33.58-37.68l24.95-122.07,208.47,7.5,26.27,127.17a37.22,37.22,0,0,1-23,42.24L1355.27,1129a117.25,117.25,0,0,1-52.21,7.49l-188.74-16a11.65,11.65,0,0,1-2.64-22.67Z"/><path class="cls-31" d="M1885.32,1005.23c23.18,1.38,42.13-13.66,42.13-33.52v-716c0-19.87-19-35.21-42.13-34.21L813.73,267.94a32.39,32.39,0,0,0-30.79,32v609c0,16.89,13.78,31.46,30.79,32.47Z"/><path class="cls-29" d="M1875.69,1005.23c23.18,1.38,42.13-13.66,42.13-33.52v-716c0-19.87-19-35.21-42.13-34.21L804.1,267.94a32.39,32.39,0,0,0-30.79,32v609c0,16.89,13.78,31.46,30.79,32.47Z"/><path class="cls-33" d="M804.1,282.27l1071.59-44.09c12.39-.51,22.46,7.68,22.46,18.29V970.63c0,10.61-10.07,18.63-22.46,17.92L804.1,927a17.63,17.63,0,0,1-16.49-17.36V299.36A17.28,17.28,0,0,1,804.1,282.27Z"/><path class="cls-34" d="M1875.69,927.72c4.83.24,8.75-2.93,8.75-7.05V257c0-4.13-3.92-7.33-8.75-7.14L804.1,292.3a6.75,6.75,0,0,0-6.45,6.67V868a6.84,6.84,0,0,0,6.45,6.74Z"/><path class="cls-35" d="M916,897c90.15-55.76,27.18-214.32,128.43-294,102.07-80.32,245.7,18.19,317.2-65,53.24-61.93-9.06-136.71,41.78-195,79.72-91.34,283.79,34.29,377.54-55.7,13.32-12.78,26.75-32.16,34.39-63.26l60.38-2.62c23.18-1,42.13,14.34,42.13,34.21v716c0,19.86-19,34.9-42.13,33.52L804.1,941.34c-17-1-30.79-15.58-30.79-32.47V898C844.47,922.18,888,914.35,916,897Z"/><path class="cls-36" d="M1665.9,327.27V920.14c0,8.36-8,14.76-17.75,14.29L699.32,888.92c-7.65-.37-13.84-6.64-13.84-14V352.62Z"/><path class="cls-37" d="M699.32,324.05l948.83-28.21c9.8-.29,17.75,6.25,17.75,14.61v25.8L685.48,360.52V337.79C685.48,330.43,691.67,324.28,699.32,324.05Z"/><path class="cls-29" d="M1624.82,316.06c0,3.7,3.51,6.6,7.84,6.49s7.85-3.21,7.85-6.92-3.51-6.61-7.85-6.49S1624.82,312.36,1624.82,316.06Z"/><path class="cls-29" d="M1591.26,494.5c8.6,4.44,16.89,14.21,15,25-1.91,10.91-13.42,17.8-22.48,20-12.74,3.14-16.93-3.84-30.62-2.84-20.68,1.51-36.75,19.35-43.45,32.54-6.59,12.95-1.45,16.14-5.71,31.07-7.47,26.22-30.6,42.08-52.59,57.17-18.29,12.55-46.12,27.62-51.12,23-1.78-1.67-.17-5.4.8-7.66,3.85-9,12.66-10.91,24.68-19.18,8.56-5.89,19.36-13.34,17.61-19.39s-15.41-9.79-25.59-7.29-15.65,11-18.29,15.15c-2.25,3.51-1.88,8.11-4,8.31-1.44.14-3-1.75-3.77-3.36-1.86-4.15,1.39-8.11,2.58-11.29,2.72-7.34-3.74-15.36-10.16-23.33-10.73-13.32-17-13.46-33.58-29-11.07-10.35-16.6-15.66-17.21-23.15-1-12.84,11.46-22.38,13.55-24,10.12-7.72,27.29-13,34.61-7.43,6.57,5-.35,14.53,7.38,21.81,5.4,5.09,14.85,6.14,22.22,4.22,10.41-2.72,16.41-11.32,17-19.1.12-1.54.66-8.63-4.79-13.52-1.56-1.4-5.34-4.17-18.06-4.62-17.83-.62-21.55,4.47-32.18,2.41-8.85-1.71-19.52-7.8-19.39-13.82.15-7.05,15-7.82,32-23.81,6.64-6.22,12-11.44,11.62-18.21-.61-9.53-12.43-16.95-14.78-18.42-9.19-5.76-17.34-10.44-17.34-10.44-2.3-1.32-5.63-3.2-5.24-5,.25-1.2,2-2,5.24-2.85a46.44,46.44,0,0,1,17.87-1.18c12,2.16,15.89,7.23,30.67,14a122.29,122.29,0,0,0,29.84,9.91c15.74,2.92,21.16.35,29,5.31,7.56,4.78,5.18,8.87,12.95,16.31,8.16,7.8,18.13,10.36,33.65,14.34a194.38,194.38,0,0,0,34.48,5.46C1577.25,493.32,1582.23,489.84,1591.26,494.5Z"/><path class="cls-29" d="M1334.45,433.91c16.29,3.58,30.48,6.7,33.44,15.3a13,13,0,0,1-4.2,13.93c-8.55,6.56-21.45-3.56-30.81,2.15-5,3-3.1,7-8.83,29.1-3.82,14.71-7,21.77-13,28.12-3.4,3.59-8.17,8.64-12.91,7.83-7-1.19-4.36-13.57-15.44-22.43-3.89-3.1-4.59-1.88-23-9.5-10.75-4.43-16.14-6.68-17.32-8.56-6.06-9.61,10-21.44,3.56-32.86-1.23-2.15-1.39-1-9.66-9.92-9.49-10.22-9.37-11.83-9.12-12.62,1-3.38,8.11-3.72,26.41-5.84,30.48-3.52,33-5.11,42-3.35,6,1.16,7.64,2.38,20.66,5.22C1326.46,432.69,1327.6,432.41,1334.45,433.91Z"/><path class="cls-29" d="M1375.77,680c9,5.95,10.85,16.07,11.58,20.16,1.81,10.15-1.57,16.7-7.9,33.24-7.68,20.08-11.51,30.11-12.09,35.83-.89,8.87,1,10.47,8.41,45.67,5.53,26.19,6.13,33,1,37.59-7.46,6.77-23.48,5.48-24.12,3.67-.31-.88,3.14-1.52,5.75-4.39,5.82-6.4,1.63-17.43.53-20.34-4.35-11.46-12.67-16.56-26.1-28.16-15.82-13.67-26.11-22.56-33.66-35.55-3.75-6.45-11.74-20.65-9.27-38.79a55.71,55.71,0,0,1,12.88-28.17c13.4-15.83,31.52-20.55,36.82-21.86C1350,676.33,1364.71,672.71,1375.77,680Z"/><path class="cls-29" d="M1222.61,614.09c5.79,9.82,12.19,20.68,14.7,30.66,2.24,8.93,4.39,29.14-7.11,36.76-10.38,6.89-22.35-2.87-36.81,4.77-7.37,3.9-10.62,9.79-14.53,16.91-8.41,15.28-4.4,23.89-8,43.64-1.69,9.28-7,38.74-20.41,40.44-11.13,1.42-23.22-17-25.24-20.11-5.35-8.18-7.42-16.59-11.32-33.06-5.26-22.2-3.31-25.26-8.84-31.57-7.12-8.12-15.74-9.19-17.62-16.9-1.39-5.66,1.92-10.69,3.9-13.78,7.35-11.45,17.6-10,24.52-21.11,4-6.37,5.07-14,3.45-14.75-1.44-.68-5.44,3.94-7.38,6.18-6,6.88-5.22,9.41-8.84,12.87-7.3,7-19.61,5.61-20.54,5.49-5.64-.7-15.79-3.73-17-9.62-1-4.53,3.67-9.3,9.24-15,4.49-4.63,7.85-6.6,7.31-7.5s-4.55.22-15.09,3.39c-11.43,3.44-17.13,5.16-17.93,5.57-3.84,1.95-7.11,4.61-17.85,20.61-10.87,16.2-14.82,24.35-17.28,23.63-1.23-.36-1-2.6-1.92-10.21-1.35-11.38-2.09-17.15-5.26-21.31-2.68-3.51-8.4-8.29-14.32-7.71-3.54.35-7.8,5.31-16.16,15.19s-11,13-16.56,15.56c-2.92,1.32-8.15,3.69-12.26,1.54-4.56-2.39-6.12-9.48-4.23-14.54,2.29-6.13,8.66-6.63,8.47-10.4-.26-5.38-13.43-9.1-14.58-9.41-8.48-2.32-10.65.15-15-2.39-6.44-3.75-9.09-13.53-7.47-21,1.67-7.75,7.32-10.55,5.6-13.93-1.44-2.84-6-1.89-14.92-4-6.65-1.6-16.45-4-21.81-11-3.19-4.21-3.75-8.7-4.62-15.68a61.69,61.69,0,0,1,0-13.9c1.07-10.22,3.45-10.93,2.31-13.91-2.5-6.54-14.51-4.73-37.27-10.83-13-3.49-22.36-7.63-23.27-6-1.15,2,14,7.83,15,18.55.78,8.13-6.84,16.31-10,15.53-2.64-.65-.74-7-5.47-16.4-1.74-3.45-4.38-8.67-10-12.06-6.73-4.07-10.7-1.25-16.75-5.57-4.83-3.46-3.61-6.21-7.67-9.86-9.17-8.26-24.6-2.42-25.59-5.48-.92-2.83,11-11.77,26.5-13.84,13.82-1.84,15.95,3.7,31.68,3.7,9,0,19.81-3.38,41.61-10.18,12.34-3.85,18.78-6.47,30-7.16,7.82-.48,8,.58,16.25-.12,9.31-.8,20.86-1.8,29.91-9,7.11-5.65,4.94-9,10.81-12.38,9.49-5.51,22.5-1.14,33.56,2.74,11.78,4.13,20.15,9.2,34.35,17.81,16.54,10,22.09,15,31.27,14,6.86-.79,8.27-4.09,16-4.1,6.25,0,8.21,2.16,20.92,7,12.32,4.7,18.6,7,24,6.14,8.34-1.4,8.66-6.66,17.71-9.95,9.67-3.51,18.9-1,30.2,2.08,14,3.81,27.74,7.56,34.44,18.38,7.11,11.47.52,21.59,8.54,26.71,6.66,4.26,13.48-1.25,19.65,3.19,7.41,5.35,5.2,18.81,4,25.92-2.29,14-8,17.4-6.06,27.23C1216.39,604.75,1217.91,606.1,1222.61,614.09Z"/><path class="cls-29" d="M1087.44,729c3.44-.24,9.2,12.46,7.82,24.35-.09.7-1.22,9.92-4.4,10.15-3,.22-6-7.42-6.35-8.22-.52-1.31-2.07-5.58-1.47-12.54C1083.21,740.75,1084.21,729.19,1087.44,729Z"/><path class="cls-29" d="M964.9,697.37c.25.55-.71,1.46-3.39,3.38-7.07,5.07-10.6,7.6-16.42,9.36-5,1.51-17.5,4.19-20.17,0-1.71-2.7.75-8,4.68-10.39,4.19-2.57,7.35-.21,17.37-.51C957.37,698.87,964.29,696,964.9,697.37Z"/><path class="cls-29" d="M929.6,673.88c2.07.34,1.54,4.12,5.63,12.36,1.9,3.85,2.94,4.88,2.34,6.18-1.31,2.86-9.2,4.09-13.12.61-3.65-3.25-2-9-1.4-11C924.16,678.28,927.18,673.48,929.6,673.88Z"/><path class="cls-29" d="M887.68,704.9c-1.55,2.07-4.19,4.62-10.64,7.15-2.25.88-18.85,7.38-23,2.06-1.7-2.16-.87-5.67.46-7.78,2-3.27,5.79-4,11.95-5.37,18.37-4.16,22.53-6.26,24-4.27C892.14,698.93,888.53,703.76,887.68,704.9Z"/><path class="cls-29" d="M918.84,658.4c2.21.67,2.07,10.05-1.87,17.44-2,3.84-5.76,8.37-7.46,7.72s-.9-7.32.47-11.77C912,665.16,916.71,657.75,918.84,658.4Z"/><path class="cls-29" d="M901.14,614.09c0-2.19-5.86-1.72-13.46-6.22-5.28-3.13-13-9.6-17.1-18.39-.83-1.78-1.69-4-2.31-3.92-.93.17-1,5.65,0,10.42a30.66,30.66,0,0,0,16.17,20.56,15.69,15.69,0,0,0,7.41,1.81C896.19,618.26,901.17,616.13,901.14,614.09Z"/><path class="cls-29" d="M917,742.23c10.22,8.51,15.8,7.15,17.32,11.85,1.72,5.33-5.3,7.53-6.56,18.19-.79,6.62,1.37,10.43-.47,11.36-2.79,1.4-7.41-7.52-18.21-11.07-.84-.27-12.15-3.82-21.37,1.08-5.35,2.84-4.68,5.71-13.41,12.61-5.58,4.42-8.48,6.64-12,6.11-5.77-.88-9-8.61-11-13.36-1.65-3.94-5.44-12.94-2.75-23.46,1.17-4.56,2-3.46,17.92-24.21,4.4-5.75,6.17-8.23,10.15-9.74,8.13-3.08,17.06,1.08,18.52,1.76,3.2,1.49,6,4,11.62,9C913.36,738.29,913,738.88,917,742.23Z"/><path class="cls-38" d="M1333,643.7c20.75.27,37.65,15.43,37.65,33.86,0,12-15.85,39.38-27,57.16-4.61,7.37-16.72,7.06-21.32-.53-11-18.22-26.65-46.09-26.65-57.92C1295.74,658,1312.4,643.42,1333,643.7Zm0,51c11.13.22,20.17-7.61,20.17-17.49s-9-18-20.17-18.18S1313,666.74,1313,676.57,1321.94,694.53,1333,694.75Z"/><path class="cls-39" d="M1445.89,418.29c32.66-.5,59.34,22.31,59.34,51,0,18.56-25,61.76-42.55,89.73-7.26,11.59-26.3,11.52-33.51-.08-17.31-27.81-41.76-70.33-41.76-88.62C1387.41,442.06,1413.49,418.78,1445.89,418.29Zm0,79.12c17.5-.1,31.75-12.6,31.75-27.92s-14.25-27.58-31.75-27.36-31.51,12.71-31.51,27.91S1428.46,497.5,1445.89,497.41Z"/><path class="cls-40" d="M731.21,519.33V664.55a9,9,0,0,1-9.12,8.78L423.27,675a8.3,8.3,0,0,1-8.37-8.3v-139Z"/><path class="cls-41" d="M423.27,509.91l298.82-8.75a8.63,8.63,0,0,1,9.12,8.47v14.88L414.9,532.74V518.51A8.66,8.66,0,0,1,423.27,509.91Z"/><path class="cls-42" d="M656.85,597.8l-16.67-55.9c-25.13,8.45-43.24,31.59-43.38,58.46Z"/><path class="cls-29" d="M612.27,603.65a44.75,44.75,0,0,0,16.84,31.72l26.13-33.58Z"/><path class="cls-29" d="M660.58,595.82c10.12-9.53,22.34-21.06,32.07-30.29a47.78,47.78,0,0,0-33.07-12A50,50,0,0,0,648.35,555Z"/><path class="cls-29" d="M662.69,599.31l36.77,25.5a45.45,45.45,0,0,0,8.18-25.95,44.36,44.36,0,0,0-12.12-30.52l-9,8.49C676.6,586.21,666.63,595.6,662.69,599.31Z"/><path class="cls-29" d="M661.63,603.48l.71,42.17A49.06,49.06,0,0,0,697,628Z"/><path class="cls-29" d="M657.56,605.32l-25.23,32.41a48,48,0,0,0,25.91,8Z"/><polygon class="cls-43" points="436.62 572.47 588.35 569.39 588.35 555.18 436.62 558.56 436.62 572.47"/><polygon class="cls-43" points="436.62 597.63 588.35 595.09 588.35 580.89 436.62 583.73 436.62 597.63"/><polygon class="cls-43" points="436.62 622.79 588.35 620.8 588.35 606.59 436.62 608.89 436.62 622.79"/><polygon class="cls-43" points="436.62 647.96 588.35 646.51 588.35 632.3 436.62 634.05 436.62 647.96"/><path class="cls-29" d="M710.3,513.12a3.84,3.84,0,0,0,4,3.76,4.1,4.1,0,0,0,4-4,3.83,3.83,0,0,0-4-3.76A4.1,4.1,0,0,0,710.3,513.12Z"/><path class="cls-40" d="M731.21,716.17V861.38a8.71,8.71,0,0,1-9.12,8.54L423.27,863.6a8.58,8.58,0,0,1-8.37-8.53V716.13Z"/><path class="cls-44" d="M423.27,698.47l298.82-.72a8.91,8.91,0,0,1,9.12,8.71v14.88l-316.31-.26V706.84A8.39,8.39,0,0,1,423.27,698.47Z"/><path class="cls-29" d="M710.3,709.39a4,4,0,1,0,4-3.87A4,4,0,0,0,710.3,709.39Z"/><polygon class="cls-29" points="668.37 849.87 691.37 850.29 691.37 741.89 668.37 741.81 668.37 849.87"/><polygon class="cls-45" points="668.37 849.87 691.37 850.29 691.37 798.83 668.37 798.56 668.37 849.87"/><polygon class="cls-29" points="636.62 849.28 659.41 849.7 659.41 741.78 636.62 741.69 636.62 849.28"/><polygon class="cls-46" points="636.62 849.28 659.41 849.7 659.41 824.08 636.62 823.74 636.62 849.28"/><polygon class="cls-29" points="605.14 848.69 627.73 849.11 627.73 741.66 605.14 741.58 605.14 848.69"/><polygon class="cls-47" points="605.14 848.69 627.73 849.11 627.73 835.72 605.14 835.34 605.14 848.69"/><polygon class="cls-29" points="573.93 848.12 596.33 848.53 596.33 741.55 573.93 741.47 573.93 848.12"/><polygon class="cls-48" points="573.93 848.12 596.33 848.53 596.33 764.72 573.93 764.57 573.93 848.12"/><polygon class="cls-29" points="542.99 847.54 565.2 847.95 565.2 741.43 542.99 741.35 542.99 847.54"/><polygon class="cls-49" points="542.99 847.54 565.2 847.95 565.2 773.99 542.99 773.81 542.99 847.54"/><polygon class="cls-29" points="512.32 846.97 534.34 847.38 534.34 741.32 512.32 741.24 512.32 846.97"/><polygon class="cls-50" points="512.32 846.97 534.34 847.38 534.34 756.74 512.32 756.61 512.32 846.97"/><polygon class="cls-29" points="481.92 846.41 503.75 846.81 503.75 741.21 481.92 741.13 481.92 846.41"/><polygon class="cls-51" points="481.92 846.41 503.75 846.81 503.75 781.95 481.92 781.74 481.92 846.41"/><polygon class="cls-29" points="451.77 845.85 473.41 846.25 473.41 741.1 451.77 741.02 451.77 845.85"/><polygon class="cls-52" points="451.77 845.85 473.41 846.25 473.41 809.74 451.77 809.45 451.77 845.85"/><path class="cls-53" d="M1669.78,1269.82a110.77,110.77,0,0,0-9.8,14.8l-8.1-4.35s4.57-1.63,6.86-10.45S1669.78,1269.82,1669.78,1269.82Z"/><path class="cls-54" d="M1648.51,1289.89a46.6,46.6,0,0,0,7.18,1.87h.22a3.49,3.49,0,0,0,3.06-1.4c1.25-1.67,3-4.2,3.09-4.91,0-1.09-2.88-3.31-5.49-4.27s-3.22-2.26-8.06-6.13-13-8.45-16.85-4.92S1631.37,1282.48,1648.51,1289.89Z"/><path class="cls-55" d="M1634.47,1270.7c4.2,1.67,5.47,6.4,12.76,11.21a102.28,102.28,0,0,0,12.89,6.88,12.29,12.29,0,0,0,1.94-3.33c0-1.09-2.88-3.31-5.49-4.27s-3.22-2.26-8.06-6.13-13-8.45-16.85-4.92a4.41,4.41,0,0,0-1.39,3.62C1631,1271.72,1632.33,1269.85,1634.47,1270.7Z"/><path class="cls-56" d="M1718,1031.88a598.32,598.32,0,0,0-61.77,235.85l13.94,5.76c9.12-5.82,22.51-16.06,32.38-32.68,16.19-27.24,4.76-41.06,17.92-73.82,12.75-31.77,28.91-32.3,42.9-66.84a149,149,0,0,0,10.63-51.5Z"/><path class="cls-57" d="M1743.46,1039.52c5,13,4.64,22.81,2.7,30-6.47,23.87-32,26.46-38,53.15-4.08,17.91,6.24,21.87.81,40.47-5.75,19.74-18.41,18.87-25.34,39.24-5.45,16,.36,22.5-2,45a120.64,120.64,0,0,1-4.22,21.17,96.29,96.29,0,0,0,25.16-27.68c16.19-27.24,4.76-41.06,17.92-73.82,12.75-31.77,28.91-32.3,42.9-66.84a149,149,0,0,0,10.63-51.5Z"/><path class="cls-58" d="M1922.29,1223.61s3.44,1.3,5,6.1-1,24.77-3.14,29.67-8.57,3.74-10.44,0,.79-30.16.79-30.16Z"/><path class="cls-59" d="M1720,1043.74a434,434,0,0,1,32.3,50.69c14.22,26.23,17.47,38.87,34.24,63.25,15.53,22.58,25.77,30.69,30,33.81,10.09,7.51,18.42,10.88,39.85,19q28.1,10.62,59.46,21.93c3.69.41,5.24-1.18,6.25-4.53-.34-16-5.14-25.7-9.13-31.46-8.5-12.31-17.32-12.37-43.62-31-14-9.94-21.17-15.07-27.08-23.2-2.84-3.91-7.5-11.17-14.88-38.6-3-11.24-6.66-26.43-9.72-44.81Z"/><path class="cls-60" d="M1696.17,847.41s5-3.15,2.4-10.44-9-19-3.34-26.33c0,0-.27,12.28,3.68,13.62a8.09,8.09,0,0,1,5,4.77s5.19,9.6-.53,18.24l-5.71,8.64Z"/><path class="cls-61" d="M1815.89,810.11s-4.57-2.52-5.9-5.72-1.35-8.18,3.18-10.8,5.51-5.28,7.15-7.4,5.38-2.87,5.38-2.87-6.72,12.4-7.53,14.43-4.07,2.32,0,8.14Z"/><path class="cls-62" d="M1700.54,901.94a145.67,145.67,0,0,0,45.1,1.77,148,148,0,0,0,66.66-25.42c13,28.38,13.28,49.42,11,63.56-1.69,10.42-4.26,13.91-4.49,25.57-.38,19.63,6.63,22.6,9.93,48.11,2.72,21-1.18,25.58,5,34.32,4.39,6.28,10.23,9.38,13.71,19.19,1.15,3.25,4,11.33,1,13.94-4.88,4.2-17-12.44-39.56-14.71-12-1.21-13.88,3-26.36.61-13.63-2.6-12.68-7.84-25.45-10.42s-16.5,2-35.87-.31c-8.16-1-12.23-1.46-14.77-3.72-8.22-7.31-1.43-21.85.05-44.72,1.46-22.56-4.14-24.06-6.44-57.64A318.62,318.62,0,0,1,1700.54,901.94Z"/><path class="cls-63" d="M1810,809.5l7.67-8.59a141.55,141.55,0,0,1,42.1,34.46c11.15,13.54,21,25.49,22.06,42.82,1.52,24.85-16.08,43.46-24.27,52.12a100.94,100.94,0,0,1-45.41,27.27c-20.63-45.77-17.56-63.65-10.26-71.29,4.06-4.25,9.54-5.43,14.57-13.32,7-11,5.75-23.37,5-31.24A73.05,73.05,0,0,0,1810,809.5Z"/><path class="cls-64" d="M1748.1,879.85c-.58,3.12-.94,9.84,3.18,15.18,3.6,4.68,9.12,6.1,11.33,6.69,5.34,1.42,8.23.27,8.52,1.18.63,2-12.47,11.07-27.63,10.5-8.92-.33-17.89-3.95-17.8-6.82.1-3.21,11.54-2.85,14.38-9.5,1.81-4.25-.69-9.49-3.4-13.57C1739.14,880.65,1745.64,882.72,1748.1,879.85Z"/><path class="cls-65" d="M1732.63,880.38a6.54,6.54,0,0,1,0-8c1.65-1.9,4.27-2.08,5.85-2.19,4.56-.3,10.36,1.7,12.43,5.68,1.22,2.36-1.3,7.06-1.69,7.91s-1.27,1.26-2,2c-1,1-2.69,2.54-5.36,5.15a18.44,18.44,0,0,0-1.08-2.93,16.51,16.51,0,0,0-2.22-3.47C1736.17,881.72,1734.25,882.41,1732.63,880.38Z"/><path class="cls-66" d="M1745.72,888.78a9.75,9.75,0,0,1-9,3.82c-5.35-.55-6.27-11.7-2.89-13.92a7.11,7.11,0,0,1,5.28-.41c1.1.33,1.48.76,3.29,1.27s2.13.32,2.64.73,1.12,1.74.11,5a3,3,0,0,1,3.11-.81,1.84,1.84,0,0,1,.72.67C1749.8,886.39,1748.57,888,1745.72,888.78Z"/><path class="cls-67" d="M1853,609.88a92.56,92.56,0,0,1,28.9,127.68c-17.67,28-91.67,72.46-141.57,100.27-20.74,11.56-46-4.39-44.54-28.09,3.61-57,11.86-142.94,29.53-171A92.56,92.56,0,0,1,1853,609.88Zm-75.9,120.33a49.7,49.7,0,1,0-15.52-68.56A49.71,49.71,0,0,0,1777.12,730.21Z"/><path class="cls-68" d="M1849,604.88a92.56,92.56,0,0,1,28.9,127.68c-17.67,28-91.67,72.46-141.57,100.27-20.74,11.56-46-4.39-44.54-28.09,3.61-57,11.86-142.94,29.53-171A92.56,92.56,0,0,1,1849,604.88Zm-75.9,120.33a49.7,49.7,0,1,0-15.52-68.56A49.71,49.71,0,0,0,1773.12,725.21Z"/><path class="cls-69" d="M1705.4,856.35l-10.91-12c-7-.28-47.15-1.21-76.35,29.45-15.12,15.87-34.76,46.75-24,65.45,3.07,5.34,7.88,8.43,65.45,18.54,41.51,7.3,48.76,7.4,54.54,2.18,15.37-13.91,2.52-49.59,1.09-53.45a80.79,80.79,0,0,0-14.18-4.36c-26.27-5.46-44.67,4.77-46.91,1.09C1652.34,900.31,1661.49,889.4,1705.4,856.35Z"/><path class="cls-70" d="M2093.87,228v197.7A11.87,11.87,0,0,1,2082,437.59H1709.9c-5.51,0-10-4.86-10-10.87V245.86Z"/><path class="cls-71" d="M1709.9,222.39,2082,203.51a11.18,11.18,0,0,1,11.85,11.29v20.25L1699.93,252.3V233.77C1699.93,227.77,1704.39,222.67,1709.9,222.39Z"/><path class="cls-29" d="M2066.37,219.63a5,5,0,0,0,5.22,5,5.56,5.56,0,0,0,5.24-5.51,5,5,0,0,0-5.24-5A5.55,5.55,0,0,0,2066.37,219.63Z"/><path class="cls-72" d="M2031.79,326.27a22.75,22.75,0,0,0-18-12l-.55-33.49a54.67,54.67,0,0,1,49.92,33Z"/><path class="cls-29" d="M2007.52,314.49a24.34,24.34,0,0,0-19.68,21.78l-32.29,2.08c.41-29.47,22.8-54.23,51.43-57.3Z"/><path class="cls-29" d="M1988.09,342.58A22.9,22.9,0,0,0,2011,361.79a23.33,23.33,0,0,0,9.56-2.23L2038,387.92a55.9,55.9,0,0,1-27,7.23c-29,.27-52.57-21.93-55.23-50.54Z"/><path class="cls-29" d="M2043.38,384.5l-17.47-28.39a24.49,24.49,0,0,0,8.63-18.67,23.68,23.68,0,0,0-.57-5.23l31.38-12.49a57.53,57.53,0,0,1,2.54,17A58.85,58.85,0,0,1,2043.38,384.5Z"/><path class="cls-29" d="M1911.61,329.2a21.6,21.6,0,0,0-17.09-11.75l-.52-32.6c21.09.12,39.22,13.14,47.32,32.18Z"/><path class="cls-73" d="M1888.6,317.71c-10,1.84-17.74,10.58-18.66,21.2l-30.64,2c.39-28.7,21.64-52.8,48.79-55.76Z"/><path class="cls-29" d="M1870.17,345.06c1.81,10.81,10.84,18.9,21.75,18.71a21.49,21.49,0,0,0,9.06-2.16l16.52,27.62a52,52,0,0,1-25.58,7c-27.51.26-49.86-21.37-52.38-49.24Z"/><path class="cls-29" d="M1922.6,385.9,1906,358.26a24.12,24.12,0,0,0,8.19-18.18,23.79,23.79,0,0,0-.55-5.1l29.74-12.14a58.14,58.14,0,0,1-20.82,63.06Z"/><path class="cls-29" d="M1797.6,332a20.54,20.54,0,0,0-16.23-11.46l-.49-31.77c20,.14,37.23,12.84,44.92,31.39Z"/><path class="cls-29" d="M1775.76,320.78c-9.48,1.78-16.85,10.29-17.73,20.64l-29.1,1.94c.37-28,20.55-51.45,46.34-54.31Z"/><path class="cls-29" d="M1758.26,347.41c1.71,10.53,10.29,18.42,20.65,18.25a20.09,20.09,0,0,0,8.6-2.1l15.69,26.92a48.61,48.61,0,0,1-24.29,6.84c-26.13.24-47.36-20.84-49.76-48Z"/><path class="cls-74" d="M1808,387.23l-15.72-26.94a24,24,0,0,0,7.25-22.67l28.23-11.81a57.5,57.5,0,0,1,2.28,16.12A56.74,56.74,0,0,1,1808,387.23Z"/><ellipse class="cls-75" cx="1064.52" cy="1161.53" rx="63.79" ry="26.04"/><path class="cls-31" d="M1128.31,1158.47c0,13.58-28.56,24.58-63.79,24.58s-63.79-11-63.79-24.58,28.56-35.78,63.79-35.78S1128.31,1144.9,1128.31,1158.47Z"/><path class="cls-76" d="M1128.31,1158.47c0-13.57-28.56-35.78-63.79-35.78a86.55,86.55,0,0,0-42.37,11.17,9.28,9.28,0,0,0-1,4.86c.73,7.64,13.19,12.33,20.34,13.88,18,3.9,26.79-6.87,41.64-6.46,9.17.26,21.89,4.87,37,24.39C1125.32,1167,1128.31,1162.86,1128.31,1158.47Z"/><path class="cls-31" d="M1068,1139.7a14.36,14.36,0,0,1-7.16,0,4.6,4.6,0,0,1-3.42-4.48v-61.21h14.18v61.12A4.69,4.69,0,0,1,1068,1139.7Z"/><path class="cls-77" d="M989.57,1056.17l21.67-13.7c.9-5.12,1.19-185.61,42.65-202.43,16.87-6.83,60.93,1.43,70.89,1.87,19.88.89,34.06,1.53,40.89,11,8.75,12.18-21.92,142.73-18.88,177.57,1.24,14.2,4.39,20.51.46,29.92-4.7,11.27-15.62,17.52-24.1,21a123.49,123.49,0,0,1-51.14,16.33c-39.3,3.44-68.64-13.41-78.73-19.86a13,13,0,0,1-8.81-9.75A11.45,11.45,0,0,1,989.57,1056.17Z"/><path class="cls-78" d="M1129.15,844.78c14.71.43,23.84.26,28.9,6.83,5.3,6.89-16,132.27-17,156.81-.91,22.37,3,31.22-4.19,43.61a46,46,0,0,1-9.47,11c-20.5,16.73-73.37,16.52-95.62-18.39-17.76-27.85,5.63-188.41,26.49-202C1068.44,836,1070.79,843.05,1129.15,844.78Z"/><path class="cls-79" d="M988,1043.86l21.67-13.7s58-19.08,111.75,7.83a17.83,17.83,0,0,1,9.76,16,12.81,12.81,0,0,1-7.87,11.81,116.8,116.8,0,0,1-52.87,19.72c-40.08,4.39-69.91-14-78.72-19.86a13,13,0,0,1-8.81-9.76A11.45,11.45,0,0,1,988,1043.86Z"/><path class="cls-80" d="M893.53,1213.93,912,1202.81h8.35s2.84,10.59,2.52,11.12c-3.72,6.1-21,10.73-31.86,11.12-1.79.06-4.29.07-4.94-1.23C885,1221.62,889.91,1217,893.53,1213.93Z"/><path class="cls-81" d="M912.36,1190.68c0,6.48-.24,11-1.87,13.06-1.14,1.41,9.84,4.6,9.9-.93,0-3.63.61-9.87,1.19-11.7Z"/><path class="cls-82" d="M962.35,1229.56l18.5-11.12h8.35s2.84,10.59,2.52,11.12c-3.72,6.1-21,10.73-31.85,11.12-1.8.06-4.3.07-5-1.23C953.83,1237.25,958.72,1232.63,962.35,1229.56Z"/><path class="cls-83" d="M981.18,1206.31c0,6.48-.25,11-1.87,13.06-1.14,1.41,9.83,4.6,9.89-.93,0-3.63.61-9.87,1.19-11.7Z"/><path class="cls-84" d="M911.61,1196.06c-5.24-31.59-.12-65.34,1.07-83.49,1.9-28.86,2.85-43.29,11.19-55.42,10.94-15.87,33.32-31.75,52.23-45.16a96.6,96.6,0,0,0,9-7.09,103.45,103.45,0,0,0,20.55-25.32c42.82-12.56,82.31-7.47,99.74,15.5,2,2.65,7,8.41,8,16.89,2.2,19.15-16.62,42.2-37.73,47-26.83,6.12-42.4-21.43-66.17-12.27-2.37.92-9.37,8-23.57,21.63-10.3,9.92-15.46,14.88-17.1,16.86-15.19,18.25-24.24,46.34-25.33,68.1-.2,3.85-.36,11.94-5,20.59-3.56,6.63-13.33,18.68-16.92,21.41Z"/><path class="cls-85" d="M991.75,1211.66s-9.16,4.33-16,0c.22-11.45.24-29.38-1.23-51.31-3.2-48-10-62.49-4-83,4.35-14.79,16-34.93,50.52-53.77l87.55-8.59a27.43,27.43,0,0,1,3.13,16c-1.84,17-21.42,27.48-37.79,36-32.33,16.86-39.15,9.1-49.68,20.47-14.23,15.35-5.37,33.42-13.15,71.4A189.48,189.48,0,0,1,991.75,1211.66Z"/><path class="cls-86" d="M980.39,988.48c-12-1-30.15-57.8-5-94.45,18.54-27,57.19-38.14,63.93-29.95,3.91,4.75-4.13,14.53-19,42.59C989.72,964.25,988.46,989.18,980.39,988.48Z"/><path class="cls-87" d="M1113.57,866.73a161.93,161.93,0,0,0-47.5-7.78c-22.65-.27-40.75-.48-53.21,9.06-30.1,23.06,3.6,80-13.7,121.25-1.89,4.51-7.38,18.82-2.6,34.56.88,2.9,2.7,5.45,5.8,9.76,18.29,25.41,70.05,29.23,94,8.35,12.68-11.08,24.12-8.63,24.43-21.74C1122,968.41,1113.08,916.56,1113.57,866.73Z"/><path class="cls-88" d="M1090.77,932.34c4.35-10.71-.16-23.16,9.55-28.39,3.57-1.92,12.3-7.32,12.84-2.51,3.53,31.83,6.7,64.68,5.68,104.35-.34,13.1-10.26,25-24.29,36.08-16.2,12.74-44,16.13-67.67,11,31-16.39,53.34-33.78,50.14-49.39-3.72-18.15-40-24.4-38.53-37.15C1040,952.82,1081.26,955.73,1090.77,932.34Z"/><path class="cls-89" d="M1064,830.74a81.65,81.65,0,0,0,1.76,17.89c1,4.77,1.75,6,2.68,7,1.41,1.52,3.55,2.8,15.64,5.67,6.6,1.56,7.45,1.53,7.59,2.13.72,2.9-17.25,12.52-35.74,9.9-11.27-1.6-21.51-7.59-20.88-10.65s11.87-1.29,15.23-6.84c2.33-3.87-.29-9.43-3.38-14C1049.85,836.74,1061,835.84,1064,830.74Z"/><path class="cls-90" d="M1040.28,840.23c-3.46-2.53-5.17-7.94-3.19-12.05,1.7-3.55,5.59-4.89,7.92-5.69,6.76-2.34,16.33-1.7,21.07,3.46,2.82,3.07,1,11.19.7,12.62-.28,1.63-1.4,2.42-2.25,3.8-1.18,1.91-3,4.93-6,10a27.55,27.55,0,0,0-2.82-4A25.66,25.66,0,0,0,1051,844C1046.17,840.82,1043.56,842.64,1040.28,840.23Z"/><path class="cls-91" d="M1063.46,847.55a15.24,15.24,0,0,1-11.92,9.43c-8.31,1.35-14.26-15.09-10.07-19.82,1.41-1.58,4.75-2.86,7.79-2.78,1.79,0,2.54.55,5.48.57,2.71,0,3.36-.39,4.29,0,1.18.52,2.39,2.17,2.19,7.42,1.15-1.79,2.87-2.77,4.36-2.5a3,3,0,0,1,1.37.72C1068.64,842.26,1067.42,845.14,1063.46,847.55Z"/><path class="cls-92" d="M1059.12,833.88c-.32.36,1.27,1.43,1.9,3.31,1.23,3.65-1.6,9-5.67,10.33-2.4.78-3.47-.42-7.66.11a20.44,20.44,0,0,0-5.84,1.66c-.13,4.33,2.22,8.09,5.71,9.29,3.76,1.3,7.49-.84,9-1.74,1-.6,4.39-2.51,5.42-6s-1.42-5.12.25-7.79c.84-1.35,2.22-2.17,3.1-4.61a9.85,9.85,0,0,0,.42-1.6C1063.1,835.27,1059.58,833.37,1059.12,833.88Z"/><path class="cls-93" d="M1045.23,850.12a11.24,11.24,0,0,0,5-.41c.15,0,.32,0,.36,0,.15.25-1.47,1.88-3.41,1.82-1.37,0-2.68-.92-2.59-1.24C1044.64,850.18,1044.94,850.13,1045.23,850.12Z"/><path class="cls-75" d="M824.77,1215.81h.09a1.15,1.15,0,0,0,1.06-1.15V977.5a1.15,1.15,0,0,0-2.3,0v222.25L790,982.46a1.15,1.15,0,1,0-2.27.35l35.95,232A1.14,1.14,0,0,0,824.77,1215.81Z"/><polygon class="cls-94" points="1225.56 1007.36 831.25 977 517.9 1001.2 914.66 1034.59 1225.56 1007.36"/><polygon class="cls-75" points="914.66 1034.59 1225.56 1007.36 1225.56 1020.51 914.66 1047.74 517.9 1014.35 517.9 1001.2 914.66 1034.59"/><path class="cls-75" d="M917.34,1296.74a1.13,1.13,0,0,0,1.13-1l34.19-252.35a1.15,1.15,0,0,0-1-1.29,1.14,1.14,0,0,0-1.29,1l-31.89,235.47V1043.25a1.15,1.15,0,1,0-2.3,0v252.34a1.15,1.15,0,0,0,1.07,1.15Z"/><path class="cls-75" d="M522.24,1250.36a1.16,1.16,0,0,0,1.14-1l31.68-231.83a1.16,1.16,0,0,0-1-1.29,1.15,1.15,0,0,0-1.29,1l-29.39,215.1V1008.2a1.15,1.15,0,1,0-2.3,0v241a1.15,1.15,0,0,0,1.07,1.14Z"/><path class="cls-75" d="M1221.83,1250.36h.08a1.15,1.15,0,0,0,1.07-1.14v-228.7a1.15,1.15,0,0,0-2.3,0v213l-31.35-213.17a1.14,1.14,0,0,0-1.3-1,1.16,1.16,0,0,0-1,1.31l33.63,228.69A1.17,1.17,0,0,0,1221.83,1250.36Z"/><path class="cls-95" d="M1081.32,1002.88l-7.32-8.17c19-24.94,34.08-35.74,44.76-40.89,7.32-3.53,7-5.81,7.32-6.67,1.81-5.19-18.11-28-23.31-34.86-9.57-12.71-18.64-34.4-11.59-43.11,7.34-9.07,30.72-2.31,43.11,3.71a71.21,71.21,0,0,1,22,16.63c11.66,13.12,34.09,48.43,19.76,80.24C1162.69,999.32,1121.86,1016.48,1081.32,1002.88Z"/><polygon class="cls-96" points="1027.71 1002.66 1027.71 999.29 882.48 991.46 882.48 994.8 985.11 1004.9 1027.71 1002.66"/><polygon class="cls-97" points="1027.71 999.29 982.66 999.86 882.48 991.46 910.49 989.74 1027.71 999.29"/><path class="cls-98" d="M1008.45,987.65l-40.84-127.8c-.65-2-3-3.47-5.55-3.52l-178.84-3.28a9,9,0,0,0-5.1,2c-.92,1-2.19,1.14-1.84,2.39l33.34,112.46a5.51,5.51,0,0,0,4.87,3.53L1005.17,991Z"/><path class="cls-99" d="M1005.17,991,963.75,862.28c-.64-2-2.93-3.46-5.53-3.51l-178.46-3.4a5.25,5.25,0,0,0-3.87,1.48,3.56,3.56,0,0,0-.91,3.48L806.16,972a5.48,5.48,0,0,0,5,3.6Z"/><path class="cls-100" d="M1005.17,991,811.11,975.62a5.48,5.48,0,0,1-5-3.6l-9.41-33.72C855.89,959,926.16,956.71,995.84,962Z"/><path class="cls-101" d="M891.12,1012.47l7.36,2.54s38.7-7.26,40.38-8.45c.27-.19,1.2-2-.53-2.29-9.14-1.57-42.48-2.72-42.48-2.72l-3.05.17Z"/><path class="cls-102" d="M890.59,1010.21l7.36,2.54s38.69-7.29,40.38-8.48-43-5-43-5l-3.05.18Z"/><path class="cls-103" d="M858.59,921.33s-18.78,80.79-19.34,85.52c-.51,4.36,45.66,8.64,56.72,9a5.2,5.2,0,0,0,2.51-.86c3.06-.35-11.26-92.52-11.26-92.52l-1.06,0Z"/><path class="cls-104" d="M858.59,921.33s-21.36,81.61-21.91,86.34,54.34,8.32,59.14,8.16c3-.35-9.66-93.3-9.66-93.3Z"/><path class="cls-105" d="M1074,999.29s-12.18-5.58-19.22-5.08-16.93,6.9-18.65,10.69,23.8,3.38,23.8,3.38S1090.35,1007.09,1074,999.29Z"/><path class="cls-106" d="M1080.31,992.77c-6.79-8.64-23-3.36-23.92-3-3.88,1.31-9.07,4-8.71,5.69s5.58.79,14.19,2.25c12.62,2.13,18.21,6.81,20.44,4.43C1084,1000.27,1082.55,995.61,1080.31,992.77Z"/><path class="cls-107" d="M487,1105.43s23.49,10.68,23.88,12.38-15.11-.57-21.43-.32-11.53-1.63-11-4.3,2.79-9.42,2.79-9.42Z"/><path class="cls-108" d="M487.82,1096.77l-1.43,10.57s-3.72,1.33-6.21-.24l-1.07-11.6Z"/><path class="cls-109" d="M377.19,1097l-2.73,4.39a5.19,5.19,0,0,0-.63,4.1c1,3.65,2.86,10.76,3.7,12.61,1.13,2.52,16.33,4,16.33,4s1.36-1.9-1.8-4.21-5.18-2.66-6.3-6.06-1.85-13-1.85-13Z"/><path class="cls-110" d="M388.56,1085.87c-1,.8-5.88,15.62-5.88,15.62s-1.58,2-4.58-1-1.36-1.34-1.36-1.34l.56-14.58Z"/><path class="cls-111" d="M500.75,884.27c1.24,31.55,1.29,65.83-.53,102.45-2,41.24-6.15,79.35-11.33,113.9-1.92.06-3.94.07-6.06,0-1.42,0-2.8-.11-4.14-.2a260.86,260.86,0,0,1-8.7-27.84,266.58,266.58,0,0,1-6.08-32.59c-4.53-35.74.78-38.86-2.9-65.34-3.25-23.46-7.87-24.37-13.3-57.67-5.89-36.14-1.5-41.56.63-43.52C457.41,865.14,478.74,870.81,500.75,884.27Z"/><path class="cls-112" d="M448.34,873.47c8.65-8,28.45-3.13,49.36,9-24.05,26-26.67,42.85-23.79,53.79,3.26,12.37,13.17,15.93,13.13,29.45-.05,16.61-15,21-14.72,38.59.21,11.63,6.8,11.51,8.35,25.87,1.84,17-6.76,22.84-4,35.41,1.2,5.41,4.63,12.47,14.38,19.75-.7,5.17-1.43,10.28-2.18,15.29-1.92.06-3.94.07-6.06,0-1.42,0-2.8-.11-4.14-.2a260.86,260.86,0,0,1-8.7-27.84,266.58,266.58,0,0,1-6.08-32.59c-4.53-35.74.78-38.86-2.9-65.34-3.25-23.46-7.87-24.37-13.3-57.67C441.82,880.85,446.21,875.43,448.34,873.47Z"/><path class="cls-113" d="M485.85,883.74a708.14,708.14,0,0,0-97.13,207.88,12.7,12.7,0,0,1-6.93,1.07,13,13,0,0,1-7.86-4.24,204.19,204.19,0,0,1-1.8-50.31,173.63,173.63,0,0,1,7.08-37.81c5.72-18.45,9.65-19.49,17.11-39,7.74-20.25,5.87-25.31,13.28-50.65a335.52,335.52,0,0,1,16.56-44.45Z"/><path class="cls-114" d="M583.82,668s4-4.81,6.58-8.39,14.37-13.55,14.37-13.55.85,1.64-1.7,4.18-7.9,6.87-6.74,8.78,4.53,3.64,2,7.14-6.74,1-9,3.78-4.54,5.87-4.54,5.87Z"/><path class="cls-115" d="M583.25,663l8,10.09A150.15,150.15,0,0,1,563.56,732c-18,23-56.43,57.49-80.35,46.19C468.63,771.25,449,747.61,456,736.22c6.8-11,36.22-5.78,56.43-10.34C532.26,721.4,558,707,583.25,663Z"/><path class="cls-116" d="M398.57,750.45s-15.67,53.34-6,73.87,40.68-2,40.68-2Z"/><path class="cls-117" d="M401.47,750.51s-15.67,53.35-6,73.87,40.67-2,40.67-2Z"/><path class="cls-118" d="M447.31,730.72c20.13-.36,35.63.29,44.21,9.24,9.05,9.45-.53,19.69,1,43.93,2.27,37.11,25.68,46.67,26.63,84.29a95.75,95.75,0,0,1-3.84,29.17A101,101,0,0,1,488.58,920c-18.45,10.68-29,8.52-55.27,15.11-43,10.77-47.14,24.63-68.27,20.61-21.36-4-39.77-22.5-37.29-32.36,1.49-5.9,10.1-4,20.24-12.86,13.08-11.39,8.38-22.63,18.4-35,14.4-17.69,33.66-6.26,45.94-21.6,12.41-15.52,8.3-46.72-1.5-63.89-6.41-11.22-9-24.25-14.37-36a8,8,0,0,1-.68-4.53c1.08-7.55,13.77-11.37,23.38-14.17A114,114,0,0,1,447.31,730.72Z"/><path class="cls-119" d="M466.9,730.32,463,729s-1.15,5.35-13.92,5.74a19,19,0,0,1-11.57-4.22l-2.76,1.92S440.5,740,450,740A19,19,0,0,0,466.9,730.32Z"/><path class="cls-120" d="M463.67,713.05c1.08-5.85-2.2-10.88-2.92-12-3-4.53-3.74-5.12-5.05-5.84l-1.81-.9-.21-.06a20,20,0,0,0-5.64.17c-2.38.74-4.06,10.86-2,24.76-.1,1.09-.2,2.18-.29,3.28-5.41-.75-7-.24-7.26.49-.6,1.57,3.17,10.74,8.33,12.55,6.46,2.26,15.47-3.64,16-5.78.22-.86.18-.12-4.22-2.67-.41-1.28-1.67-4.74-2.07-6C457.43,720.47,462.88,717.36,463.67,713.05Z"/><path class="cls-121" d="M456.29,708.34c-1.19-1.36-2.93.18-2.77,2.07s2.17,3.68,3.91,3.14S457.9,710.17,456.29,708.34Z"/><path class="cls-122" d="M264.64,646.63c26.26-14.86,69.69,5.51,89.35,30.56,9.13,11.64,12.13,22.87,25.67,28.09,10.29,4,28.24,5.4,40.68-3.13,1.57-1.08,7.93-5.65,17-11.08,4-2.4,7.92-4.59,12.67-3.84,1.2.19,5.22.79,7,4.07,1.4,2.66.79,6.29-.62,8.6-.85,1.38-1.36,1.39-1.61,2.39-.7,2.81,3.93,5.63,3.2,6.92-.52.93-3-.27-3.86.83s1.56,3.3,1.69,7.12c1.81,2.29,2,6.6.88,11.91a49.32,49.32,0,0,1-7.35,17.86c-14.07,20.06-24.14,34.41-38.94,39.47-19.6,6.69-30.34-8.77-70-23.44-54.31-20.07-74.05-5.83-89.74-25C231,714.09,237.37,662.05,264.64,646.63Z"/><g class="cls-123"><path class="cls-124" d="M380.16,923.82c20.24-13.45,38.57,1.94,52.88-9.91,11.79-9.77,2.13-22.49,14.88-39.67,14-18.84,33.39-14,38-28.1,4.78-14.54-14.4-24.42-14.87-44.62-.25-10.31,4.38-23.73,22.87-39.84a92.44,92.44,0,0,0-1.46,22.21c2.27,37.11,25.68,46.67,26.63,84.29a95.75,95.75,0,0,1-3.84,29.17A101,101,0,0,1,488.58,920c-18.45,10.68-29,8.52-55.27,15.11-43,10.77-47.14,24.63-68.27,20.61a56,56,0,0,1-17.3-6.54A33.67,33.67,0,0,0,362,943.65C371.22,937.25,369.6,930.84,380.16,923.82Z"/></g></g></g></svg>