<svg xmlns="http://www.w3.org/2000/svg" xmlns:xlink="http://www.w3.org/1999/xlink" viewBox="0 0 3710 3710"><defs><style>.cls-1{fill:url(#linear-gradient);}.cls-2{fill:#91b3fa;}.cls-3{fill:#bdd0fb;}.cls-4{fill:url(#linear-gradient-2);}.cls-5{fill:url(#linear-gradient-3);}.cls-6{fill:url(#linear-gradient-4);}.cls-7{fill:url(#linear-gradient-5);}.cls-10,.cls-11,.cls-12,.cls-13,.cls-8{fill:#fff;}.cls-8{opacity:0.03;}.cls-9{fill:#7d97f4;}.cls-11{opacity:0.4;}.cls-12{opacity:0.59;}.cls-13{opacity:0.27;}.cls-14{fill:url(#linear-gradient-6);}.cls-15{fill:url(#linear-gradient-7);}.cls-16{fill:url(#linear-gradient-8);}.cls-17{fill:url(#linear-gradient-9);}.cls-18{fill:url(#linear-gradient-10);}.cls-19{fill:url(#linear-gradient-11);}.cls-20{fill:url(#linear-gradient-12);}.cls-21{fill:url(#linear-gradient-13);}.cls-22{fill:url(#linear-gradient-14);}.cls-23{fill:url(#linear-gradient-15);}.cls-24{fill:url(#linear-gradient-16);}.cls-25{fill:url(#linear-gradient-17);}.cls-26{fill:url(#linear-gradient-18);}.cls-27{fill:url(#linear-gradient-19);}.cls-28{fill:url(#linear-gradient-20);}.cls-29{fill:url(#linear-gradient-21);}.cls-30{fill:url(#linear-gradient-22);}.cls-31{fill:url(#linear-gradient-23);}.cls-32{fill:url(#linear-gradient-24);}.cls-33{fill:url(#linear-gradient-25);}.cls-34{fill:url(#linear-gradient-26);}.cls-35{fill:url(#linear-gradient-27);}</style><linearGradient id="linear-gradient" x1="3423.39" y1="3604.43" x2="1371.97" y2="1390.19" gradientUnits="userSpaceOnUse"><stop offset="0" stop-color="#dae3fe"/><stop offset="1" stop-color="#e9effd"/></linearGradient><linearGradient id="linear-gradient-2" x1="1901.8" y1="3185.11" x2="1872.16" y2="2598.15" gradientUnits="userSpaceOnUse"><stop offset="0" stop-color="#09005d"/><stop offset="1" stop-color="#1a0f91"/></linearGradient><linearGradient id="linear-gradient-3" x1="455.82" y1="1860.65" x2="3194.67" y2="1860.65" xlink:href="#linear-gradient-2"/><linearGradient id="linear-gradient-4" x1="3380.88" y1="1022.79" x2="-2560.28" y2="3993.38" gradientUnits="userSpaceOnUse"><stop offset="0" stop-color="#4f52ff"/><stop offset="1" stop-color="#4042e2"/></linearGradient><linearGradient id="linear-gradient-5" x1="1903.65" y1="2963.63" x2="1630.92" y2="3562.45" xlink:href="#linear-gradient-2"/><linearGradient id="linear-gradient-6" x1="822.77" y1="1628.2" x2="1146.72" y2="1300.87" gradientTransform="translate(66.44 -38.01) rotate(9.82)" gradientUnits="userSpaceOnUse"><stop offset="0" stop-color="#ff928e"/><stop offset="1" stop-color="#fe7062"/></linearGradient><linearGradient id="linear-gradient-7" x1="849.59" y1="1654.74" x2="1173.54" y2="1327.42" xlink:href="#linear-gradient-6"/><linearGradient id="linear-gradient-8" x1="1388.32" y1="3034.87" x2="1329.69" y2="3150.17" xlink:href="#linear-gradient-2"/><linearGradient id="linear-gradient-9" x1="1276.83" y1="3080.75" x2="1335.24" y2="3080.75" gradientUnits="userSpaceOnUse"><stop offset="0" stop-color="#febbba"/><stop offset="1" stop-color="#ff928e"/></linearGradient><linearGradient id="linear-gradient-10" x1="1196" y1="2926.21" x2="1444.21" y2="2578.34" xlink:href="#linear-gradient-2"/><linearGradient id="linear-gradient-11" x1="1354.29" y1="3151.45" x2="1151.04" y2="3417.24" xlink:href="#linear-gradient-2"/><linearGradient id="linear-gradient-12" x1="1252.58" y1="3209.01" x2="1409.63" y2="3209.01" xlink:href="#linear-gradient-4"/><linearGradient id="linear-gradient-13" x1="1234.59" y1="3134.65" x2="1289.41" y2="3134.65" xlink:href="#linear-gradient-9"/><linearGradient id="linear-gradient-14" x1="1106.54" y1="3099.56" x2="1120.22" y2="2634.43" xlink:href="#linear-gradient-2"/><linearGradient id="linear-gradient-15" x1="1422.02" y1="1602.54" x2="1347.77" y2="2311.21" gradientTransform="matrix(1, 0, 0, 1, 0, 0)" xlink:href="#linear-gradient-6"/><linearGradient id="linear-gradient-16" x1="1551.82" y1="2172.82" x2="1497.67" y2="2525.94" xlink:href="#linear-gradient-9"/><linearGradient id="linear-gradient-17" x1="1256" y1="1585.15" x2="1181.76" y2="2293.82" gradientTransform="matrix(1, 0, 0, 1, 0, 0)" xlink:href="#linear-gradient-6"/><linearGradient id="linear-gradient-18" x1="1219.64" y1="2220.34" x2="1346.51" y2="2220.34" xlink:href="#linear-gradient-9"/><linearGradient id="linear-gradient-19" x1="1063.42" y1="1564.97" x2="989.17" y2="2273.65" gradientTransform="matrix(1, 0, 0, 1, 0, 0)" xlink:href="#linear-gradient-6"/><linearGradient id="linear-gradient-20" x1="1001.59" y1="2181.97" x2="1025.21" y2="2296.7" gradientUnits="userSpaceOnUse"><stop offset="0" stop-color="#e1473d"/><stop offset="1" stop-color="#e9605a"/></linearGradient><linearGradient id="linear-gradient-21" x1="1133.12" y1="2504.84" x2="647.4" y2="3348.89" xlink:href="#linear-gradient-9"/><linearGradient id="linear-gradient-22" x1="11780.24" y1="2105.76" x2="11773.18" y2="2312.91" gradientTransform="translate(-8374.81 -4673.83) rotate(29.93)" xlink:href="#linear-gradient-9"/><linearGradient id="linear-gradient-23" x1="11750.49" y1="958.28" x2="11891.82" y2="1140.24" gradientTransform="translate(-8374.81 -4673.83) rotate(29.93)" xlink:href="#linear-gradient-2"/><linearGradient id="linear-gradient-24" x1="11729.12" y1="2104.03" x2="11722.06" y2="2311.19" gradientTransform="translate(-8374.81 -4673.83) rotate(29.93)" xlink:href="#linear-gradient-9"/><linearGradient id="linear-gradient-25" x1="12378.58" y1="3165.11" x2="12129.87" y2="3233.27" gradientTransform="matrix(-1, -0.05, -0.05, 1, 13717.1, -55.03)" xlink:href="#linear-gradient-2"/><linearGradient id="linear-gradient-26" x1="12142" y1="2334.11" x2="11965.53" y2="2520.62" gradientTransform="matrix(-1, 0, 0, 1, 13675.63, 0)" xlink:href="#linear-gradient-2"/><linearGradient id="linear-gradient-27" x1="12035.31" y1="2380.55" x2="11955.24" y2="2501.13" gradientTransform="matrix(-0.31, -0.95, -0.95, 0.31, 7666.46, 13110.82)" gradientUnits="userSpaceOnUse"><stop offset="0" stop-color="#53d8ff"/><stop offset="1" stop-color="#3840f7"/></linearGradient></defs><title>20945386 [Converti]</title><g id="Illustration"><path class="cls-1" d="M3137.51,2342.62c-281.88,658.86-1026,941.86-1609,893.61-159.18-13.17-479.45-39.68-729.53-276.17C318.78,2505.9,392.74,1556.59,852.48,997.68c59.21-72,469-554.2,1107.62-547.75,467.55,4.73,795.72,268.84,835.63,301.75,50.41,41.56,161.59,140.34,261.79,297C3293,1416.9,3313.66,1930.9,3137.51,2342.62Z"/><path class="cls-2" d="M2350.67,2398.4a4.18,4.18,0,0,1-3.33-6.7c3.38-4.47,6.89-8.93,10.43-13.26a4.17,4.17,0,1,1,6.46,5.29c-3.47,4.24-6.91,8.62-10.22,13A4.2,4.2,0,0,1,2350.67,2398.4Z"/><path class="cls-2" d="M3131.6,2577.24a4.17,4.17,0,0,1-4.09-3.36c-2.21-11.08-4.89-22.21-8-33.07a4.18,4.18,0,1,1,8-2.28c3.13,11.08,5.86,22.43,8.11,33.72a4.18,4.18,0,0,1-3.28,4.91A3.86,3.86,0,0,1,3131.6,2577.24Zm-26.61-86a4.19,4.19,0,0,1-3.85-2.53c-4.42-10.36-9.33-20.71-14.58-30.75a4.18,4.18,0,1,1,7.41-3.87c5.35,10.23,10.35,20.77,14.86,31.33a4.19,4.19,0,0,1-2.21,5.49A4.1,4.1,0,0,1,3105,2491.24Zm-43.63-78.76a4.16,4.16,0,0,1-3.43-1.79c-6.46-9.3-13.35-18.44-20.48-27.17a4.18,4.18,0,0,1,6.47-5.29c7.27,8.9,14.29,18.21,20.87,27.69a4.16,4.16,0,0,1-1.05,5.81A4.09,4.09,0,0,1,3061.36,2412.48ZM2399,2344.43a4.18,4.18,0,0,1-2.88-7.22c8.36-7.89,17.15-15.57,26.12-22.81a4.18,4.18,0,0,1,5.24,6.51c-8.8,7.1-17.42,14.63-25.61,22.38A4.18,4.18,0,0,1,2399,2344.43Zm603.72-.25a4.21,4.21,0,0,1-2.88-1.14c-8.18-7.76-16.79-15.3-25.57-22.39a4.18,4.18,0,1,1,5.25-6.5c8.95,7.23,17.72,14.91,26.07,22.82a4.18,4.18,0,0,1-2.87,7.21Zm-532.3-54.58a4.18,4.18,0,0,1-2.2-7.74c9.82-6.06,20-11.8,30.18-17.06a4.18,4.18,0,1,1,3.83,7.42c-10,5.16-20,10.8-29.62,16.75A4.08,4.08,0,0,1,2470.43,2289.6Zm460.93-.22a4.16,4.16,0,0,1-2.19-.62c-9.58-5.9-19.55-11.51-29.64-16.68a4.17,4.17,0,1,1,3.81-7.43c10.28,5.25,20.44,11,30.21,17a4.18,4.18,0,0,1-2.19,7.74Zm-379.91-39.05a4.18,4.18,0,0,1-1.42-8.11c10.82-3.93,21.94-7.48,33-10.54a4.18,4.18,0,0,1,2.23,8.06c-10.88,3-21.79,6.48-32.41,10.34A4.23,4.23,0,0,1,2551.45,2250.33Zm298.82,0a3.94,3.94,0,0,1-1.42-.25c-10.62-3.82-21.53-7.29-32.42-10.29a4.17,4.17,0,1,1,2.21-8.05c11.11,3.05,22.22,6.58,33,10.49a4.17,4.17,0,0,1-1.41,8.1Zm-87.34-21.75c-.2,0-.4,0-.6,0-11.17-1.61-22.55-2.78-33.84-3.51a4.18,4.18,0,0,1-3.91-4.44,4.25,4.25,0,0,1,4.44-3.9c11.51.74,23.11,1.94,34.49,3.57a4.18,4.18,0,0,1-.58,8.32Zm-124.14-.07a4.18,4.18,0,0,1-.58-8.32c11.4-1.62,23-2.81,34.49-3.54a4.23,4.23,0,0,1,4.43,3.91,4.17,4.17,0,0,1-3.9,4.43c-11.27.71-22.66,1.88-33.85,3.48A3.9,3.9,0,0,1,2638.79,2228.5Z"/><path class="cls-2" d="M3139.83,2649.41a4.18,4.18,0,0,1-4.18-4c-.16-5.48-.44-11-.81-16.52a4.18,4.18,0,0,1,3.88-4.46,4.25,4.25,0,0,1,4.45,3.89c.39,5.58.67,11.25.84,16.83a4.19,4.19,0,0,1-4.05,4.31Z"/><path class="cls-2" d="M3016.24,2968.82a4.17,4.17,0,0,1-3-7.08c3.85-4,7.65-8,11.3-12.1a4.18,4.18,0,1,1,6.21,5.59c-3.72,4.13-7.59,8.28-11.52,12.32A4.15,4.15,0,0,1,3016.24,2968.82Z"/><path class="cls-2" d="M2701.39,3102.24l-3.78,0a4.18,4.18,0,0,1,0-8.36h0l3.7,0c9.87,0,19.88-.34,29.76-1a4.24,4.24,0,0,1,4.45,3.89,4.17,4.17,0,0,1-3.88,4.45C2721.65,3101.89,2711.45,3102.24,2701.39,3102.24Zm-58.49-3.91-.56,0c-11.22-1.51-22.52-3.47-33.61-5.83a4.18,4.18,0,1,1,1.74-8.17c10.88,2.31,22,4.24,33,5.71a4.18,4.18,0,0,1-.55,8.32Zm142.95-4.31a4.18,4.18,0,0,1-.8-8.28c10.92-2.15,21.88-4.75,32.57-7.73a4.18,4.18,0,1,1,2.25,8c-10.9,3-22.07,5.69-33.21,7.88A3.71,3.71,0,0,1,2785.85,3094Zm-229.13-16.2a4.11,4.11,0,0,1-1.37-.23c-10.72-3.72-21.41-7.9-31.77-12.41a4.18,4.18,0,0,1,3.34-7.67c10.16,4.43,20.65,8.54,31.17,12.19a4.17,4.17,0,0,1-1.37,8.12Zm313.88-9.65a4.18,4.18,0,0,1-1.62-8c10.2-4.29,20.41-9,30.34-14.15a4.18,4.18,0,1,1,3.82,7.43c-10.12,5.2-20.52,10-30.93,14.42A4.14,4.14,0,0,1,2870.6,3068.17Zm-394.21-27.67a4.16,4.16,0,0,1-2.13-.59c-9.72-5.78-19.35-12-28.62-18.54a4.18,4.18,0,0,1,4.81-6.83c9.09,6.4,18.54,12.52,28.08,18.19a4.18,4.18,0,0,1-2.14,7.77Zm472-14.69a4.18,4.18,0,0,1-2.36-7.63c9.19-6.26,18.25-13,26.93-19.89a4.18,4.18,0,0,1,5.22,6.53c-8.84,7.06-18.08,13.88-27.44,20.27A4.16,4.16,0,0,1,2948.42,3025.81Zm-543.18-38a4.16,4.16,0,0,1-2.81-1.09c-8.35-7.61-16.52-15.67-24.29-23.95a4.18,4.18,0,0,1,6.09-5.72c7.63,8.12,15.65,16,23.83,23.5a4.18,4.18,0,0,1-2.82,7.26Zm-59-66a4.15,4.15,0,0,1-3.38-1.73c-5.24-7.2-10.35-14.67-15.17-22.22q-2-3-3.85-6.11a4.18,4.18,0,0,1,7.12-4.39q1.85,3,3.77,6c4.73,7.4,9.74,14.74,14.88,21.81a4.18,4.18,0,0,1-3.37,6.64Zm-44.73-76.48a4.18,4.18,0,0,1-3.8-2.44c-4.71-10.3-9.08-20.92-13-31.56a4.18,4.18,0,0,1,7.85-2.88c3.83,10.44,8.11,20.85,12.74,31a4.18,4.18,0,0,1-3.8,5.92ZM2273,2761.39a4.18,4.18,0,0,1-4.07-3.24c-2.53-11-4.66-22.32-6.33-33.54a4.18,4.18,0,1,1,8.26-1.23c1.64,11,3.73,22.08,6.22,32.9a4.17,4.17,0,0,1-3.14,5A3.83,3.83,0,0,1,2273,2761.39Z"/><path class="cls-2" d="M2262,2673.31a4.18,4.18,0,0,1-4.17-4.08c-.13-5.57-.15-11.24-.06-16.87a4.24,4.24,0,0,1,4.24-4.11,4.19,4.19,0,0,1,4.12,4.24c-.09,5.52-.07,11.09.05,16.55a4.18,4.18,0,0,1-4.08,4.27Z"/><path class="cls-2" d="M2367.1,2611.49a5.25,5.25,0,0,0,2.21,5.7l53.64,35.16a279,279,0,0,0,13,89.56l-41.37,49a5.26,5.26,0,0,0-.5,6.09l39.36,66.09a5.27,5.27,0,0,0,5.6,2.46l62.75-13.05a279.22,279.22,0,0,0,72.56,54.09l5.37,63.91a5.26,5.26,0,0,0,4,4.66l74.56,18.9a5.27,5.27,0,0,0,5.7-2.22l35.16-53.63a279.66,279.66,0,0,0,89.57-13l48.95,41.36a5.28,5.28,0,0,0,6.1.5l66.09-39.36a5.27,5.27,0,0,0,2.46-5.6l-13.06-62.74a279.48,279.48,0,0,0,54.1-72.57l63.9-5.37a5.28,5.28,0,0,0,4.67-3.95l18.89-74.57a5.25,5.25,0,0,0-2.22-5.7L2984.92,2662a279,279,0,0,0-13-89.56l41.37-49a5.26,5.26,0,0,0,.5-6.09l-39.37-66.09a5.25,5.25,0,0,0-5.59-2.46l-62.75,13.05a279,279,0,0,0-72.56-54.09l-5.37-63.9a5.28,5.28,0,0,0-4-4.67l-74.56-18.9a5.27,5.27,0,0,0-5.7,2.22l-35.16,53.63a279.62,279.62,0,0,0-89.57,13l-48.95-41.36a5.28,5.28,0,0,0-6.1-.5l-66.09,39.36a5.27,5.27,0,0,0-2.46,5.6l13.05,62.74a279.66,279.66,0,0,0-54.09,72.57l-63.9,5.37a5.28,5.28,0,0,0-4.67,4Z"/><path class="cls-3" d="M2703.94,2731.75h-.05a74.61,74.61,0,1,1,.05,0Zm0-136.61a62,62,0,0,0,0,124.08h.06a62,62,0,0,0,0-124.08Z"/><path class="cls-3" d="M2705.87,2849.29a192.11,192.11,0,0,1-182.26-130.76l11.88-4a180.45,180.45,0,0,0,16,34.69c39.76,66.75,116.37,98.33,188.56,84.24l.41-.08.41-.08a179.23,179.23,0,0,0,118.79-267.62c-50.61-85-160.89-112.92-245.86-62.31a179.16,179.16,0,0,0-66.11,69l-11-5.94a191.65,191.65,0,0,1,70.73-73.79c90.9-54.13,208.9-24.23,263,66.67a190.61,190.61,0,0,1,27.1,97.82,192.75,192.75,0,0,1-6,47.51,191.78,191.78,0,0,1-185.67,144.7Z"/><path class="cls-2" d="M665.21,668.33a4.86,4.86,0,0,1-3-1,4.93,4.93,0,0,1-1-6.91c4-5.27,8.13-10.54,12.31-15.64a4.93,4.93,0,1,1,7.63,6.24c-4.09,5-8.15,10.18-12.07,15.36A4.91,4.91,0,0,1,665.21,668.33Z"/><path class="cls-2" d="M1587,879.44a4.94,4.94,0,0,1-4.83-4c-2.61-13.08-5.77-26.22-9.39-39a4.93,4.93,0,0,1,9.49-2.69c3.7,13.08,6.92,26.47,9.58,39.8a4.94,4.94,0,0,1-3.88,5.8A4.63,4.63,0,0,1,1587,879.44Zm-31.41-101.52a4.93,4.93,0,0,1-4.54-3c-5.22-12.23-11-24.44-17.21-36.29a4.93,4.93,0,0,1,8.74-4.57c6.32,12.08,12.22,24.52,17.54,37a4.92,4.92,0,0,1-4.53,6.86Zm-51.49-93a4.94,4.94,0,0,1-4.06-2.12c-7.62-11-15.75-21.77-24.16-32.07a4.93,4.93,0,1,1,7.63-6.24c8.58,10.5,16.87,21.5,24.63,32.68a4.93,4.93,0,0,1-4,7.75ZM722.26,604.63a4.93,4.93,0,0,1-3.39-8.51c9.86-9.32,20.23-18.38,30.82-26.93a4.93,4.93,0,1,1,6.19,7.68c-10.38,8.38-20.56,17.27-30.23,26.41A5,5,0,0,1,722.26,604.63Zm712.6-.29a4.92,4.92,0,0,1-3.39-1.35c-9.67-9.16-19.83-18-30.19-26.42a4.93,4.93,0,0,1,6.19-7.68c10.57,8.54,20.93,17.6,30.78,26.94a4.93,4.93,0,0,1-3.39,8.51Zm-628.3-64.43a4.93,4.93,0,0,1-2.59-9.13c11.59-7.16,23.58-13.93,35.62-20.14a4.93,4.93,0,1,1,4.52,8.76c-11.82,6.1-23.58,12.75-35,19.77A4.82,4.82,0,0,1,806.56,539.91Zm544.05-.26a4.88,4.88,0,0,1-2.58-.73c-11.31-7-23.08-13.59-35-19.68a4.93,4.93,0,1,1,4.5-8.78c12.13,6.21,24.13,13,35.66,20.06a4.93,4.93,0,0,1-2.6,9.13ZM902.2,493.57a4.93,4.93,0,0,1-1.69-9.57c12.79-4.64,25.9-8.83,39-12.45a4.93,4.93,0,1,1,2.62,9.51c-12.84,3.55-25.71,7.66-38.25,12.21A5,5,0,0,1,902.2,493.57Zm352.7,0a4.91,4.91,0,0,1-1.67-.3c-12.54-4.52-25.41-8.6-38.27-12.14a4.93,4.93,0,1,1,2.61-9.51c13.11,3.6,26.23,7.77,39,12.38a4.93,4.93,0,0,1-1.68,9.57Zm-103.09-25.68a5.78,5.78,0,0,1-.71-.05c-13.17-1.9-26.61-3.28-39.94-4.14a4.94,4.94,0,0,1-4.61-5.24,5,5,0,0,1,5.24-4.6c13.58.87,27.28,2.29,40.71,4.21a4.94,4.94,0,0,1-.69,9.82Zm-146.53-.09a4.93,4.93,0,0,1-.68-9.81c13.45-1.92,27.15-3.32,40.71-4.18a5,5,0,0,1,5.24,4.62,5,5,0,0,1-4.62,5.23c-13.3.84-26.74,2.21-39.94,4.1A5.63,5.63,0,0,1,1005.28,467.79Z"/><path class="cls-2" d="M1596.68,964.61a4.92,4.92,0,0,1-4.92-4.78c-.2-6.47-.53-13-1-19.5a4.93,4.93,0,0,1,4.58-5.26,5,5,0,0,1,5.26,4.59c.45,6.59.79,13.28,1,19.87a4.94,4.94,0,0,1-4.78,5.08Z"/><path class="cls-2" d="M1450.81,1341.63a4.92,4.92,0,0,1-3.53-8.36c4.54-4.68,9-9.49,13.33-14.28a4.94,4.94,0,0,1,7.34,6.6c-4.39,4.88-9,9.77-13.6,14.54A4.91,4.91,0,0,1,1450.81,1341.63Z"/><path class="cls-2" d="M1079.18,1499.11l-4.47,0a4.93,4.93,0,0,1,0-9.86h4.42c11.65,0,23.46-.4,35.12-1.2a5,5,0,0,1,5.26,4.59,4.93,4.93,0,0,1-4.58,5.25C1103.09,1498.69,1091.05,1499.11,1079.18,1499.11Zm-69-4.61c-.22,0-.44,0-.66,0-13.24-1.78-26.59-4.09-39.68-6.88a4.93,4.93,0,0,1,2.06-9.65c12.84,2.74,25.94,5,38.93,6.75a4.93,4.93,0,0,1-.65,9.82Zm168.73-5.09a4.93,4.93,0,0,1-.94-9.77c12.88-2.54,25.82-5.61,38.44-9.13a4.93,4.93,0,0,1,2.65,9.5c-12.87,3.59-26,6.72-39.19,9.31A5.2,5.2,0,0,1,1178.87,1489.41Zm-270.45-19.12a4.79,4.79,0,0,1-1.62-.27c-12.66-4.39-25.27-9.33-37.5-14.66a4.93,4.93,0,1,1,3.94-9c12,5.23,24.38,10.07,36.79,14.38a4.93,4.93,0,0,1-1.61,9.59Zm370.48-11.4a4.93,4.93,0,0,1-1.91-9.48c12-5.05,24.09-10.67,35.81-16.69a4.93,4.93,0,1,1,4.51,8.77c-11.94,6.14-24.23,11.86-36.5,17A5,5,0,0,1,1278.9,1458.89Zm-465.3-32.66a4.88,4.88,0,0,1-2.51-.69c-11.48-6.82-22.85-14.18-33.79-21.88a4.93,4.93,0,0,1,5.68-8.07c10.73,7.56,21.89,14.78,33.15,21.47a4.93,4.93,0,0,1-2.53,9.17Zm557.16-17.33a4.93,4.93,0,0,1-2.78-9c10.84-7.39,21.53-15.29,31.78-23.48a4.93,4.93,0,0,1,6.16,7.71c-10.44,8.34-21.34,16.39-32.39,23.92A4.89,4.89,0,0,1,1370.76,1408.9ZM729.62,1364a4.89,4.89,0,0,1-3.32-1.29c-9.85-9-19.5-18.5-28.67-28.27a4.93,4.93,0,0,1,7.19-6.75c9,9.59,18.47,18.92,28.13,27.74a4.93,4.93,0,0,1-3.33,8.57Zm-69.69-77.92a5,5,0,0,1-4-2c-6.18-8.51-12.21-17.33-17.9-26.23-1.53-2.4-3-4.81-4.53-7.22a4.93,4.93,0,0,1,8.39-5.18q2.19,3.55,4.45,7.08c5.59,8.74,11.5,17.4,17.57,25.75a4.93,4.93,0,0,1-1.09,6.88A4.88,4.88,0,0,1,659.93,1286.08Zm-52.8-90.27a4.94,4.94,0,0,1-4.49-2.88c-5.56-12.16-10.71-24.7-15.32-37.25a4.93,4.93,0,0,1,9.26-3.4c4.52,12.32,9.58,24.61,15,36.54a4.94,4.94,0,0,1-4.49,7Zm-33.63-99a5,5,0,0,1-4.8-3.83c-3-13-5.5-26.34-7.48-39.58a4.93,4.93,0,0,1,9.76-1.45c1.94,13,4.41,26,7.34,38.83a4.93,4.93,0,0,1-3.71,5.91A5.24,5.24,0,0,1,573.5,1096.79Z"/><path class="cls-2" d="M560.58,992.83a4.94,4.94,0,0,1-4.93-4.82c-.14-6.57-.17-13.27-.06-19.91a5,5,0,0,1,5-4.85,4.93,4.93,0,0,1,4.85,5c-.1,6.51-.08,13.08.06,19.53a4.93,4.93,0,0,1-4.82,5Z"/><path class="cls-2" d="M684.59,919.85a6.21,6.21,0,0,0,2.62,6.73l63.31,41.5a329.34,329.34,0,0,0,15.34,105.72L717,1131.58a6.23,6.23,0,0,0-.59,7.2l46.46,78a6.22,6.22,0,0,0,6.61,2.9l74.06-15.4a329.65,329.65,0,0,0,85.65,63.84l6.33,75.43a6.24,6.24,0,0,0,4.67,5.51l88,22.3a6.21,6.21,0,0,0,6.72-2.62l41.5-63.3a329.63,329.63,0,0,0,105.72-15.35l57.79,48.83a6.21,6.21,0,0,0,7.19.59l78-46.46a6.22,6.22,0,0,0,2.91-6.61l-15.41-74.06a329.82,329.82,0,0,0,63.84-85.65l75.43-6.34a6.21,6.21,0,0,0,5.51-4.67l22.31-88a6.24,6.24,0,0,0-2.62-6.73l-63.31-41.5a330,330,0,0,0-15.34-105.72L1447.32,816a6.23,6.23,0,0,0,.59-7.2l-46.46-78a6.22,6.22,0,0,0-6.61-2.91l-74.06,15.41a329.63,329.63,0,0,0-85.65-63.85L1228.79,604a6.21,6.21,0,0,0-4.67-5.5l-88-22.31a6.23,6.23,0,0,0-6.73,2.62l-41.5,63.3a329.71,329.71,0,0,0-105.72,15.35l-57.78-48.82a6.21,6.21,0,0,0-7.19-.6l-78,46.46a6.23,6.23,0,0,0-2.91,6.61l15.41,74.06a330,330,0,0,0-63.85,85.65l-75.42,6.34a6.23,6.23,0,0,0-5.51,4.67Z"/><path class="cls-3" d="M1082.18,1061.81h-.08a88.09,88.09,0,1,1,.08,0Zm0-161.25a73.23,73.23,0,0,0-.07,146.45h.05a73.23,73.23,0,0,0,.09-146.45Z"/><path class="cls-3" d="M1084.46,1200.54c-77.26,0-152.63-39.48-195-110.54a227.63,227.63,0,0,1-20.16-43.8l14-4.72a213.24,213.24,0,0,0,18.85,41c46.93,78.78,137.35,116,222.57,99.42.16,0,.32-.06.47-.09l.49-.09a211.8,211.8,0,0,0,163.54-155.56,213.32,213.32,0,0,0,6.58-52.42A210.36,210.36,0,0,0,1266,865.78C1206.22,765.5,1076,732.5,975.76,792.23a211.37,211.37,0,0,0-78,81.4l-13-7a226.19,226.19,0,0,1,83.49-87.09c107.29-63.89,246.57-28.61,310.48,78.69a225.18,225.18,0,0,1,32,115.45,228.06,228.06,0,0,1-7,56.08,226.33,226.33,0,0,1-219.16,170.8Z"/><polygon class="cls-4" points="1654.07 2518.75 1604.83 2960.33 2176.07 2960.33 2101.66 2518.75 1654.07 2518.75"/><path class="cls-5" d="M455.82,1212V2426.71a184.28,184.28,0,0,0,179.53,184.23c443.69,11.44,1995.49,39.18,2417.85,32.95a135.59,135.59,0,0,0,133.49-131.73c8.15-282.2,21.37-960.8-27.58-1275.85A139.54,139.54,0,0,0,3025.7,1118.2c-371.76-11.89-2016.77-49.65-2438.93-40.17A133.94,133.94,0,0,0,455.82,1212Z"/><path class="cls-6" d="M532,1206.05v1154.1A106.77,106.77,0,0,0,637.22,2466.9L2992.43,2496a103.92,103.92,0,0,0,105.47-103.51l3.94-1143.79a76,76,0,0,0-74.15-76.25l-2411.3-48.72A82.35,82.35,0,0,0,532,1206.05Z"/><path class="cls-2" d="M3115.63,2543.41h-.06L532,2499.39a3.38,3.38,0,0,1-3.32-3.44,3.49,3.49,0,0,1,3.43-3.31l2583.58,44a3.38,3.38,0,0,1,0,6.75Z"/><path class="cls-2" d="M1849.32,2597.17a30.26,30.26,0,1,1,30.26-30.25A30.28,30.28,0,0,1,1849.32,2597.17Zm0-53.76a23.51,23.51,0,1,0,23.51,23.51A23.53,23.53,0,0,0,1849.32,2543.41Z"/><path class="cls-7" d="M2299.11,3050.68h-836c-22.71,0-39.77-16.17-35.38-33.54l10.73-42.43c3.23-12.76,17.26-22.12,33.94-22.64l806-25.15c17.42-.55,32.84,8.7,36.63,22l19.34,67.58C2339.33,3034,2322.19,3050.68,2299.11,3050.68Z"/><path class="cls-2" d="M1913.13,2964.21a3.38,3.38,0,0,1-.05-6.75l34.53-.51h.05a3.38,3.38,0,0,1,0,6.75l-34.53.51Z"/><path class="cls-2" d="M1458.65,3027.94a3.29,3.29,0,0,1-.54-.05,3.37,3.37,0,0,1-2.8-3.86l4.93-30.86a35.08,35.08,0,0,1,34.17-29.59l366.32-5.35a3.29,3.29,0,0,1,3.42,3.32,3.37,3.37,0,0,1-3.32,3.42l-366.32,5.36a28.34,28.34,0,0,0-27.61,23.91l-4.93,30.85A3.37,3.37,0,0,1,1458.65,3027.94Z"/><path class="cls-8" d="M2927.89,1225.69,677.12,1198c-35.47-.43-64.31,28.59-64.82,64.87L597.84,2311c-.5,35.82,27.16,65.47,62.16,66.71l2263.54,80.09c31.48,1.12,61-10.9,83.65-33.3s34.39-53.25,34.39-85.49V1344.54C3041.58,1279.46,2991.5,1226.48,2927.89,1225.69Z"/><path class="cls-9" d="M659.71,1168.69H1810.34c31.37,0,56.65,31.74,56.08,70.44l-16.19,1101.12c-.76,51.83-35.32,93.16-77.33,92.51L658.47,2415.51c-30.71-.48-55.4-31.34-55.38-69.22l.53-1108.46C603.64,1199.64,628.75,1168.69,659.71,1168.69Z"/><path class="cls-2" d="M677.91,1201.16H1782.78c30.13,0,54.4,30.43,53.85,67.51L1821.09,2324c-.73,49.67-33.91,89.28-74.26,88.66L676.72,2396.14c-29.49-.46-53.2-30-53.18-66.34l.51-1062.37C624.07,1230.82,648.18,1201.16,677.91,1201.16Z"/><path class="cls-10" d="M1438.59,1328.35h-.34l-729.66-8.13c-19.87-.23-36.05-15.94-36.05-35v-28.61a27.25,27.25,0,0,1,8.6-19.88,29.54,29.54,0,0,1,20.49-8.12h741.9a28.08,28.08,0,0,1,20.59,8.89,25.7,25.7,0,0,1,6.91,19.62l-3.51,45.41C1466.4,1317.05,1453.72,1328.35,1438.59,1328.35Zm-737-89.65a19.42,19.42,0,0,0-13.5,5.31,17.26,17.26,0,0,0-5.47,12.56v28.61c0,13.57,11.69,24.74,26,24.9l729.66,8.14h.23c9.87,0,18.12-7.21,18.84-16.51l3.51-45.4a15.71,15.71,0,0,0-4.25-12,17.94,17.94,0,0,0-13.16-5.63Z"/><path class="cls-11" d="M1429.68,1313l-707.82-6c-16.69-.14-30.12-9.92-30.12-22v-20.95c0-9.28,10.43-16.8,23.31-16.8h719.71c12.69,0,22.71,7.77,21.77,16.89l-3.4,33.26C1452.23,1306.31,1442,1313.11,1429.68,1313Z"/><path class="cls-12" d="M1672,1435.82H677.87c-6.59,0-11.94-5.89-11.94-13.16v-35.22c0-7.31,5.41-13.22,12.05-13.16l994.17,9.69c6.55.06,11.84,5.94,11.84,13.16v25.53C1684,1429.93,1678.64,1435.82,1672,1435.82Z"/><path class="cls-11" d="M1750.73,1675.62l-1047-14a34,34,0,0,1-33.58-34V1483.88A34.41,34.41,0,0,1,705,1449.47l1043.92,11.17a37.57,37.57,0,0,1,37.17,37.56v142.57A34.85,34.85,0,0,1,1750.73,1675.62Z"/><path class="cls-12" d="M1581.68,1782.65H676.39c-6,0-10.88-5.89-10.88-13.16v-35.22c0-7.32,4.93-13.23,11-13.16l905.3,9.69c6,.06,10.78,5.93,10.78,13.16v25.53C1592.56,1776.76,1587.69,1782.65,1581.68,1782.65Z"/><path class="cls-11" d="M1750.31,2043.93l-1047-15.29c-18.61-.27-33.57-16.87-33.57-37.26V1834c0-21,15.63-37.89,34.77-37.67l1043.92,12.22c20.59.25,37.17,18.59,37.17,41.14v156.11C1785.63,2027.05,1769.74,2044.22,1750.31,2043.93Z"/><path class="cls-12" d="M1777.13,2156.87H680.81a13.17,13.17,0,0,1-13.17-13.16v-35.22a13.17,13.17,0,0,1,13.29-13.16L1777.24,2105a13.17,13.17,0,0,1,13.06,13.16v25.53A13.17,13.17,0,0,1,1777.13,2156.87Z"/><path class="cls-11" d="M1752.44,2385.71l-1047-13.29c-18.62-.24-33.58-14.66-33.58-32.38V2203.26c0-18.22,15.63-32.93,34.78-32.74l1043.92,10.63c20.59.2,37.16,16.15,37.16,35.74v135.66C1787.75,2371,1771.86,2386,1752.44,2385.71Z"/><path class="cls-9" d="M2053.34,870.86H3181c30.75,0,55.52,31.38,55,69.63L3220.09,2029c-.74,51.23-34.6,92.09-103.91,91.45l-1049.8-16.39c-36.47-.57-67-29.15-68.46-65.6-.05-1.16-.07-2.32-.07-3.49l.52-1095.8C1998.39,901.46,2023,870.86,2053.34,870.86Z"/><path class="cls-3" d="M2078.21,900.34H3161c29.52,0,53.31,29.82,52.77,66.16l-15.23,1034.27c-.72,48.68-33.24,87.51-72.78,86.89L2077,2071.46c-28.9-.45-52.13-29.43-52.11-65l.5-1041.16C2025.45,929.41,2049.07,900.34,2078.21,900.34Z"/><path class="cls-9" d="M3107.85,1109.49H2116.41a22,22,0,0,1-22-22V1034A23.06,23.06,0,0,1,2117.5,1011H3104a22.5,22.5,0,0,1,22.5,22.5v57.42A18.6,18.6,0,0,1,3107.85,1109.49Z"/><path class="cls-13" d="M3042.9,1079.51H2664.66c-6.24,2.35-11.29-3.25-11.29-10.15v-18.53c0-6.91,5.05-12.51,11.29-12.51H3042.9c6.23,0,11.29,5.6,11.29,12.51v18.53C3054.19,1076.26,3049.13,1081.86,3042.9,1079.51Z"/><path class="cls-9" d="M2836.18,1599.11a47,47,0,0,1-46.94,47l-658.72,1.35c-17.21,0-31.17-14.27-31.17-31.88V1265.67c0-17.8,14.25-32.16,31.66-31.88l674.48,10.73c17,.27,30.69,14.46,30.69,31.88Z"/><path class="cls-2" d="M2751.85,2029.9,2470,2027.55a17.24,17.24,0,0,1-17.1-17.38l2.35-282.28a17.23,17.23,0,0,1,16.94-17.1l278.31,5.28a21.5,21.5,0,0,1,21.1,21.68l-2.37,275A17.24,17.24,0,0,1,2751.85,2029.9Z"/><path class="cls-2" d="M2393.38,2029.9l-281.84-2.35a17.24,17.24,0,0,1-17.1-17.38l2.34-282.28a17.24,17.24,0,0,1,16.95-17.1l278.31,5.28a21.5,21.5,0,0,1,21.1,21.68l-2.37,275A17.25,17.25,0,0,1,2393.38,2029.9Z"/><path class="cls-2" d="M3106.69,2036.57l-281.84-2.34a17.24,17.24,0,0,1-17.1-17.39l2.35-282.28a17.24,17.24,0,0,1,16.94-17.1l278.31,5.28a21.51,21.51,0,0,1,21.1,21.69l-2.37,275A17.24,17.24,0,0,1,3106.69,2036.57Z"/><path class="cls-2" d="M3102.76,1663.24H2899a23.77,23.77,0,0,1-23.69-23.85V1267.06c0-11.07,8.6-20.06,19.25-20.12l209.25-1.17a23.78,23.78,0,0,1,22.66,23.83v369.79A23.77,23.77,0,0,1,3102.76,1663.24Z"/><path class="cls-10" d="M2331.11,989.73a33.14,33.14,0,1,1,33.13-33.14A33.18,33.18,0,0,1,2331.11,989.73Zm0-59.53a26.39,26.39,0,1,0,26.38,26.39A26.42,26.42,0,0,0,2331.11,930.2Z"/><path class="cls-10" d="M2228.09,992.14A33.14,33.14,0,1,1,2261.23,959,33.17,33.17,0,0,1,2228.09,992.14Zm0-59.53A26.39,26.39,0,1,0,2254.48,959,26.41,26.41,0,0,0,2228.09,932.61Z"/><path class="cls-10" d="M2129.11,992.14A33.14,33.14,0,1,1,2162.25,959,33.18,33.18,0,0,1,2129.11,992.14Zm0-59.53A26.39,26.39,0,1,0,2155.5,959,26.42,26.42,0,0,0,2129.11,932.61Z"/><path class="cls-10" d="M2483.08,1509.93a79.4,79.4,0,1,1,79.37-79.44v.08A79.46,79.46,0,0,1,2483.08,1509.93Zm0-154.12a74.72,74.72,0,1,0,74.68,74.76v-.08A74.76,74.76,0,0,0,2483.08,1355.81Z"/><path class="cls-10" d="M2461.15,1470.41a4.11,4.11,0,0,1-4.11-4l-1.87-70.1a6.62,6.62,0,0,1,9.42-6.17l69.25,32.38a6.62,6.62,0,0,1,.31,11.84L2473,1467a4.11,4.11,0,0,1-3.87-7.26l58.3-31.08-64-29.93,1.81,67.51a4.11,4.11,0,0,1-4,4.22Z"/><path class="cls-14" d="M1582.37,915.55c107.29-163.79,327.26-223.47,463.39-198.63l27.31,63.71c-138.84,22.25-236.46,47.32-309.3,167.89a18.57,18.57,0,0,1-19,8.73l-155.82-26.72A9.79,9.79,0,0,1,1582.37,915.55Z"/><path class="cls-15" d="M2012.92,625.2l187.24,83.11a17,17,0,0,1,1.25,30.4l-164.07,89.62a8.58,8.58,0,0,1-12-6.71l-25.06-189.49A7.73,7.73,0,0,1,2012.92,625.2Z"/><rect class="cls-2" x="1105.88" y="2808.22" width="33.21" height="359.18" transform="translate(2244.98 5975.62) rotate(180)"/><path class="cls-2" d="M977,3152.71h290.9a0,0,0,0,1,0,0v19.57a2,2,0,0,1-2,2h-287a1.9,1.9,0,0,1-1.9-1.9v-19.72A0,0,0,0,1,977,3152.71Z" transform="translate(2244.98 6327.03) rotate(180)"/><rect class="cls-2" x="922.03" y="2722.69" width="388.7" height="110.24" rx="37.96"/><path class="cls-16" d="M1307.48,3103.77s94.84,68.36,78.37,114.29c0,0-103.76-44.77-116.3-80s2.12-50.84,2.12-50.84Z"/><path class="cls-17" d="M1293.23,3046.48l-15.51,44.83a15.58,15.58,0,0,0,6,18.29,40.57,40.57,0,0,0,12.84,5,18.16,18.16,0,0,0,20.08-9.11l18.55-34.93Z"/><path class="cls-18" d="M1142.31,2643s194.8,33.76,278.37,111-76.7,323.43-76.7,323.43-26.26-.16-58.08-27.43c0,0,95-185.19,13.13-239.2-92.07-60.71-198.17-74.39-198.17-74.39l39.57-87.41Z"/><path class="cls-19" d="M1369.38,3192.66c-20.86-9.66-79.92-51-89.88-52.82s-27.22,9.88-27.22,9.88-4.2,7.55.3,20.73c13.86,16.77,44.63,48.74,86,60.66,30.43,8.76,51.72.59,65-9C1396.28,3211,1383.27,3199.09,1369.38,3192.66Z"/><path class="cls-20" d="M1338.59,3231.11c-41.38-11.92-72.15-43.89-86-60.66,3,8.9,10,20.37,25,33.81,37.1,33.34,108,45.36,123,43,12.09-1.86,11-13,3-25.17C1390.31,3231.7,1369,3239.87,1338.59,3231.11Z"/><path class="cls-21" d="M1234.59,3120.54c.24,5.75,12,25.46,18.85,36.52a17.91,17.91,0,0,0,15.16,8.48,45.88,45.88,0,0,0,12.53-1.51,11.6,11.6,0,0,0,7.8-14.45l-13.41-45.81Z"/><path class="cls-22" d="M954.8,2584.48s-43.26,115.68,0,150.85,146.47,74.79,169.52,144.86,62.18,206.24,114.54,254.46c0,0,36.78-3.56,50.55-18.22,0,0-29.82-203.28-49.49-255.44-17-45.17-42.12-110.38-90.21-146.82-13.77-10.43-11.37-27-5-43l11.63-29.23Z"/><path class="cls-23" d="M1406,2493.81c-72.54,4.37-49.94-111.51-48.63-116.12l-110.09,77.76s5.82,62,97.36,94.48c23.16,8.23,44.32,8.59,63,4.57A100.23,100.23,0,0,1,1406,2493.81Z"/><path class="cls-24" d="M1546.26,2458.93c-27-18.8-57.66,0-57.66,0-36.14,23.64-62.88,33.69-82.6,34.88a100.23,100.23,0,0,0,1.67,60.69c40.49-8.71,69.46-38,82-53a13.05,13.05,0,0,1,18.09-2c5.63,4.44,11.1,10.53,10.11,16.93-2,12.63,12.7,16.65,13.81,12.07s-5-31.74-5-31.74,29.32,29.48,40.76,40.81,25.84,0,25.84,0S1573.29,2477.73,1546.26,2458.93Z"/><path class="cls-25" d="M1067.76,2198.72s105.53-42.25,301.93,119.89c0,0,16.4,33.95-1.49,64.18s-188.42,177.49-211.85,259.15c0,0-101.59,33-206.65-45.26C949.7,2596.68,959,2369.39,1067.76,2198.72Z"/><path class="cls-26" d="M1276.38,2161l-52,63a20.69,20.69,0,0,0-2.72,22.23c7.21,14.71,24.32,36.12,62.26,33.16a31.89,31.89,0,0,0,26.22-17.88l36.32-75.09Z"/><path class="cls-27" d="M986.06,2468.45c-12.25-49.9,111.84-161.13,111.84-161.13l-30.14-108.6s-268,178.38-199.66,321.82c9.79,20.57,22.79,35,37.86,44.6C927.54,2507.07,961.92,2480.43,986.06,2468.45Z"/><path class="cls-28" d="M986,2461.18a2.93,2.93,0,0,1-2.84-2.23c-12.53-51,107.61-159.41,112.73-164a2.94,2.94,0,0,1,3.92,4.37c-1.23,1.1-122.65,110.62-111,158.24a2.93,2.93,0,0,1-2.15,3.55A3.27,3.27,0,0,1,986,2461.18Z"/><path class="cls-29" d="M1174,2464.15s-147.12,57.12-183,14.16a24.18,24.18,0,0,1-4.91-9.86c-24.14,12-58.52,38.62-80.1,96.69,77.38,49.45,209.64-27.5,245.4-50.19a26.7,26.7,0,0,1,19.77-3.62c13.79,2.86,37.62,7.06,50.47,5.08,18.8-2.89,45.8,63.42,76.28,43C1297.88,2559.38,1271.78,2444.1,1174,2464.15Z"/><path class="cls-30" d="M1401.84,2104.74s-7.63,68-22.46,97.42-19.35,51.5-55.64,38.25-54.63-45.67-53.32-82.76c0,0,1.62-57.37,17.23-72.26S1401.84,2104.74,1401.84,2104.74Z"/><path class="cls-31" d="M1293.45,2143.71l4.17,2.4s3.11-45.14,21.77-42.64,85.49,24.73,110.61,10.94c24.22-13.3,28.34-46.11,16-63.06a2.55,2.55,0,0,0-3.42-.58l-2.87,1.81a2.58,2.58,0,0,1-3.89-2.8h0a2.58,2.58,0,0,0-3.67-2.93c-7.6,4.07-24.23,8.23-56-3-45-15.92-81.42-14.93-98.27,12.82a2.59,2.59,0,0,1-4.53-.16c-1.95-3.57-6.26-7.19-15.8-5.49-16.59,3-26,30-13.09,64.13a2.56,2.56,0,0,1-2.17,3.53c-6.11.34-16.69,3.41-4.81,22.45,12.15,19.49,23.12,24.44,27.62,25.7a2.59,2.59,0,0,0,3-1.34l12.81-25.82a2.59,2.59,0,0,1,3.6-1.09Z"/><path class="cls-32" d="M1291.48,2149.51s11-39.92-10.21-39.14-14.32,43.55-2.56,52.06Z"/><path class="cls-33" d="M1249.38,2576.79l.71,0,308.69-.34a13.82,13.82,0,1,0,0-27.63l-308.69.34a13.81,13.81,0,0,0-.68,27.61Z"/><path class="cls-34" d="M1836.27,2296.52H1579.2a49,49,0,0,0-44.32,28.1l-118.84,252h319.47a29.78,29.78,0,0,0,27.7-18.84l92.16-233.19A20.54,20.54,0,0,0,1836.27,2296.52Z"/><ellipse class="cls-35" cx="1674.44" cy="2431.94" rx="32.92" ry="20.25" transform="translate(-1153.57 3280.73) rotate(-72.16)"/><path class="cls-9" d="M1794.6,3238.86a13.44,13.44,0,0,0,5.12-1,12.41,12.41,0,0,0,6.79-16.5l-272-612.27a13.16,13.16,0,0,0-17-6.58,12.41,12.41,0,0,0-6.79,16.5l272.05,612.28A13,13,0,0,0,1794.6,3238.86Z"/><path class="cls-9" d="M1488.12,3238.86a13,13,0,0,0,11.92-7.59l272-612.28a12.41,12.41,0,0,0-6.79-16.5,13.13,13.13,0,0,0-17,6.58l-272,612.27a12.41,12.41,0,0,0,6.79,16.5A13.4,13.4,0,0,0,1488.12,3238.86Z"/><path class="cls-9" d="M952.48,3238.86a13.4,13.4,0,0,0,5.12-1,12.41,12.41,0,0,0,6.79-16.5l-272-612.27a13.14,13.14,0,0,0-17-6.58,12.41,12.41,0,0,0-6.79,16.5l272,612.28A13,13,0,0,0,952.48,3238.86Z"/><path class="cls-9" d="M646,3238.86a13,13,0,0,0,11.92-7.59L930,2619a12.41,12.41,0,0,0-6.79-16.5,13.13,13.13,0,0,0-17,6.58l-272,612.27a12.41,12.41,0,0,0,6.79,16.5A13.4,13.4,0,0,0,646,3238.86Z"/><path class="cls-9" d="M614.1,2590.16a14.92,14.92,0,0,1,2.58-11.32,11.77,11.77,0,0,1,9.44-5H1863.75a13.78,13.78,0,0,1,11.86,7.27,17.43,17.43,0,0,1,.93,15.11l-13.42,32.5c-3.07,7.44-9.72,12.21-17,12.21H634.61c-6.81,0-12.67-5.41-14-12.9Z"/></g></svg>