<svg xmlns="http://www.w3.org/2000/svg" xmlns:xlink="http://www.w3.org/1999/xlink" viewBox="0 0 3667.77 2444.94"><defs><style>.cls-1{isolation:isolate;}.cls-2{fill:#6165d7;opacity:0.19;}.cls-100,.cls-112,.cls-117,.cls-123,.cls-2,.cls-33,.cls-57,.cls-76{mix-blend-mode:multiply;}.cls-3{opacity:0.59;}.cls-4{fill:url(#linear-gradient);}.cls-5{fill:url(#linear-gradient-2);}.cls-6{fill:url(#linear-gradient-3);}.cls-7{fill:url(#linear-gradient-4);}.cls-8{fill:url(#linear-gradient-5);}.cls-9{fill:url(#linear-gradient-6);}.cls-10{fill:url(#linear-gradient-7);}.cls-11{fill:url(#linear-gradient-8);}.cls-12{fill:url(#linear-gradient-9);}.cls-13{fill:url(#linear-gradient-10);}.cls-14{fill:url(#linear-gradient-11);}.cls-15{fill:url(#linear-gradient-12);}.cls-16{fill:url(#linear-gradient-13);}.cls-17{fill:url(#linear-gradient-14);}.cls-18{fill:url(#linear-gradient-15);}.cls-19{fill:url(#linear-gradient-16);}.cls-20{fill:url(#linear-gradient-17);}.cls-21{fill:url(#linear-gradient-18);}.cls-22{fill:url(#linear-gradient-19);}.cls-23{fill:url(#linear-gradient-20);}.cls-24{fill:url(#linear-gradient-21);}.cls-25{fill:url(#linear-gradient-22);}.cls-26{opacity:0.75;}.cls-27{fill:url(#linear-gradient-23);}.cls-100,.cls-112,.cls-117,.cls-123,.cls-28,.cls-33,.cls-57,.cls-76{opacity:0.3;}.cls-28,.cls-35{mix-blend-mode:soft-light;}.cls-29,.cls-35{fill:#fff;}.cls-30{opacity:0.68;}.cls-31,.cls-76{fill:#97a6b7;}.cls-32{fill:url(#linear-gradient-24);}.cls-33,.cls-34{fill:#d8dee8;}.cls-35{opacity:0.6;}.cls-36,.cls-70{opacity:0.72;}.cls-36{fill:url(#linear-gradient-25);}.cls-37{fill:url(#linear-gradient-26);}.cls-38{fill:url(#linear-gradient-27);}.cls-39{fill:url(#linear-gradient-28);}.cls-40{fill:#ebeff2;}.cls-41{fill:url(#linear-gradient-29);}.cls-42{fill:url(#linear-gradient-30);}.cls-43{fill:#bfc8d6;}.cls-44{fill:url(#linear-gradient-31);}.cls-45{fill:url(#linear-gradient-32);}.cls-46{fill:url(#linear-gradient-33);}.cls-47{fill:url(#linear-gradient-34);}.cls-48{fill:url(#linear-gradient-35);}.cls-49{fill:url(#linear-gradient-36);}.cls-50{fill:url(#linear-gradient-37);}.cls-51{fill:url(#linear-gradient-38);}.cls-52{fill:url(#linear-gradient-39);}.cls-53{fill:url(#linear-gradient-40);}.cls-54{fill:url(#linear-gradient-41);}.cls-55{fill:url(#linear-gradient-42);}.cls-56{fill:url(#linear-gradient-43);}.cls-57{fill:url(#linear-gradient-44);}.cls-58{fill:url(#linear-gradient-45);}.cls-59{fill:url(#linear-gradient-46);}.cls-60{fill:url(#linear-gradient-47);}.cls-61{fill:url(#linear-gradient-48);}.cls-62{fill:url(#linear-gradient-49);}.cls-63{fill:url(#linear-gradient-50);}.cls-64{fill:url(#linear-gradient-51);}.cls-65{fill:url(#linear-gradient-52);}.cls-66{fill:url(#linear-gradient-53);}.cls-67{fill:url(#linear-gradient-54);}.cls-68{fill:url(#linear-gradient-55);}.cls-69{fill:url(#linear-gradient-56);}.cls-70{fill:url(#linear-gradient-57);}.cls-71{fill:url(#linear-gradient-58);}.cls-72{fill:url(#linear-gradient-59);}.cls-73{fill:url(#linear-gradient-60);}.cls-74{fill:url(#linear-gradient-61);}.cls-75{fill:#b7c0ce;}.cls-77{fill:url(#linear-gradient-62);}.cls-78{fill:url(#linear-gradient-63);}.cls-79{fill:url(#linear-gradient-64);}.cls-80{fill:url(#linear-gradient-65);}.cls-81{fill:url(#linear-gradient-66);}.cls-82{fill:url(#linear-gradient-67);}.cls-83{fill:url(#linear-gradient-68);}.cls-84{fill:url(#linear-gradient-69);}.cls-85{fill:url(#linear-gradient-70);}.cls-86{fill:url(#linear-gradient-71);}.cls-87{fill:url(#linear-gradient-72);}.cls-88{fill:url(#linear-gradient-73);}.cls-89{fill:url(#linear-gradient-74);}.cls-90{fill:url(#linear-gradient-75);}.cls-91{fill:url(#linear-gradient-76);}.cls-92{fill:url(#linear-gradient-77);}.cls-93{fill:url(#linear-gradient-78);}.cls-94{fill:#f4f7fa;opacity:0.81;}.cls-95{fill:url(#linear-gradient-79);}.cls-96{fill:url(#linear-gradient-80);}.cls-97{fill:url(#linear-gradient-81);}.cls-98{fill:url(#linear-gradient-82);}.cls-99{fill:url(#linear-gradient-83);}.cls-100{fill:url(#linear-gradient-84);}.cls-101{fill:url(#linear-gradient-85);}.cls-102{fill:url(#linear-gradient-86);}.cls-103{fill:url(#linear-gradient-87);}.cls-104{fill:url(#linear-gradient-88);}.cls-105{fill:url(#linear-gradient-89);}.cls-106{fill:url(#linear-gradient-90);}.cls-107{fill:url(#linear-gradient-91);}.cls-108{fill:url(#linear-gradient-92);}.cls-109{fill:url(#linear-gradient-93);}.cls-110{fill:url(#linear-gradient-94);}.cls-111{fill:url(#linear-gradient-95);}.cls-112{fill:url(#linear-gradient-96);}.cls-113{fill:url(#linear-gradient-97);}.cls-114{fill:url(#linear-gradient-98);}.cls-115{fill:url(#linear-gradient-99);}.cls-116{fill:url(#linear-gradient-100);}.cls-117{fill:url(#linear-gradient-101);}.cls-118{fill:url(#linear-gradient-102);}.cls-119{fill:url(#linear-gradient-103);}.cls-120{fill:url(#linear-gradient-104);}.cls-121{fill:url(#linear-gradient-105);}.cls-122{fill:#26264f;}.cls-124{fill:url(#linear-gradient-106);}</style><linearGradient id="linear-gradient" x1="-6599.65" y1="19.68" x2="-7586.2" y2="687.58" gradientTransform="matrix(-1, 0, 0, 1, -5715.05, 0)" gradientUnits="userSpaceOnUse"><stop offset="0" stop-color="#ff9085"/><stop offset="1" stop-color="#fb6fbb"/></linearGradient><linearGradient id="linear-gradient-2" x1="-6399.7" y1="387.44" x2="-7243.38" y2="958.62" xlink:href="#linear-gradient"/><linearGradient id="linear-gradient-3" x1="-6244.25" y1="405.43" x2="-6939.92" y2="876.4" xlink:href="#linear-gradient"/><linearGradient id="linear-gradient-4" x1="-6093.87" y1="422.42" x2="-6650.3" y2="799.12" xlink:href="#linear-gradient"/><linearGradient id="linear-gradient-5" x1="-5948.34" y1="438.49" x2="-6373.61" y2="726.4" xlink:href="#linear-gradient"/><linearGradient id="linear-gradient-6" x1="-6970.36" y1="760.5" x2="-5691.85" y2="402.34" xlink:href="#linear-gradient"/><linearGradient id="linear-gradient-7" x1="-6864.24" y1="879.17" x2="-5722.12" y2="559.21" xlink:href="#linear-gradient"/><linearGradient id="linear-gradient-8" x1="-6834.02" y1="907.86" x2="-5723.46" y2="596.75" xlink:href="#linear-gradient"/><linearGradient id="linear-gradient-9" x1="-6801.7" y1="934.92" x2="-5721.38" y2="632.27" xlink:href="#linear-gradient"/><linearGradient id="linear-gradient-10" x1="-6767.5" y1="960.43" x2="-5716.16" y2="665.9" xlink:href="#linear-gradient"/><linearGradient id="linear-gradient-11" x1="-7473.28" y1="1284.84" x2="-6495.92" y2="961.3" xlink:href="#linear-gradient"/><linearGradient id="linear-gradient-12" x1="-7257.2" y1="1435.44" x2="-6423.85" y2="1159.57" xlink:href="#linear-gradient"/><linearGradient id="linear-gradient-13" x1="-6386.99" y1="-144.81" x2="-7736.81" y2="340.57" gradientTransform="matrix(-1, 0, 0, 1, -5715.05, 0)" gradientUnits="userSpaceOnUse"><stop offset="0" stop-color="#aa80f9"/><stop offset="1" stop-color="#6165d7"/></linearGradient><linearGradient id="linear-gradient-14" x1="-6401.76" y1="56.72" x2="-7619.37" y2="494.56" xlink:href="#linear-gradient-13"/><linearGradient id="linear-gradient-15" x1="-6398.23" y1="105.56" x2="-7587.2" y2="533.1" xlink:href="#linear-gradient-13"/><linearGradient id="linear-gradient-16" x1="-6392.23" y1="152.28" x2="-7553.6" y2="569.89" xlink:href="#linear-gradient-13"/><linearGradient id="linear-gradient-17" x1="-6383.96" y1="196.99" x2="-7518.73" y2="605.04" xlink:href="#linear-gradient-13"/><linearGradient id="linear-gradient-18" x1="-6364.92" y1="573.39" x2="-9682.44" y2="2819.36" xlink:href="#linear-gradient-13"/><linearGradient id="linear-gradient-19" x1="-6343.66" y1="843.26" x2="-6887.79" y2="1211.64" xlink:href="#linear-gradient-13"/><linearGradient id="linear-gradient-20" x1="-6244.68" y1="849.37" x2="-6698.45" y2="1156.57" xlink:href="#linear-gradient-13"/><linearGradient id="linear-gradient-21" x1="-6147.79" y1="855.19" x2="-6514.69" y2="1103.58" xlink:href="#linear-gradient-13"/><linearGradient id="linear-gradient-22" x1="-6052.91" y1="860.74" x2="-6336.28" y2="1052.58" xlink:href="#linear-gradient-13"/><linearGradient id="linear-gradient-23" x1="-9279.13" y1="632.98" x2="-8998.1" y2="1166.22" xlink:href="#linear-gradient"/><linearGradient id="linear-gradient-24" x1="-7764.55" y1="1519.09" x2="-7764.55" y2="1723.34" gradientTransform="matrix(-1, 0, 0, 1, -5715.05, 0)" gradientUnits="userSpaceOnUse"><stop offset="0.49" stop-color="#ebeff2"/><stop offset="1" stop-color="#fff"/></linearGradient><linearGradient id="linear-gradient-25" x1="-7349.07" y1="1198.96" x2="-8377.66" y2="64.09" gradientTransform="matrix(-1, 0, 0, 1, -5715.05, 0)" gradientUnits="userSpaceOnUse"><stop offset="0" stop-color="#ffc444"/><stop offset="1" stop-color="#f36f56"/></linearGradient><linearGradient id="linear-gradient-26" x1="-7258.98" y1="777.13" x2="-7544.44" y2="461.62" gradientTransform="matrix(-1, 0, 0, 1, -5715.05, 0)" gradientUnits="userSpaceOnUse"><stop offset="0" stop-color="#311944"/><stop offset="1" stop-color="#893976"/></linearGradient><linearGradient id="linear-gradient-27" x1="-7207.25" y1="1235.2" x2="-7901.79" y2="1021.49" xlink:href="#linear-gradient-26"/><linearGradient id="linear-gradient-28" x1="-7089.75" y1="989.52" x2="-7809" y2="768.22" gradientTransform="matrix(-1, 0, 0, 1, -5715.05, 0)" gradientUnits="userSpaceOnUse"><stop offset="0" stop-color="#311944"/><stop offset="0.2" stop-color="#431f4e"/><stop offset="1" stop-color="#893976"/></linearGradient><linearGradient id="linear-gradient-29" x1="-6500.45" y1="677.03" x2="-6726.12" y2="1045.95" xlink:href="#linear-gradient-25"/><linearGradient id="linear-gradient-30" x1="-173.89" y1="783.44" x2="-82.07" y2="1108.11" gradientTransform="translate(1068.12 4.55) rotate(0.07)" xlink:href="#linear-gradient-25"/><linearGradient id="linear-gradient-31" x1="-6498.82" y1="1004.48" x2="-6733.76" y2="1388.56" xlink:href="#linear-gradient"/><linearGradient id="linear-gradient-32" x1="-6705.04" y1="1203.55" x2="-6753.43" y2="1354.59" xlink:href="#linear-gradient"/><linearGradient id="linear-gradient-33" x1="-6659.33" y1="1252.5" x2="-6686.58" y2="1337.51" xlink:href="#linear-gradient"/><linearGradient id="linear-gradient-34" x1="-6609.43" y1="1275.16" x2="-6626.63" y2="1328.86" xlink:href="#linear-gradient"/><linearGradient id="linear-gradient-35" x1="-6531.57" y1="1138.33" x2="-6606.21" y2="1371.26" xlink:href="#linear-gradient"/><linearGradient id="linear-gradient-36" x1="-6481.78" y1="1156.41" x2="-6548.33" y2="1364.09" xlink:href="#linear-gradient"/><linearGradient id="linear-gradient-37" x1="-6423.32" y1="1123.31" x2="-6503.44" y2="1373.32" xlink:href="#linear-gradient"/><linearGradient id="linear-gradient-38" x1="-6379.92" y1="1172.16" x2="-6438.94" y2="1356.34" xlink:href="#linear-gradient"/><linearGradient id="linear-gradient-39" x1="-6337.85" y1="1226" x2="-6373.66" y2="1337.77" xlink:href="#linear-gradient"/><linearGradient id="linear-gradient-40" x1="6193.74" y1="2040.18" x2="6224.43" y2="2040.18" gradientTransform="translate(-3517.03)" xlink:href="#linear-gradient-25"/><linearGradient id="linear-gradient-41" x1="6156.68" y1="2048.87" x2="6211.19" y2="2048.87" gradientTransform="translate(-3517.03)" gradientUnits="userSpaceOnUse"><stop offset="0" stop-color="#444b8c"/><stop offset="1" stop-color="#26264f"/></linearGradient><linearGradient id="linear-gradient-42" x1="6191.55" y1="2029.03" x2="6185.52" y2="2042.96" xlink:href="#linear-gradient-41"/><linearGradient id="linear-gradient-43" x1="6335.14" y1="1730.26" x2="6168.34" y2="2019.7" gradientTransform="translate(-3517.03)" xlink:href="#linear-gradient-26"/><linearGradient id="linear-gradient-44" x1="6354.39" y1="1741.35" x2="6187.59" y2="2030.79" gradientTransform="translate(-3517.03)" xlink:href="#linear-gradient-26"/><linearGradient id="linear-gradient-45" x1="6641.4" y1="1985.1" x2="6666.62" y2="1985.1" xlink:href="#linear-gradient-41"/><linearGradient id="linear-gradient-46" x1="6543.27" y1="1667.61" x2="6431.84" y2="1917.8" gradientTransform="translate(-3517.03)" xlink:href="#linear-gradient-26"/><linearGradient id="linear-gradient-47" x1="1719.04" y1="-1592.23" x2="1714.83" y2="-1505.51" gradientTransform="translate(448.77 1726.86) rotate(31.98)" xlink:href="#linear-gradient-25"/><linearGradient id="linear-gradient-48" x1="6476.46" y1="1234.56" x2="6472.26" y2="1321.29" gradientTransform="translate(-3517.03)" xlink:href="#linear-gradient-25"/><linearGradient id="linear-gradient-49" x1="-8393.91" y1="1105.56" x2="-8702.48" y2="1795.64" gradientTransform="matrix(-1, 0, 0, 1, -5715.05, 0)" gradientUnits="userSpaceOnUse"><stop offset="0" stop-color="#e38ddd"/><stop offset="1" stop-color="#9571f6"/></linearGradient><linearGradient id="linear-gradient-50" x1="-8553.32" y1="1034.28" x2="-8861.89" y2="1724.36" xlink:href="#linear-gradient-49"/><linearGradient id="linear-gradient-51" x1="-1288.83" y1="-610.77" x2="-1284.99" y2="-713.26" gradientTransform="matrix(-0.97, 0.23, 0.23, 0.97, 1739.5, 2333.43)" xlink:href="#linear-gradient-25"/><linearGradient id="linear-gradient-52" x1="1805.87" y1="-753.55" x2="1783.83" y2="-809.51" gradientTransform="translate(1031.15 2132.59) rotate(0.81)" gradientUnits="userSpaceOnUse"><stop offset="0" stop-color="#311944"/><stop offset="1" stop-color="#6b3976"/></linearGradient><linearGradient id="linear-gradient-53" x1="-1694.16" y1="-905.36" x2="-1695.15" y2="-825.93" gradientTransform="matrix(-1, -0.08, -0.08, 1, 1071.78, 2138.99)" xlink:href="#linear-gradient-25"/><linearGradient id="linear-gradient-54" x1="-3857.27" y1="-2193.53" x2="-4796.16" y2="286.54" gradientTransform="matrix(-0.85, -0.53, -0.53, 0.85, -1431.32, 514.48)" xlink:href="#linear-gradient-28"/><linearGradient id="linear-gradient-55" x1="-3846.9" y1="-2197.12" x2="-4785.78" y2="282.95" gradientTransform="matrix(-0.85, -0.53, -0.53, 0.85, -1431.32, 514.48)" xlink:href="#linear-gradient"/><linearGradient id="linear-gradient-56" x1="-8281.86" y1="1155.66" x2="-8590.43" y2="1845.75" xlink:href="#linear-gradient-49"/><linearGradient id="linear-gradient-57" x1="-8809.09" y1="392.89" x2="-8842.5" y2="675.6" xlink:href="#linear-gradient-25"/><linearGradient id="linear-gradient-58" x1="-8688.26" y1="28.74" x2="-8780.83" y2="195.87" xlink:href="#linear-gradient"/><linearGradient id="linear-gradient-59" x1="-9011.09" y1="322.43" x2="-9124.54" y2="502.5" xlink:href="#linear-gradient"/><linearGradient id="linear-gradient-60" x1="-8753.8" y1="596.89" x2="-8756.54" y2="273.91" xlink:href="#linear-gradient-26"/><linearGradient id="linear-gradient-61" x1="-8660.55" y1="404.6" x2="-8689.17" y2="729.44" xlink:href="#linear-gradient-13"/><linearGradient id="linear-gradient-62" x1="-7439.07" y1="1530.25" x2="-7317.36" y2="1439.39" xlink:href="#linear-gradient-26"/><linearGradient id="linear-gradient-63" x1="6050.51" y1="1860.15" x2="6180.8" y2="1549.85" gradientTransform="translate(-4486.95)" xlink:href="#linear-gradient-26"/><linearGradient id="linear-gradient-64" x1="6058.52" y1="1863.51" x2="6188.81" y2="1553.22" gradientTransform="translate(-4486.95)" xlink:href="#linear-gradient-26"/><linearGradient id="linear-gradient-65" x1="5850.62" y1="1935.06" x2="5914.01" y2="1935.06" gradientTransform="translate(-4486.95)" xlink:href="#linear-gradient-52"/><linearGradient id="linear-gradient-66" x1="5894.3" y1="1931.46" x2="5946.77" y2="1774.06" gradientTransform="translate(-4486.95)" xlink:href="#linear-gradient-25"/><linearGradient id="linear-gradient-67" x1="5968.59" y1="1961.86" x2="6031.98" y2="1961.86" gradientTransform="translate(-4486.95)" xlink:href="#linear-gradient-52"/><linearGradient id="linear-gradient-68" x1="6012.27" y1="1958.26" x2="6064.74" y2="1800.85" gradientTransform="translate(-4486.95)" xlink:href="#linear-gradient-25"/><linearGradient id="linear-gradient-69" x1="-7387.6" y1="1696.97" x2="-7166.44" y2="1720.71" gradientTransform="matrix(-1, 0, 0, 1, -5715.05, 0)" gradientUnits="userSpaceOnUse"><stop offset="0" stop-color="#26264f"/><stop offset="1" stop-color="#444b8c"/></linearGradient><linearGradient id="linear-gradient-70" x1="-7416.29" y1="1756.82" x2="-7260.74" y2="1773.52" xlink:href="#linear-gradient-69"/><linearGradient id="linear-gradient-71" x1="-7311.21" y1="1470.07" x2="-7264.24" y2="1410.59" xlink:href="#linear-gradient-49"/><linearGradient id="linear-gradient-72" x1="-7271.42" y1="1588.94" x2="-7513.78" y2="1357.71" xlink:href="#linear-gradient-49"/><linearGradient id="linear-gradient-73" x1="-7437.61" y1="1583.48" x2="-7332.61" y2="1450.51" xlink:href="#linear-gradient-13"/><linearGradient id="linear-gradient-74" x1="-6533.69" y1="4247.3" x2="-6528.65" y2="4113.02" gradientTransform="matrix(-0.92, 0.4, 0.4, 0.92, -5994.26, 93.45)" xlink:href="#linear-gradient-25"/><linearGradient id="linear-gradient-75" x1="7854.99" y1="3152.58" x2="7820.54" y2="3065.11" gradientTransform="matrix(0.97, -0.25, 0.25, 0.97, -6698.37, 241.4)" xlink:href="#linear-gradient-52"/><linearGradient id="linear-gradient-76" x1="-7959.47" y1="2601.37" x2="-7961.01" y2="2725.52" gradientTransform="matrix(-0.98, 0.19, 0.19, 0.98, -6657.37, 236.96)" xlink:href="#linear-gradient-25"/><linearGradient id="linear-gradient-77" x1="7844.46" y1="3155" x2="7811.26" y2="3070.67" gradientTransform="matrix(0.97, -0.25, 0.25, 0.97, -6698.37, 241.4)" xlink:href="#linear-gradient-52"/><linearGradient id="linear-gradient-78" x1="7810.66" y1="3102.97" x2="7812.51" y2="3119.51" gradientTransform="matrix(0.97, -0.25, 0.25, 0.97, -6698.37, 241.4)" gradientUnits="userSpaceOnUse"><stop offset="0" stop-color="#ffc444"/><stop offset="1" stop-color="#f36f56"/></linearGradient><linearGradient id="linear-gradient-79" x1="-7304.98" y1="1624.12" x2="-7547.34" y2="1392.89" xlink:href="#linear-gradient-49"/><linearGradient id="linear-gradient-80" x1="-7208.59" y1="1614.92" x2="-7203.82" y2="1593.2" xlink:href="#linear-gradient-69"/><linearGradient id="linear-gradient-81" x1="-7321.73" y1="1559.39" x2="-7072.75" y2="1559.39" xlink:href="#linear-gradient-69"/><linearGradient id="linear-gradient-82" x1="-7076.58" y1="1466.17" x2="-7101.61" y2="1406.57" xlink:href="#linear-gradient-69"/><linearGradient id="linear-gradient-83" x1="-7283.1" y1="1436.57" x2="-6888.24" y2="1436.57" xlink:href="#linear-gradient-69"/><linearGradient id="linear-gradient-84" x1="-7283.1" y1="1507.66" x2="-6925.79" y2="1507.66" xlink:href="#linear-gradient-69"/><linearGradient id="linear-gradient-85" x1="-7131.44" y1="1574.74" x2="-7109.19" y2="1584.67" gradientTransform="matrix(-1, 0, 0, 1, -5715.05, 0)" xlink:href="#linear-gradient-41"/><linearGradient id="linear-gradient-86" x1="-7168.58" y1="1578.62" x2="-7086.66" y2="1578.62" xlink:href="#linear-gradient-69"/><linearGradient id="linear-gradient-87" x1="-7100.92" y1="1514.47" x2="-6998.65" y2="1514.47" gradientTransform="matrix(-1, 0, 0, 1, -5715.05, 0)" xlink:href="#linear-gradient-41"/><linearGradient id="linear-gradient-88" x1="-7096.44" y1="1514.44" x2="-6994.24" y2="1514.44" xlink:href="#linear-gradient-69"/><linearGradient id="linear-gradient-89" x1="-7409.37" y1="1570.42" x2="-7336.02" y2="1570.42" xlink:href="#linear-gradient-69"/><linearGradient id="linear-gradient-90" x1="-7391.33" y1="1547.07" x2="-7377.21" y2="1595.77" xlink:href="#linear-gradient-25"/><linearGradient id="linear-gradient-91" x1="-5787.97" y1="1685.54" x2="-5777.96" y2="1812.88" gradientTransform="matrix(-1, 0, 0, 1, -5088.78, 0)" xlink:href="#linear-gradient-69"/><linearGradient id="linear-gradient-92" x1="-5762.14" y1="1756.43" x2="-5763.96" y2="1624.56" gradientTransform="matrix(-1, 0, 0, 1, -5088.78, 0)" gradientUnits="userSpaceOnUse"><stop offset="0" stop-color="#ab316d"/><stop offset="1" stop-color="#792d3d"/></linearGradient><linearGradient id="linear-gradient-93" x1="-5598.9" y1="1670.69" x2="-5588.9" y2="1798.02" gradientTransform="matrix(-1, 0, 0, 1, -5088.78, 0)" xlink:href="#linear-gradient-69"/><linearGradient id="linear-gradient-94" x1="-5588.87" y1="1754.04" x2="-5590.69" y2="1622.17" xlink:href="#linear-gradient-92"/><linearGradient id="linear-gradient-95" x1="-6419.88" y1="1542.8" x2="-6322.37" y2="1542.8" gradientTransform="matrix(-1, 0, 0, 1, -5715.05, 0)" xlink:href="#linear-gradient-52"/><linearGradient id="linear-gradient-96" x1="-6413.13" y1="1542.8" x2="-6322.37" y2="1542.8" xlink:href="#linear-gradient-69"/><linearGradient id="linear-gradient-97" x1="-6392.81" y1="1533.18" x2="-6196.52" y2="1533.18" gradientTransform="matrix(-1, 0, 0, 1, -5715.05, 0)" xlink:href="#linear-gradient-52"/><linearGradient id="linear-gradient-98" x1="5363.78" y1="819.74" x2="5309.95" y2="981.23" gradientTransform="translate(-4470.33 15.97) rotate(1.25)" xlink:href="#linear-gradient-92"/><linearGradient id="linear-gradient-99" x1="-6507.82" y1="957.67" x2="-6415.75" y2="1339.44" gradientTransform="matrix(-1, -0.02, -0.02, 1, -5750.08, -11.98)" xlink:href="#linear-gradient-13"/><linearGradient id="linear-gradient-100" x1="-6363.78" y1="1085.85" x2="-6287.96" y2="1085.85" gradientTransform="matrix(-1, -0.02, -0.02, 1, -5750.08, -11.98)" xlink:href="#linear-gradient-13"/><linearGradient id="linear-gradient-101" x1="-6368.75" y1="1085.85" x2="-6292.94" y2="1085.85" gradientTransform="matrix(-1, -0.02, -0.02, 1, -5750.08, -11.98)" xlink:href="#linear-gradient-13"/><linearGradient id="linear-gradient-102" x1="-6431.16" y1="939.18" x2="-6339.08" y2="1320.95" gradientTransform="matrix(-1, -0.02, -0.02, 1, -5750.08, -11.98)" xlink:href="#linear-gradient-13"/><linearGradient id="linear-gradient-103" x1="-7659.21" y1="950.14" x2="-7629.27" y2="997.73" gradientTransform="matrix(-1, -0.02, -0.02, 1, -6999.34, -39.21)" xlink:href="#linear-gradient"/><linearGradient id="linear-gradient-104" x1="-6366.88" y1="-566.13" x2="-6401.93" y2="-509.43" gradientTransform="matrix(-0.95, -0.31, -0.31, 0.95, -5621.01, -350.32)" xlink:href="#linear-gradient-92"/><linearGradient id="linear-gradient-105" x1="-6244.7" y1="-2585.81" x2="-6276.55" y2="-2534.29" gradientTransform="matrix(-0.85, -0.52, -0.52, 0.85, -6048.72, -0.83)" xlink:href="#linear-gradient-92"/><linearGradient id="linear-gradient-106" x1="-6452.76" y1="944.39" x2="-6360.68" y2="1326.16" gradientTransform="matrix(-1, -0.02, -0.02, 1, -5750.08, -11.98)" xlink:href="#linear-gradient-13"/></defs><title>15</title><g class="cls-1"><g id="Illustration"><path class="cls-2" d="M2189.88,1646.46c453.33,19.62,1192.07,51.59,1213.74,219.43,9.25,71.66-115.48,142.58-178.29,178.29-266.52,151.55-536.58,100.72-774.87,82.29-501-38.75-485.82,94.8-980.59,82.29-653.8-16.54-1282.72-265-1268.59-384,8.77-73.83,271-97.22,795.44-144C1630.45,1624.22,2080.43,1641.73,2189.88,1646.46Z"/><path class="cls-2" d="M2292.74,1677.32c179.9.54,223.13,10.6,226.29,27.43,7.76,41.33-220,156.58-466.29,161.14-102.23,1.9-195.31-15.49-198.86,0-5.71,24.92,234.5,71.23,233.15,126.86-1.48,60.65-289.6,114.89-555.44,126.86-453.09,20.4-947.85-77.2-946.3-164.57.68-38.18,187.89-77.4,562.29-154.29C1373.94,1754.26,1782.91,1675.78,2292.74,1677.32Z"/><path class="cls-2" d="M2645.89,1989.33c-117.93,11.07-211.21,20.25-212.57,41.14-1.91,29.28,177,78.59,353.15,78.86,227.59.34,447.22-81.17,442.29-116.58C3222,1944.33,2794.24,1975.4,2645.89,1989.33Z"/><path class="cls-2" d="M592.14,1742.46c128.8-12.94,296.41-10.18,298.3,10.29,1.94,21.1-172,63.38-346.3,58.29-56.83-1.66-150.16-9.43-150.86-24C392.5,1770.62,509.37,1750.78,592.14,1742.46Z"/><g class="cls-3"><path class="cls-4" d="M1046.74,541.66l960.39-9c51.68-.49,93.93-35.45,93.93-78.09v-5.85c0-42.64-42.25-76.19-93.93-75l-960.39,23c-42.61,1-76.89,32.86-76.89,71.13v5.25C969.85,511.37,1004.13,542.07,1046.74,541.66Z"/><path class="cls-5" d="M734.52,474.39c0,38.78,33.91,69.89,76.07,69.49,42.52-.4,77.27-32.65,77.27-72s-34.75-70.49-77.27-69.47C768.43,403.38,734.52,435.62,734.52,474.39Z"/><path class="cls-6" d="M570.65,477.12c0,32.43,27.87,58.44,62.48,58.07,34.85-.36,63.29-27.3,63.29-60.16S668,416.17,633.13,417C598.52,417.76,570.65,444.69,570.65,477.12Z"/><path class="cls-7" d="M412.25,479.76c0,26.31,22.22,47.37,49.77,47.06,27.71-.32,50.29-22.14,50.29-48.73s-22.58-47.65-50.29-47C434.47,431.64,412.25,453.45,412.25,479.76Z"/><path class="cls-8" d="M259.05,482.31c0,20.38,16.92,36.69,37.87,36.42s38.19-17.14,38.19-37.69S318,444.19,296.92,444.63,259.05,461.93,259.05,482.31Z"/><path class="cls-9" d="M663.14,750.88l708.32,8.53c37.29.45,67.72-25.64,67.72-58.28v-4.48c0-32.64-30.43-59.11-67.72-59.12l-708.32-.15c-32.11,0-58,24.32-58,54.33v4.12C605.15,725.85,631,750.49,663.14,750.88Z"/><path class="cls-10" d="M426.45,692.68c0,30.57,25.86,55.66,58,56,32.32.39,58.68-24.38,58.68-55.33s-26.36-56-58.68-56C452.31,637.34,426.45,662.11,426.45,692.68Z"/><path class="cls-11" d="M300.93,691.91c0,25.66,21.41,46.7,48,47s48.46-20.48,48.46-46.41-21.76-47-48.46-47S300.93,666.25,300.93,691.91Z"/><path class="cls-12" d="M178.73,691.16c0,20.89,17.19,38,38.48,38.21S256,712.7,256,691.63s-17.41-38.17-38.81-38.21S178.73,670.27,178.73,691.16Z"/><path class="cls-13" d="M59.73,690.43a29.77,29.77,0,0,0,29.49,29.68,29.33,29.33,0,0,0,29.69-29.32,29.75,29.75,0,0,0-29.69-29.67A29.32,29.32,0,0,0,59.73,690.43Z"/><path class="cls-14" d="M802.58,1039.16,1835.17,1082c58.62,2.43,106.61,44.28,106.61,93.45s-48,86.25-106.61,82.86L802.58,1198.56c-47.42-2.74-85.52-40.32-85.52-84S755.16,1037.2,802.58,1039.16Z"/><path class="cls-15" d="M546.84,1028.55c45.4,1.89,82.52,38.47,82.52,81.71s-37.12,76.13-82.52,73.5c-45-2.6-81.11-39.14-81.11-81.63S501.88,1026.69,546.84,1028.55Z"/><path class="cls-16" d="M1497.39,233.13l649-25c35.3-1.36,64.09,20.82,64.09,49.54s-28.79,52.86-64.09,53.89l-649,19c-31.1.91-56.17-20-56.17-46.78S1466.29,234.32,1497.39,233.13Z"/><path class="cls-17" d="M1328.29,239.65c30.27-1.17,54.94,19.44,54.94,46s-24.67,48.87-54.94,49.75c-30.1.88-54.37-19.74-54.37-46.05S1298.19,240.81,1328.29,239.65Z"/><path class="cls-18" d="M1201,251.61c25.11-1,45.56,16.37,45.56,38.7s-20.45,41-45.56,41.79-45.16-16.58-45.16-38.71S1176,252.55,1201,251.61Z"/><path class="cls-19" d="M1076.9,263.27c20.2-.75,36.63,13.37,36.63,31.55s-16.43,33.42-36.63,34-36.37-13.52-36.37-31.56S1056.78,264,1076.9,263.27Z"/><path class="cls-20" d="M955.77,274.65c15.52-.56,28.13,10.43,28.13,24.57s-12.61,26-28.13,26.47-28-10.52-28-24.57S940.29,275.22,955.77,274.65Z"/><path class="cls-21" d="M859.17,856.88l569.8,12.9c30.87.7,56,23,56,49.89s-25.16,47.82-56,46.84l-569.8-18.22c-27.41-.88-49.52-21.94-49.52-47.06S831.76,856.26,859.17,856.88Z"/><path class="cls-22" d="M710,853.51c26.73.6,48.5,21.35,48.5,46.33s-21.77,44.53-48.5,43.68-48-21.58-48-46.32S683.41,852.9,710,853.51Z"/><path class="cls-23" d="M597.53,857.59c22.2.52,40.28,18,40.28,38.95S619.73,934,597.53,933.29s-39.95-18.12-39.95-38.94S575.42,857.08,597.53,857.59Z"/><path class="cls-24" d="M487.66,861.58c17.89.43,32.44,14.65,32.44,31.75s-14.55,30.52-32.44,30-32.22-14.75-32.22-31.74S469.84,861.15,487.66,861.58Z"/><path class="cls-25" d="M380.3,865.48c13.76.34,24.95,11.41,24.95,24.71S394.06,914,380.3,913.54s-24.82-11.47-24.82-24.71S366.57,865.14,380.3,865.48Z"/></g><g class="cls-26"><path class="cls-27" d="M2995.34,887.76l596.53-28.69a24.66,24.66,0,0,1,26,24.91v486a24.52,24.52,0,0,1-26,24.78L2995.34,1363c-11.23-.6-20.3-11.38-20.3-24.08V911.74C2975,899,2984.11,888.3,2995.34,887.76Z"/><g class="cls-28"><path class="cls-29" d="M3121.34,1207.93c73.5-30.71,128,32,195.12-7.21,90.18-52.73,45.75-192.79,139.1-294.41A238.7,238.7,0,0,1,3509,863.05l82.85-4a24.66,24.66,0,0,1,26,24.91v486a24.52,24.52,0,0,1-26,24.78l-579-30.81C3035.41,1286,3069.9,1229.42,3121.34,1207.93Z"/></g><g class="cls-30"><path class="cls-29" d="M3216.49,1073.82l12.57-.1a141.15,141.15,0,0,1,9.1-36.61l-10.89-6.6c-6.16-3.74-8.27-12.21-4.72-18.93l1.56-3c3.56-6.74,11.47-9.21,17.67-5.49l11,6.59a134.67,134.67,0,0,1,25.14-27.46l-6.41-11.68a14.88,14.88,0,0,1,4.82-19.35l2.76-1.8a12.55,12.55,0,0,1,18.07,4.58l6.48,11.73a123.47,123.47,0,0,1,35.09-11V940.92c0-7.86,6.05-14.47,13.53-14.74l3.29-.13c7.51-.27,13.62,5.92,13.62,13.83v14a122.43,122.43,0,0,1,36,9l6.75-12.37c3.84-7,12.36-9.7,19-5.92l2.93,1.66c6.71,3.8,9,12.62,5.13,19.68l-6.84,12.47a131.83,131.83,0,0,1,26.93,27.26l12-7.36a13.88,13.88,0,0,1,19.49,4.93l1.74,3a15,15,0,0,1-5.24,20.15l-12.05,7.33A139.61,139.61,0,0,1,3485,1072l14-.11a14.44,14.44,0,0,1,14.41,14.62v3.57a14.61,14.61,0,0,1-14.41,14.76l-14,0a140.87,140.87,0,0,1-10,38.3l12,7.19a14.94,14.94,0,0,1,5.24,20.09l-1.73,3.06a14,14,0,0,1-19.49,5.13l-12-7.28a133.67,133.67,0,0,1-27,27.46l6.83,12.36c3.88,7,1.57,15.87-5.14,19.73l-2.93,1.69a13.87,13.87,0,0,1-19.05-5.73l-6.76-12.33a123,123,0,0,1-36,9.26v14c0,7.91-6.1,14.16-13.62,14l-3.28-.09c-7.49-.2-13.54-6.74-13.54-14.61v-13.91a122.57,122.57,0,0,1-35.06-10.71l-6.46,11.77a12.62,12.62,0,0,1-18.07,4.75l-2.76-1.77a14.79,14.79,0,0,1-4.81-19.31l6.42-11.77a132.56,132.56,0,0,1-25.08-27.27l-11,6.67c-6.2,3.78-14.1,1.39-17.67-5.31l-1.56-2.94c-3.55-6.69-1.44-15.18,4.72-19l10.92-6.73a139.83,139.83,0,0,1-9-36.54l-12.54,0c-7.09,0-12.82-6.18-12.82-13.84v-3.35C3203.67,1080.13,3209.4,1073.88,3216.49,1073.82Zm137.26,114.64c52.8.79,96.43-44,96.43-100s-43.63-100.39-96.43-99.1c-51.72,1.28-92.88,46-92.88,100S3302,1187.69,3353.75,1188.46Z"/><path class="cls-29" d="M3066.13,1220.4l6.55.15a76,76,0,0,1,4.73-19.51l-5.66-3.74a8.06,8.06,0,0,1-2.46-10.27l.81-1.55a6.31,6.31,0,0,1,9.19-2.61l5.71,3.75a67,67,0,0,1,13-14.21l-3.31-6.38a8,8,0,0,1,2.49-10.26l1.42-.89c3.25-2.06,7.42-.79,9.3,2.84l3.32,6.4a59.53,59.53,0,0,1,17.95-5.09v-7.37c0-4.19,3.09-7.56,6.89-7.54h1.67c3.82,0,6.92,3.45,6.92,7.65v7.42a61.78,61.78,0,0,1,18.19,5.53l3.39-6.39a6.65,6.65,0,0,1,9.56-2.71l1.47.94a8.08,8.08,0,0,1,2.57,10.48l-3.42,6.43a72,72,0,0,1,13.46,14.89l5.95-3.65a6.85,6.85,0,0,1,9.68,3l.86,1.62a8,8,0,0,1-2.6,10.47l-6,3.64a78.29,78.29,0,0,1,4.94,20.24l6.91.15c3.93.09,7.12,3.62,7.12,7.88v1.87c0,4.26-3.19,7.63-7.12,7.53l-6.93-.18a76,76,0,0,1-5,20l6,3.92a8.2,8.2,0,0,1,2.6,10.59l-.86,1.59a6.67,6.67,0,0,1-9.68,2.49l-6-4a66.94,66.94,0,0,1-13.49,14.19l3.42,6.58c1.94,3.74.78,8.38-2.57,10.36l-1.47.87c-3.36,2-7.64.55-9.57-3.18l-3.4-6.57a59.49,59.49,0,0,1-18.2,4.6v7.4c0,4.2-3.1,7.47-6.91,7.31l-1.67-.07c-3.81-.16-6.89-3.68-6.89-7.87v-7.4a61.69,61.69,0,0,1-17.94-6l-3.32,6.22a6.3,6.3,0,0,1-9.29,2.39l-1.43-1a8.18,8.18,0,0,1-2.48-10.38l3.31-6.24a72.27,72.27,0,0,1-13-14.87l-5.69,3.46c-3.22,2-7.33.59-9.18-3l-.82-1.59c-1.85-3.64-.75-8.18,2.46-10.15l5.68-3.48a78.48,78.48,0,0,1-4.69-19.75l-6.53-.17c-3.7-.09-6.69-3.52-6.69-7.64v-1.81C3059.44,1223.6,3062.43,1220.32,3066.13,1220.4Zm70.68,63.08c26.71.94,48.58-22.21,48.58-51.71s-21.87-53.72-48.58-54.07c-26.42-.35-47.63,22.81-47.63,51.73S3110.39,1282.55,3136.81,1283.48Z"/></g></g><path class="cls-31" d="M1861.67,1713.75a86.89,86.89,0,0,0,57.61-65.42l42.82-211.93,366.31,13,45.08,220.79c6.31,30.93-19,62-48.07,73.34l-153.25,60a199.37,199.37,0,0,1-89.6,13l-323.88-27.71a20.1,20.1,0,0,1-18.17-17.8c-1.1-9.55-7.73-20.27,1.3-23.26Z"/><path class="cls-32" d="M1858,1700.86a86.12,86.12,0,0,0,57.56-64.59L1958.38,1427l357.37,12.86,45,218a63.77,63.77,0,0,1-39.46,72.39l-153.1,59.21a201.24,201.24,0,0,1-89.51,12.83l-323.55-27.36a20,20,0,0,1-4.54-38.86Z"/><path class="cls-31" d="M3076.9,1577.26c39.73,2.37,72.23-23.4,72.23-57.46V292.35c0-34.05-32.5-60.35-72.23-58.63l-1837,79.59c-29.17,1.27-52.78,25.86-52.78,54.82V1412.07c0,29,23.61,53.94,52.78,55.67Z"/><path class="cls-29" d="M3060.39,1577.26c39.73,2.37,72.23-23.4,72.23-57.46V292.35c0-34.05-32.5-60.35-72.23-58.63l-1837,79.59c-29.17,1.27-52.78,25.86-52.78,54.82V1412.07c0,29,23.61,53.94,52.78,55.67Z"/><path class="cls-33" d="M1223.35,337.88l1837-75.57c21.24-.87,38.51,13.16,38.51,31.34V1518c0,18.19-17.27,31.94-38.51,30.72l-1837-105.49a30.24,30.24,0,0,1-28.27-29.77V367.18A29.64,29.64,0,0,1,1223.35,337.88Z"/><path class="cls-34" d="M3060.39,1444.39c8.27.41,15-5,15-12.09V294.56c0-7.07-6.74-12.56-15-12.23l-1837,72.75a11.58,11.58,0,0,0-11,11.44V1342a11.72,11.72,0,0,0,11,11.55Z"/><path class="cls-35" d="M1415.13,1391.77c154.55-95.6,46.6-367.42,220.16-504,175-137.7,421.21,31.18,543.79-111.41,91.26-106.18-15.53-234.38,71.62-334.23,136.66-156.59,486.5,58.77,647.23-95.49,22.82-21.91,45.85-55.14,59-108.45l103.51-4.48c39.73-1.72,72.23,24.58,72.23,58.63V1519.8c0,34.06-32.5,59.83-72.23,57.46l-1837-109.52c-29.17-1.73-52.78-26.71-52.78-55.67v-18.56C1292.55,1434.9,1367.12,1421.47,1415.13,1391.77Z"/><path class="cls-36" d="M2700.75,415V1431.4c0,14.33-13.64,25.3-30.44,24.49l-1626.59-78c-13.11-.63-23.72-11.37-23.72-24V458.49Z"/><path class="cls-37" d="M1043.72,409.51l1626.59-48.36c16.8-.5,30.44,10.71,30.44,25v44.23L1020,472v-39C1020,420.45,1030.61,409.9,1043.72,409.51Z"/><path class="cls-29" d="M2630.32,395.82c0,6.33,6,11.31,13.44,11.12s13.46-5.51,13.46-11.86-6-11.33-13.46-11.12S2630.32,389.48,2630.32,395.82Z"/><path class="cls-29" d="M2572.78,701.72c14.74,7.61,29,24.36,25.73,42.79-3.28,18.69-23,30.51-38.55,34.35-21.84,5.38-29-6.59-52.49-4.87-35.45,2.59-63,33.18-74.49,55.79-11.29,22.2-2.49,27.66-9.78,53.26-12.81,44.94-52.46,72.14-90.16,98-31.35,21.51-79.06,47.35-87.63,39.37-3.06-2.85-.3-9.26,1.36-13.13,6.61-15.34,21.71-18.69,42.32-32.88,14.66-10.1,33.19-22.86,30.18-33.23-2.95-10.22-26.41-16.78-43.86-12.5s-26.84,18.91-31.36,26c-3.86,6-3.22,13.91-6.8,14.25-2.47.24-5.21-3-6.45-5.76-3.18-7.12,2.39-13.89,4.42-19.36,4.67-12.58-6.41-26.32-17.42-40-18.4-22.84-29.17-23.09-57.56-49.64-19-17.74-28.46-26.85-29.5-39.68-1.78-22,19.64-38.38,23.23-41.12,17.33-13.25,46.77-22.31,59.32-12.75,11.26,8.58-.6,24.91,12.65,37.39,9.26,8.73,25.46,10.53,38.09,7.23,17.86-4.66,28.13-19.4,29.16-32.74.21-2.63,1.15-14.79-8.21-23.18-2.67-2.39-9.15-7.14-30.95-7.91-30.58-1.07-36.94,7.65-55.17,4.13-15.18-2.93-33.47-13.37-33.25-23.69.26-12.09,25.69-13.41,54.9-40.82,11.39-10.67,20.65-19.61,19.91-31.22-1-16.34-21.3-29-25.33-31.57-15.75-9.89-29.73-17.9-29.73-17.9-3.93-2.26-9.64-5.49-9-8.61.43-2.05,3.5-3.49,9-4.89,17.34-4.41,30.64-2,30.64-2,20.66,3.7,27.25,12.4,52.58,24,10.24,4.69,27.53,12.61,51.15,17,27,5,36.28.59,49.69,9.1,13,8.2,8.87,15.2,22.2,28,14,13.38,31.07,17.76,57.69,24.59a333.59,333.59,0,0,0,59.11,9.36C2548.77,699.69,2557.31,693.73,2572.78,701.72Z"/><path class="cls-29" d="M2132.52,597.85c27.94,6.14,52.27,11.49,57.34,26.22,2.64,7.67.18,18.23-7.19,23.89-14.67,11.25-36.77-6.1-52.82,3.68-8.58,5.22-5.33,12.05-15.14,49.88-6.55,25.23-11.92,37.33-22.21,48.21-5.83,6.17-14,14.81-22.13,13.43-12-2-7.48-23.27-26.47-38.45-6.66-5.32-7.87-3.23-39.5-16.28-18.43-7.61-27.66-11.47-29.69-14.69-10.38-16.47,17.19-36.76,6.1-56.33-2.09-3.68-2.38-1.74-16.55-17-16.27-17.52-16.07-20.28-15.65-21.64,1.81-5.79,13.91-6.38,45.29-10,52.24-6,56.49-8.76,72-5.75,10.34,2,13.09,4.09,35.42,9C2118.84,595.76,2120.79,595.27,2132.52,597.85Z"/><path class="cls-29" d="M2203.37,1019.68c15.52,10.21,18.6,27.55,19.86,34.58,3.09,17.38-2.71,28.61-13.55,57-13.16,34.43-19.73,51.61-20.72,61.42-1.53,15.21,1.66,18,14.41,78.3,9.48,44.9,10.5,56.54,1.8,64.44-12.79,11.6-40.25,9.4-41.35,6.3-.53-1.51,5.39-2.62,9.86-7.54,10-11,2.79-29.87.9-34.86-7.46-19.66-21.71-28.38-44.73-48.28-27.13-23.44-44.78-38.68-57.72-60.94-6.42-11.06-20.11-35.41-15.89-66.5.85-6.26,4.41-27.41,22.09-48.29,23-27.14,54-35.23,63.12-37.48C2159.17,1013.44,2184.41,1007.22,2203.37,1019.68Z"/><path class="cls-29" d="M1940.81,906.73c9.91,16.83,20.88,35.46,25.19,52.56,3.85,15.31,7.53,50-12.18,63-17.8,11.8-38.32-4.94-63.11,8.17-12.63,6.68-18.2,16.79-24.91,29-14.42,26.2-7.54,41-13.7,74.81-2.9,15.91-12.09,66.43-35,69.34-19.07,2.42-39.8-29.2-43.26-34.48-9.18-14-12.72-28.43-19.41-56.68-9-38.06-5.67-43.29-15.16-54.11-12.2-13.92-27-15.77-30.21-29-2.38-9.71,3.3-18.32,6.7-23.63,12.6-19.62,30.17-17.18,42-36.17,6.83-10.93,8.67-24,5.91-25.3-2.48-1.16-9.33,6.76-12.65,10.6-10.21,11.79-9,16.13-15.15,22.06-12.52,12-33.63,9.62-35.21,9.42-9.68-1.21-27.07-6.41-29.2-16.5-1.64-7.76,6.29-15.94,15.83-25.76,7.7-7.94,13.47-11.31,12.53-12.86s-7.8.38-25.87,5.82c-19.58,5.89-29.35,8.83-30.73,9.53-6.58,3.35-12.18,7.91-30.6,35.35-18.63,27.76-25.4,41.74-29.63,40.5-2.1-.62-1.74-4.46-3.28-17.51-2.31-19.5-3.58-29.4-9-36.53-4.59-6-14.41-14.2-24.55-13.21-6.08.59-13.38,9.09-27.7,26-14.1,16.69-18.85,22.35-28.39,26.67-5,2.27-14,6.32-21,2.64-7.82-4.09-10.5-16.25-7.25-24.93,3.92-10.5,14.84-11.35,14.52-17.82-.45-9.23-23-15.59-25-16.13-14.54-4-18.26.25-25.7-4.09-11-6.45-15.58-23.21-12.81-36.1,2.86-13.28,12.54-18.09,9.6-23.88-2.46-4.86-10.21-3.23-25.58-6.94-11.39-2.75-28.21-6.81-37.39-18.93-5.46-7.21-6.42-14.91-7.92-26.87a106.12,106.12,0,0,1,0-23.84c1.84-17.52,5.91-18.73,4-23.84-4.28-11.21-24.88-8.12-63.89-18.57-22.27-6-38.33-13.09-39.9-10.32-2,3.48,24,13.43,25.79,31.81,1.33,13.93-11.72,28-17.2,26.61-4.53-1.11-1.26-12.06-9.37-28.11-3-5.91-7.51-14.87-17.13-20.68-11.54-7-18.34-2.13-28.71-9.55-8.29-5.93-6.2-10.64-13.14-16.9-15.73-14.15-42.19-4.15-43.89-9.39-1.57-4.85,18.83-20.18,45.43-23.72,23.7-3.16,27.36,6.34,54.32,6.34,15.35,0,34-5.8,71.33-17.46,21.16-6.6,32.19-11.09,51.44-12.27,13.41-.83,13.82,1,27.87-.21,16-1.37,35.76-3.07,51.28-15.4,12.18-9.67,8.46-15.35,18.53-21.21,16.26-9.46,38.56-2,57.53,4.7,20.18,7.08,34.53,15.77,58.87,30.53,28.37,17.19,37.89,25.76,53.62,24,11.76-1.34,14.17-7,27.38-7,10.7,0,14.06,3.7,35.86,12,21.12,8.07,31.89,12.08,41.11,10.54,14.29-2.4,14.84-11.43,30.36-17.07,16.57-6,32.4-1.7,51.77,3.57,24,6.53,47.56,13,59,31.51,12.18,19.66.88,37,14.63,45.79,11.41,7.29,23.11-2.14,33.68,5.47,12.71,9.16,8.93,32.25,6.93,44.43-3.93,24-13.7,29.83-10.39,46.68C1930.14,890.71,1932.74,893,1940.81,906.73Z"/><path class="cls-29" d="M1709.07,1103.66c5.9-.41,15.78,21.36,13.41,41.73-.14,1.21-2.09,17-7.54,17.41-5.07.38-10.35-12.73-10.89-14.09-.88-2.25-3.54-9.57-2.51-21.51C1701.83,1123.87,1703.55,1104.05,1709.07,1103.66Z"/><path class="cls-29" d="M1499,1049.5c.42.94-1.23,2.51-5.82,5.8-12.12,8.69-18.17,13-28.14,16-8.61,2.6-30,7.19-34.58,0-2.94-4.63,1.28-13.69,8-17.82,7.18-4.41,12.59-.35,29.78-.87C1486.11,1052.08,1498,1047.19,1499,1049.5Z"/><path class="cls-29" d="M1438.5,1009.23c3.54.59,2.64,7.06,9.64,21.19,3.27,6.6,5,8.37,4,10.59-2.25,4.91-15.78,7-22.49,1-6.27-5.58-3.41-15.35-2.41-18.79C1429.16,1016.77,1434.34,1008.54,1438.5,1009.23Z"/><path class="cls-29" d="M1366.63,1062.4c-2.66,3.56-7.18,7.93-18.24,12.26-3.86,1.51-32.32,12.65-39.47,3.54-2.91-3.7-1.48-9.73.79-13.34,3.51-5.6,9.94-6.83,20.49-9.21,31.49-7.12,38.62-10.74,41.19-7.32C1374.28,1052.17,1368.08,1060.46,1366.63,1062.4Z"/><path class="cls-29" d="M1420.05,982.69c3.78,1.15,3.54,17.23-3.2,29.9-3.5,6.59-9.88,14.35-12.79,13.23-3.15-1.21-1.55-12.54.8-20.18C1408.34,994.28,1416.39,981.58,1420.05,982.69Z"/><path class="cls-29" d="M1389.7,906.74c-.06-3.76-10-3-23.07-10.67-9.05-5.36-22.29-16.45-29.32-31.53-1.42-3-2.89-6.91-4-6.72-1.6.29-1.8,9.69,0,17.86,3.32,15.09,14.06,28.7,27.71,35.25,5.36,2.57,9.36,3.18,12.71,3.11C1381.22,913.88,1389.75,910.22,1389.7,906.74Z"/><path class="cls-29" d="M1416.85,1126.41c17.51,14.58,27.08,12.26,29.68,20.32,3,9.13-9.09,12.9-11.25,31.17-1.34,11.36,2.36,17.88-.8,19.47-4.79,2.41-12.69-12.88-31.22-19-1.44-.47-20.82-6.56-36.63,1.84-9.18,4.88-8,9.78-23,21.62-9.57,7.57-14.54,11.38-20.54,10.47-9.89-1.5-15.47-14.76-18.9-22.91-2.84-6.74-9.34-22.18-4.72-40.22,2-7.81,3.48-5.91,30.72-41.5,7.54-9.85,10.57-14.1,17.4-16.68,13.94-5.29,29.25,1.85,31.74,3,5.49,2.56,10.3,6.85,19.93,15.45C1410.65,1119.65,1409.94,1120.66,1416.85,1126.41Z"/><path class="cls-38" d="M2130.12,957.48c35.57.47,64.55,26.47,64.55,58.07,0,20.47-27.19,67.51-46.26,98-7.91,12.64-28.67,12.11-36.54-.9-18.92-31.23-45.7-79-45.7-99.3C2066.17,982,2094.73,957,2130.12,957.48Zm0,87.53c19.07.37,34.58-13,34.58-30s-15.51-30.89-34.58-31.17-34.41,13.13-34.41,30S2111.09,1044.63,2130.12,1045Z"/><path class="cls-39" d="M2323.57,571.07c56-.86,101.73,38.25,101.73,87.35,0,31.82-42.9,105.89-72.94,153.83-12.45,19.87-45.08,19.75-57.45-.13-29.66-47.68-71.58-120.57-71.58-151.92C2223.33,611.81,2268,571.91,2323.57,571.07Zm0,135.63c30-.16,54.44-21.59,54.44-47.86s-24.43-47.27-54.44-46.91-54,21.79-54,47.86S2293.69,706.86,2323.57,706.7Z"/><path class="cls-40" d="M1098.38,744.28v249c0,8.27-7,15-15.62,15.06l-512.28,2.93A14.24,14.24,0,0,1,556.14,997V758.79Z"/><path class="cls-41" d="M570.48,728.13l512.28-15c8.62-.25,15.62,6.24,15.62,14.51v25.51L556.14,767.28V742.87A14.85,14.85,0,0,1,570.48,728.13Z"/><path class="cls-42" d="M970.91,878.81,942.35,783C899.26,797.45,868.21,837.13,868,883.2Z"/><path class="cls-29" d="M894.5,888.84a76.62,76.62,0,0,0,28.86,54.37l44.79-57.57Z"/><path class="cls-29" d="M977.31,875.4c17.34-16.32,38.29-36.1,55-51.91a81.91,81.91,0,0,0-56.69-20.64,85.83,85.83,0,0,0-19.25,2.63Z"/><path class="cls-29" d="M980.93,881.39l63,43.71a77.9,77.9,0,0,0,14-44.48,76.12,76.12,0,0,0-20.78-52.33l-15.39,14.56C1004.77,858.94,987.68,875,980.93,881.39Z"/><path class="cls-29" d="M979.1,888.54l1.22,72.29a84.16,84.16,0,0,0,59.45-30.18Z"/><path class="cls-29" d="M972.14,891.7l-43.25,55.55A82.18,82.18,0,0,0,973.3,961Z"/><polygon class="cls-43" points="593.37 835.38 853.48 830.1 853.48 805.74 593.37 811.54 593.37 835.38"/><polygon class="cls-43" points="593.37 878.52 853.48 874.16 853.48 849.81 593.37 854.68 593.37 878.52"/><polygon class="cls-43" points="593.37 921.65 853.48 918.23 853.48 893.88 593.37 897.82 593.37 921.65"/><polygon class="cls-43" points="593.37 964.79 853.48 962.3 853.48 937.95 593.37 940.95 593.37 964.79"/><path class="cls-29" d="M1062.55,733.63a6.56,6.56,0,0,0,6.92,6.45,7,7,0,0,0,6.92-6.83,6.57,6.57,0,0,0-6.92-6.45A7,7,0,0,0,1062.55,733.63Z"/><path class="cls-40" d="M1098.38,1081.72v249c0,8.27-7,14.82-15.62,14.64l-512.28-10.84a14.71,14.71,0,0,1-14.34-14.62v-238.2Z"/><path class="cls-44" d="M570.48,1051.38l512.28-1.22c8.62,0,15.62,6.66,15.62,14.93v25.51l-542.24-.46v-24.41A14.37,14.37,0,0,1,570.48,1051.38Z"/><path class="cls-29" d="M1062.55,1070.11a6.93,6.93,0,1,0,6.92-6.64A6.78,6.78,0,0,0,1062.55,1070.11Z"/><polygon class="cls-29" points="990.66 1310.93 1030.09 1311.66 1030.09 1125.83 990.66 1125.68 990.66 1310.93"/><polygon class="cls-45" points="990.66 1310.93 1030.09 1311.66 1030.09 1223.43 990.66 1222.98 990.66 1310.93"/><polygon class="cls-29" points="936.23 1309.92 975.31 1310.64 975.31 1125.63 936.23 1125.49 936.23 1309.92"/><polygon class="cls-46" points="936.23 1309.92 975.31 1310.64 975.31 1266.72 936.23 1266.13 936.23 1309.92"/><polygon class="cls-29" points="882.26 1308.92 921 1309.63 921 1125.43 882.26 1125.29 882.26 1308.92"/><polygon class="cls-47" points="882.26 1308.92 921 1309.63 921 1286.68 882.26 1286.03 882.26 1308.92"/><polygon class="cls-29" points="828.76 1307.92 867.17 1308.64 867.17 1125.23 828.76 1125.09 828.76 1307.92"/><polygon class="cls-48" points="828.76 1307.92 867.17 1308.64 867.17 1164.96 828.76 1164.7 828.76 1307.92"/><polygon class="cls-29" points="775.73 1306.94 813.8 1307.65 813.8 1125.04 775.73 1124.9 775.73 1306.94"/><polygon class="cls-49" points="775.73 1306.94 813.8 1307.65 813.8 1180.85 775.73 1180.54 775.73 1306.94"/><polygon class="cls-29" points="723.15 1305.96 760.9 1306.66 760.9 1124.84 723.15 1124.7 723.15 1305.96"/><polygon class="cls-50" points="723.15 1305.96 760.9 1306.66 760.9 1151.28 723.15 1151.06 723.15 1305.96"/><polygon class="cls-29" points="671.02 1305 708.44 1305.69 708.44 1124.65 671.02 1124.51 671.02 1305"/><polygon class="cls-51" points="671.02 1305 708.44 1305.69 708.44 1194.49 671.02 1194.14 671.02 1305"/><polygon class="cls-29" points="619.34 1304.04 656.44 1304.73 656.44 1124.46 619.34 1124.32 619.34 1304.04"/><polygon class="cls-52" points="619.34 1304.04 656.44 1304.73 656.44 1242.14 619.34 1241.64 619.34 1304.04"/><path class="cls-53" d="M2707.4,2030.86c-.61.4-11.77,15.5-16.81,25.36l-13.88-7.45s7.83-2.78,11.76-17.91S2707.4,2030.86,2707.4,2030.86Z"/><path class="cls-54" d="M2670.92,2065.26s8.7,2.94,12.32,3.2l.37,0a6,6,0,0,0,5.26-2.4c2.14-2.87,5.23-7.21,5.28-8.42.09-1.86-4.93-5.68-9.4-7.33s-5.53-3.86-13.83-10.49-22.31-14.5-28.88-8.44S2641.54,2052.56,2670.92,2065.26Z"/><path class="cls-55" d="M2646.85,2032.36c7.21,2.87,9.39,11,21.89,19.22a172.84,172.84,0,0,0,22.1,11.8c1.68-2.39,3.27-4.85,3.31-5.71.09-1.86-4.93-5.68-9.4-7.33s-5.53-3.86-13.83-10.49-22.31-14.5-28.88-8.44a7.53,7.53,0,0,0-2.37,6.2C2641,2034.11,2643.18,2030.9,2646.85,2032.36Z"/><path class="cls-56" d="M2790,1623a1025,1025,0,0,0-105.88,404.32l23.88,9.86c15.65-10,38.6-27.52,55.52-56,27.75-46.7,8.16-70.38,30.71-126.55,21.86-54.45,49.56-55.36,73.56-114.57a255.4,255.4,0,0,0,18.22-88.3Z"/><path class="cls-57" d="M2833.71,1636.05c8.63,22.32,7.94,39.1,4.61,51.39-11.07,40.91-54.77,45.35-65.17,91.1-7,30.71,10.7,37.5,1.4,69.38-9.87,33.84-31.57,32.36-43.45,67.28-9.34,27.46.61,38.57-3.5,77.09a206.8,206.8,0,0,1-7.25,36.29,165.1,165.1,0,0,0,43.14-47.46c27.75-46.7,8.16-70.38,30.71-126.55,21.86-54.45,49.56-55.36,73.56-114.57a255.4,255.4,0,0,0,18.22-88.3Z"/><path class="cls-58" d="M3140.28,1951.65s5.89,2.21,8.5,10.45-1.66,42.46-5.38,50.87-14.7,6.4-17.9,0,1.36-51.71,1.36-51.71Z"/><path class="cls-59" d="M2793.47,1643.29a742.1,742.1,0,0,1,55.37,86.9c24.38,45,30,66.64,58.7,108.43,26.62,38.7,44.18,52.61,51.35,58,17.3,12.88,31.58,18.66,68.32,32.55q48.16,18.23,101.93,37.6c6.33.71,9-2,10.73-7.76-.59-27.35-8.82-44-15.65-53.93-14.57-21.1-29.7-21.2-74.79-53.16-24-17-36.28-25.84-46.42-39.77-4.87-6.71-12.86-19.16-25.51-66.18-5.18-19.26-11.41-45.32-16.67-76.81Z"/><path class="cls-60" d="M2752.64,1306.71s8.6-5.4,4.11-17.88-15.42-32.62-5.73-45.16c0,0-.46,21.06,6.3,23.36a13.86,13.86,0,0,1,8.62,8.17s8.9,16.47-.9,31.28l-9.81,14.8Z"/><path class="cls-61" d="M2957.88,1242.77s-7.84-4.32-10.12-9.81-2.32-14,5.45-18.51,9.45-9,12.25-12.69,9.23-4.92,9.23-4.92-11.53,21.26-12.91,24.75-7,4,0,13.94Z"/><path class="cls-62" d="M2760.13,1400.19a249.18,249.18,0,0,0,77.31,3c54.41-6.41,93.86-29.45,114.28-43.58,22.29,48.66,22.76,84.73,18.83,109-2.89,17.86-7.29,23.85-7.68,43.84-.67,33.65,11.36,38.75,17,82.48,4.65,36-2,43.85,8.47,58.84,7.54,10.75,17.55,16.08,23.51,32.89,2,5.56,6.87,19.42,1.66,23.9-8.36,7.2-29.1-21.33-67.81-25.23-20.64-2.07-23.8,5.14-45.2,1.06-23.36-4.46-21.74-13.45-43.62-17.87-21.7-4.39-28.29,3.43-61.5-.53-14-1.67-21-2.5-25.32-6.38-14.09-12.53-2.44-37.46.09-76.67,2.5-38.66-7.1-41.24-11-98.81A545.32,545.32,0,0,1,2760.13,1400.19Z"/><path class="cls-63" d="M2947.83,1241.72,2961,1227a242.4,242.4,0,0,1,72.17,59.08c19.12,23.2,36,43.69,37.82,73.41,2.61,42.6-27.56,74.49-41.6,89.33-27.68,29.26-59.6,41.5-77.85,46.77-35.36-78.48-30.11-109.13-17.59-122.22,7-7.28,16.36-9.31,25-22.83,12-18.8,9.86-40.08,8.51-53.56A125.55,125.55,0,0,0,2947.83,1241.72Z"/><path class="cls-64" d="M2841.66,1362.33c-1,5.34-1.62,16.87,5.44,26,6.19,8,15.65,10.44,19.44,11.45,9.15,2.44,14.1.47,14.59,2,1.09,3.49-21.37,19-47.36,18-15.28-.56-30.67-6.77-30.51-11.68.17-5.51,19.78-4.89,24.65-16.29,3.11-7.29-1.18-16.27-5.83-23.27C2826.3,1363.7,2837.44,1367.24,2841.66,1362.33Z"/><path class="cls-65" d="M2815.14,1363.23c-2.93-3.68-3.19-9.89.09-13.68,2.82-3.26,7.32-3.56,10-3.74,7.82-.53,17.77,2.9,21.31,9.73,2.1,4-2.22,12.1-2.89,13.55-.77,1.65-2.18,2.16-3.48,3.37-1.8,1.68-4.61,4.35-9.2,8.82a30,30,0,0,0-1.85-5,28.24,28.24,0,0,0-3.79-6C2821.21,1365.54,2817.92,1366.72,2815.14,1363.23Z"/><path class="cls-66" d="M2837.57,1377.64a16.7,16.7,0,0,1-15.33,6.55c-9.18-1-10.75-20.07-4.95-23.87,1.93-1.27,5.84-1.67,9-.71,1.88.57,2.53,1.32,5.63,2.19,2.87.8,3.67.54,4.54,1.25,1.09.89,1.91,3,.18,8.49,1.74-1.57,3.84-2.12,5.34-1.4a3.24,3.24,0,0,1,1.24,1.16C2844.58,1373.54,2842.46,1376.23,2837.57,1377.64Z"/><path class="cls-67" d="M3021.53,899.52a158.69,158.69,0,0,1,49.54,218.88c-30.3,48-157.15,124.22-242.7,171.9-35.56,19.82-78.92-7.54-76.35-48.17,6.19-97.74,20.32-245,50.63-293.07A158.69,158.69,0,0,1,3021.53,899.52ZM2891.4,1105.79a85.2,85.2,0,1,0-26.6-117.52A85.2,85.2,0,0,0,2891.4,1105.79Z"/><path class="cls-68" d="M3014.67,891a158.69,158.69,0,0,1,49.55,218.88c-30.31,48-157.16,124.22-242.7,171.9-35.56,19.82-78.93-7.54-76.36-48.17,6.2-97.74,20.33-245,50.63-293.07A158.68,158.68,0,0,1,3014.67,891Zm-130.13,206.27a85.2,85.2,0,1,0-26.6-117.52A85.19,85.19,0,0,0,2884.54,1097.22Z"/><path class="cls-69" d="M2768.45,1322l-18.69-20.57c-12-.48-80.83-2.07-130.9,50.49-25.92,27.2-59.58,80.14-41.14,112.2,5.26,9.15,13.52,14.44,112.2,31.78,71.17,12.51,83.6,12.69,93.49,3.74,26.37-23.84,4.33-85,1.87-91.62a136,136,0,0,0-24.3-7.48c-45-9.36-76.58,8.17-80.41,1.87C2677.5,1397.4,2693.18,1378.69,2768.45,1322Z"/><path class="cls-70" d="M3434.42,244.87V583.79a20.35,20.35,0,0,1-20.32,20.37H2776.17c-9.44,0-17.09-8.34-17.09-18.64v-310Z"/><path class="cls-71" d="M2776.17,235.24l637.93-32.37a19.16,19.16,0,0,1,20.32,19.35v34.72l-675.34,29.58V254.75C2759.08,244.45,2766.73,235.72,2776.17,235.24Z"/><path class="cls-29" d="M3387.27,230.5a8.51,8.51,0,0,0,9,8.59,9.53,9.53,0,0,0,9-9.44,8.5,8.5,0,0,0-9-8.59A9.52,9.52,0,0,0,3387.27,230.5Z"/><path class="cls-72" d="M3328,413.32a39,39,0,0,0-30.9-20.66l-.94-57.4c38.14.17,70.92,23.07,85.58,56.59Z"/><path class="cls-29" d="M3286.38,393.12c-18,3.25-32.06,18.64-33.74,37.34L3197.29,434c.7-50.51,39.09-93,88.16-98.22Z"/><path class="cls-29" d="M3253.07,441.28a39.29,39.29,0,0,0,39.32,32.93,40,40,0,0,0,16.38-3.82L3338.64,519a96,96,0,0,1-46.25,12.39c-49.73.46-90.12-37.59-94.68-86.64Z"/><path class="cls-29" d="M3347.86,513.14l-29.94-48.66a42,42,0,0,0,13.82-41l53.79-21.42a99,99,0,0,1,4.35,29.14A100.89,100.89,0,0,1,3347.86,513.14Z"/><path class="cls-29" d="M3122,418.35a37,37,0,0,0-29.31-20.15l-.88-55.89c36.15.2,67.23,22.53,81.12,55.17Z"/><path class="cls-73" d="M3082.52,398.65c-17.1,3.15-30.41,18.13-32,36.34L2998,438.43c.67-49.2,37.08-90.52,83.63-95.6Z"/><path class="cls-29" d="M3050.93,445.53c3.1,18.52,18.58,32.39,37.29,32.08a36.93,36.93,0,0,0,15.53-3.71l28.32,47.36a89,89,0,0,1-43.85,12c-47.17.45-85.49-36.63-89.81-84.41Z"/><path class="cls-29" d="M3140.81,515.54l-28.39-47.39a41.58,41.58,0,0,0,13.1-39.89l51-20.82a99.73,99.73,0,0,1-35.7,108.1Z"/><path class="cls-29" d="M2926.52,423.12c-5.49-10.89-15.76-18.47-27.82-19.65l-.84-54.47c34.33.23,63.82,22,77,53.81Z"/><path class="cls-29" d="M2889.07,403.9c-16.24,3.06-28.88,17.64-30.39,35.39l-49.89,3.32c.64-48,35.24-88.2,79.44-93.1Z"/><path class="cls-29" d="M2859.07,449.56c2.94,18.06,17.64,31.58,35.41,31.29a34.55,34.55,0,0,0,14.75-3.61l26.88,46.15a83,83,0,0,1-41.63,11.72c-44.79.42-81.2-35.72-85.31-82.29Z"/><path class="cls-74" d="M2944.41,517.82l-26.95-46.18a40.73,40.73,0,0,0,13.32-30.35,41.73,41.73,0,0,0-.88-8.52l48.39-20.24a98.49,98.49,0,0,1,3.91,27.63C2982.2,472.12,2967.21,500.57,2944.41,517.82Z"/><ellipse class="cls-75" cx="1669.79" cy="1845.21" rx="109.36" ry="44.63"/><path class="cls-31" d="M1779.14,1840c0,23.26-49,42.13-109.35,42.13s-109.36-18.87-109.36-42.13,49-61.35,109.36-61.35S1779.14,1816.71,1779.14,1840Z"/><path class="cls-76" d="M1779.14,1840c0-23.26-49-61.34-109.35-61.34a148.34,148.34,0,0,0-72.64,19.16,15.76,15.76,0,0,0-1.73,8.32c1.25,13.09,22.61,21.14,34.86,23.8,30.87,6.68,45.94-11.78,71.39-11.07,15.73.43,37.53,8.34,63.39,41.81C1774,1854.54,1779.14,1847.49,1779.14,1840Z"/><path class="cls-31" d="M1675.78,1807.79a24.72,24.72,0,0,1-12.29.07,7.89,7.89,0,0,1-5.86-7.69V1695.25h24.31V1800A8,8,0,0,1,1675.78,1807.79Z"/><path class="cls-77" d="M1541.29,1664.59l37.15-23.49c1.55-8.77,2-318.19,73.13-347,28.91-11.72,104.45,2.44,121.52,3.21,34.09,1.52,58.4,2.6,70.09,18.86,15,20.88-37.57,244.69-32.36,304.41,2.13,24.35,7.54,35.16.8,51.3-8.07,19.32-26.78,30-41.33,36.06a211.75,211.75,0,0,1-87.67,28c-67.36,5.9-117.66-23-134.95-34a22.29,22.29,0,0,1-15.11-16.72A19.62,19.62,0,0,1,1541.29,1664.59Z"/><path class="cls-78" d="M1780.59,1302.2c25.2.75,40.87.45,49.53,11.71,9.1,11.82-27.5,226.76-29.2,268.83-1.56,38.35,5.2,53.51-7.19,74.76a79.08,79.08,0,0,1-16.24,18.91c-35.13,28.67-125.77,28.32-163.92-31.52-30.43-47.75,9.66-323,45.42-346.29C1676.51,1287.19,1680.53,1299.24,1780.59,1302.2Z"/><path class="cls-79" d="M1538.59,1643.5l37.15-23.49s99.51-32.71,191.57,13.42a30.56,30.56,0,0,1,16.73,27.36,21.94,21.94,0,0,1-13.48,20.24,200,200,0,0,1-90.64,33.81c-68.71,7.53-119.84-23.93-135-34a22.27,22.27,0,0,1-15.1-16.72A19.62,19.62,0,0,1,1538.59,1643.5Z"/><path class="cls-80" d="M1376.66,1935l31.72-19h14.32s4.87,18.15,4.32,19c-6.38,10.46-36.07,18.41-54.61,19.06-3.07.11-7.37.13-8.47-2.1C1362.06,1948.22,1370.45,1940.3,1376.66,1935Z"/><path class="cls-81" d="M1408.94,1895.19c0,11.1-.42,18.94-3.2,22.38-2,2.43,16.85,7.89,17-1.58.06-6.24,1-16.93,2-20.07Z"/><path class="cls-82" d="M1494.63,1961.84l31.72-19.06h14.32s4.87,18.15,4.32,19.06c-6.38,10.45-36.08,18.4-54.61,19.06-3.07.11-7.37.12-8.48-2.11C1480,1975,1488.42,1967.1,1494.63,1961.84Z"/><path class="cls-83" d="M1526.91,1922c0,11.11-.42,18.94-3.2,22.39-2,2.42,16.85,7.88,17-1.59.06-6.23,1-16.92,2-20.06Z"/><path class="cls-84" d="M1407.65,1904.41c-9-54.16-.21-112,1.84-143.12,3.25-49.48,4.88-74.23,19.19-95,18.74-27.22,57.11-54.43,89.53-77.43a164.55,164.55,0,0,0,15.44-12.15,177,177,0,0,0,35.21-43.4c73.41-21.53,141.11-12.81,171,26.56,3.45,4.55,12.09,14.42,13.77,29,3.77,32.82-28.49,72.34-64.68,80.6-46,10.49-72.69-36.74-113.44-21-4.06,1.57-16.07,13.65-40.4,37.07-17.67,17-26.5,25.52-29.31,28.9-26,31.3-41.57,79.46-43.44,116.75-.33,6.61-.62,20.47-8.59,35.31-6.11,11.36-22.86,32-29,36.69Z"/><path class="cls-85" d="M1545,1931.15s-15.7,7.42-27.36,0c.39-19.63.42-50.36-2.09-88-5.5-82.26-17.14-107.13-6.81-142.26,7.46-25.35,27.49-59.89,86.59-92.18l150.1-14.72a47,47,0,0,1,5.36,27.47c-3.16,29.19-36.72,47.09-64.78,61.72-55.42,28.9-67.12,15.61-85.17,35.09-24.4,26.32-9.21,57.29-22.53,122.4A325,325,0,0,1,1545,1931.15Z"/><path class="cls-86" d="M1525.56,1548.55c-20.55-1.78-51.68-99.08-8.53-161.92,31.79-46.27,98-65.37,109.59-51.34,6.71,8.15-7.08,24.91-32.63,73C1541.56,1507,1539.4,1549.75,1525.56,1548.55Z"/><path class="cls-87" d="M1753.88,1339.83a277.58,277.58,0,0,0-81.43-13.33c-38.83-.46-69.87-.83-91.23,15.54-51.59,39.52,6.18,137.07-23.47,207.85-3.24,7.73-12.66,32.26-4.47,59.24,1.51,5,4.62,9.35,10,16.75,31.35,43.54,120.09,50.09,161.08,14.3,21.76-19,41.37-14.78,41.89-37.27C1768.27,1514.14,1753,1425.26,1753.88,1339.83Z"/><path class="cls-88" d="M1714.79,1452.32c7.46-18.37-.27-39.71,16.38-48.67,6.11-3.3,21.08-12.55,22-4.31,6.06,54.57,11.49,110.88,9.74,178.89-.58,22.46-17.59,42.93-41.64,61.85-27.77,21.85-75.4,27.65-116,18.87,53.23-28.09,91.44-57.91,86-84.66-6.38-31.12-68.55-41.84-66.06-63.69C1627.8,1487.43,1698.49,1492.42,1714.79,1452.32Z"/><path class="cls-89" d="M1668.81,1278.15a140.3,140.3,0,0,0,3,30.65c1.75,8.18,3,10.31,4.61,12,2.42,2.61,6.08,4.81,26.81,9.73,11.31,2.68,12.76,2.63,13,3.65,1.22,5-29.58,21.47-61.27,17-19.33-2.74-36.88-13-35.8-18.25s20.35-2.21,26.11-11.74c4-6.63-.49-16.16-5.79-24.06C1644.63,1288.42,1663.66,1286.87,1668.81,1278.15Z"/><path class="cls-90" d="M1628.23,1294.41c-5.93-4.34-8.86-13.61-5.47-20.67,2.92-6.07,9.59-8.37,13.58-9.75,11.59-4,28-2.91,36.13,5.94,4.82,5.25,1.62,19.17,1.19,21.64-.47,2.79-2.39,4.14-3.86,6.5-2,3.27-5.17,8.45-10.27,17.08a46.84,46.84,0,0,0-4.83-6.8,44.23,44.23,0,0,0-8.17-7.42C1638.33,1295.41,1633.85,1298.53,1628.23,1294.41Z"/><path class="cls-91" d="M1668,1307a26.12,26.12,0,0,1-20.44,16.16c-14.23,2.32-24.44-25.87-17.25-34,2.4-2.71,8.13-4.91,13.34-4.78,3.08.08,4.37,1,9.41,1,4.65,0,5.75-.68,7.35,0,2,.89,4.1,3.71,3.75,12.73,2-3.08,4.92-4.76,7.48-4.3a5.33,5.33,0,0,1,2.35,1.24C1676.86,1297.89,1674.77,1302.83,1668,1307Z"/><path class="cls-92" d="M1660.53,1283.53c-.55.61,2.18,2.45,3.27,5.67,2.1,6.26-2.75,15.45-9.73,17.71-4.12,1.34-6-.72-13.13.18a35,35,0,0,0-10,2.85c-.22,7.42,3.81,13.86,9.8,15.93,6.44,2.22,12.83-1.45,15.5-3,1.79-1,7.53-4.31,9.31-10.3,1.85-6.23-2.44-8.77.42-13.35,1.44-2.32,3.81-3.71,5.31-7.9a18,18,0,0,0,.73-2.75C1667.36,1285.91,1661.32,1282.64,1660.53,1283.53Z"/><path class="cls-93" d="M1636.73,1311.35a19.21,19.21,0,0,0,8.58-.69c.25-.07.55-.06.62,0,.25.43-2.53,3.21-5.84,3.12-2.36-.07-4.6-1.58-4.44-2.13C1635.71,1311.47,1636.22,1311.39,1636.73,1311.35Z"/><path class="cls-75" d="M1258.78,1938.27h.15a2,2,0,0,0,1.82-2V1529.72a2,2,0,0,0-3.94,0v381l-57.7-372.51a2,2,0,1,0-3.89.6l61.62,397.78A2,2,0,0,0,1258.78,1938.27Z"/><polygon class="cls-94" points="1945.87 1580.92 1269.89 1528.87 732.72 1570.35 1412.88 1627.6 1945.87 1580.92"/><polygon class="cls-75" points="1412.88 1627.6 1945.87 1580.92 1945.87 1603.46 1412.88 1650.14 732.72 1592.9 732.72 1570.35 1412.88 1627.6"/><path class="cls-75" d="M1417.47,2077a2,2,0,0,0,2-1.7L1478,1642.7a2,2,0,0,0-3.9-.53l-54.68,403.67v-403.4a2,2,0,1,0-3.94,0V2075a2,2,0,0,0,1.84,2Z"/><path class="cls-75" d="M740.15,1997.49a2,2,0,0,0,2-1.7l54.31-397.43a2,2,0,1,0-3.9-.53l-50.39,368.75V1582.36a2,2,0,0,0-3.94,0v413.16a2,2,0,0,0,1.83,2Z"/><path class="cls-75" d="M1939.47,1997.49h.14a2,2,0,0,0,1.83-2V1603.46a2,2,0,0,0-3.94,0v365.15l-53.75-365.43a2,2,0,1,0-3.89.57l57.66,392.06A2,2,0,0,0,1939.47,1997.49Z"/><path class="cls-95" d="M1698.58,1573.24l-12.54-14c32.57-42.74,58.43-61.27,76.73-70.1,12.54-6.05,12-10,12.55-11.43,3.1-8.89-31-47.93-40-59.77-16.41-21.79-31.95-59-19.86-73.9,12.58-15.53,52.65-4,73.89,6.36a121.88,121.88,0,0,1,37.65,28.52c20,22.49,58.45,83,33.87,137.56C1838.08,1567.13,1768.09,1596.56,1698.58,1573.24Z"/><polygon class="cls-96" points="1606.68 1572.86 1606.68 1567.08 1357.71 1553.66 1357.71 1559.39 1533.64 1576.7 1606.68 1572.86"/><polygon class="cls-97" points="1606.68 1567.08 1529.45 1568.06 1357.71 1553.66 1405.73 1550.72 1606.68 1567.08"/><path class="cls-98" d="M1573.67,1547.13l-70-219.08c-1.11-3.46-5.05-6-9.51-6l-306.59-5.63a15.43,15.43,0,0,0-8.73,3.51c-1.59,1.65-3.76,1.95-3.17,4.08l57.17,192.79c1,3.22,4.36,5.7,8.33,6.06l326.9,30Z"/><path class="cls-99" d="M1568.05,1552.78l-71-220.57c-1.11-3.44-5-5.94-9.48-6l-305.94-5.82a9,9,0,0,0-6.63,2.52,6.11,6.11,0,0,0-1.57,6l53.46,191.48c.92,3.3,4.43,5.85,8.49,6.17Z"/><path class="cls-100" d="M1568.05,1552.78l-332.68-26.27c-4.06-.32-7.57-2.87-8.49-6.17l-16.14-57.81c101.39,35.45,221.86,31.56,341.31,40.55Z"/><path class="cls-101" d="M1372.52,1589.68l12.62,4.36s66.34-12.46,69.23-14.49c.46-.33,2.05-3.41-.91-3.92-15.66-2.69-72.82-4.68-72.82-4.68l-5.24.3Z"/><path class="cls-102" d="M1371.62,1585.81l12.61,4.35s66.34-12.5,69.23-14.53-73.73-8.55-73.73-8.55l-5.23.31Z"/><path class="cls-103" d="M1316.76,1433.43s-32.2,138.51-33.15,146.62c-.88,7.48,78.27,14.81,97.23,15.46a9.09,9.09,0,0,0,4.3-1.47c5.25-.61-19.3-158.62-19.3-158.62l-1.81.07Z"/><path class="cls-104" d="M1316.76,1433.43s-36.61,139.91-37.56,148,93.15,14.28,101.38,14c5.24-.61-16.55-160-16.55-160Z"/><path class="cls-105" d="M1686,1567.08s-20.89-9.56-33-8.71-29,11.83-32,18.33,40.81,5.8,40.81,5.8S1714.08,1580.46,1686,1567.08Z"/><path class="cls-106" d="M1696.87,1555.91c-11.66-14.82-39.45-5.77-41-5.23-6.65,2.25-15.55,6.83-14.93,9.76s9.56,1.35,24.33,3.85c21.62,3.65,31.21,11.67,35,7.59C1703.21,1568.76,1700.69,1560.77,1696.87,1555.91Z"/><path class="cls-107" d="M679.67,1749.05s40.28,18.3,40.93,21.22-25.9-1-36.74-.56-19.76-2.78-18.78-7.37,4.78-16.14,4.78-16.14Z"/><path class="cls-108" d="M681.15,1734.19l-2.45,18.13s-6.38,2.27-10.66-.41L666.21,1732Z"/><path class="cls-109" d="M491.49,1734.63l-4.69,7.52a9,9,0,0,0-1.07,7c1.64,6.25,4.91,18.44,6.34,21.62,1.94,4.33,28,6.9,28,6.9s2.33-3.27-3.09-7.22-8.88-4.57-10.79-10.4-3.19-22.32-3.19-22.32Z"/><path class="cls-110" d="M511,1715.52c-1.72,1.36-10.08,26.77-10.08,26.77s-2.71,3.46-7.86-1.65-2.33-2.29-2.33-2.29l1-25Z"/><path class="cls-111" d="M703.3,1369.9c2.13,54.09,2.22,112.86-.9,175.63-3.5,70.7-10.54,136-19.42,195.26-3.29.11-6.76.13-10.38,0-2.45-.06-4.82-.18-7.11-.34a450,450,0,0,1-14.92-47.72,459.66,459.66,0,0,1-10.42-55.88c-7.75-61.26,1.34-66.61-5-112-5.57-40.21-13.5-41.78-22.81-98.87-10.09-61.94-2.58-71.23,1.08-74.59C629,1337.11,665.57,1346.84,703.3,1369.9Z"/><path class="cls-112" d="M613.46,1351.4c14.84-13.63,48.78-5.38,84.63,15.42-41.24,44.56-45.74,73.46-40.79,92.22,5.58,21.19,22.57,27.3,22.51,50.47-.08,28.49-25.79,36-25.24,66.17.36,19.93,11.66,19.72,14.32,44.34,3.16,29.12-11.6,39.16-6.82,60.71,2.06,9.27,7.93,21.38,24.64,33.86-1.2,8.85-2.44,17.61-3.73,26.21-3.29.1-6.76.12-10.38,0-2.45-.06-4.82-.18-7.11-.34a450,450,0,0,1-14.92-47.72,459.66,459.66,0,0,1-10.42-55.88c-7.75-61.26,1.34-66.61-5-112-5.57-40.21-13.5-41.78-22.8-98.87C602.29,1364.05,609.8,1354.75,613.46,1351.4Z"/><path class="cls-113" d="M677.76,1369a1214.39,1214.39,0,0,0-166.5,356.36,21.66,21.66,0,0,1-11.89,1.84,22.13,22.13,0,0,1-13.46-7.27,350,350,0,0,1-3.09-86.25c1.22-13.73,3.38-36.59,12.13-64.82,9.8-31.62,16.54-33.4,29.33-66.85,13.28-34.72,10.06-43.39,22.77-86.84A574.07,574.07,0,0,1,575.44,1339Z"/><path class="cls-114" d="M845.71,999.16s6.89-8.25,11.28-14.4,24.64-23.23,24.64-23.23,1.46,2.81-2.92,7.17-13.54,11.79-11.54,15.06S874.93,990,870.6,996s-11.56,1.68-15.4,6.48-7.79,10-7.79,10Z"/><path class="cls-115" d="M844.74,990.49l13.8,17.31c-5.88,25.43-18.41,63.75-47.55,101-30.88,39.46-96.75,98.55-137.75,79.18-25-11.81-58.74-52.33-46.61-71.86,11.65-18.78,62.1-9.91,96.74-17.73C757.32,1090.7,801.4,1066,844.74,990.49Z"/><path class="cls-116" d="M528.14,1140.49s-26.87,91.45-10.22,126.64,69.72-3.46,69.72-3.46Z"/><path class="cls-117" d="M533.11,1140.6s-26.87,91.45-10.22,126.64,69.72-3.46,69.72-3.46Z"/><path class="cls-118" d="M611.69,1106.67c34.51-.62,61.1.5,75.79,15.84,15.52,16.21-.9,33.76,1.64,75.31,3.89,63.61,44,80,45.65,144.5a164.17,164.17,0,0,1-6.59,50,173.07,173.07,0,0,1-45.73,38.74c-31.63,18.31-49.66,14.6-94.76,25.9-73.76,18.47-80.81,42.22-117,35.34-36.61-7-68.18-38.58-63.91-55.48,2.55-10.12,17.3-6.91,34.7-22,22.42-19.52,14.35-38.78,31.53-59.9,24.68-30.34,57.71-10.74,78.75-37,21.29-26.6,14.24-80.09-2.57-109.53-11-19.23-15.37-41.57-24.63-61.69a13.77,13.77,0,0,1-1.16-7.78c1.85-12.92,23.61-19.48,40.09-24.28A195.39,195.39,0,0,1,611.69,1106.67Z"/><path class="cls-119" d="M645.29,1106l-6.76-2.24s-2,9.17-23.87,9.84a32.68,32.68,0,0,1-19.84-7.23l-4.72,3.28s9.92,13,26.14,13A32.54,32.54,0,0,0,645.29,1106Z"/><path class="cls-120" d="M639.75,1076.38c1.85-10-3.78-18.65-5-20.51-5.18-7.76-6.42-8.78-8.66-10l-3.1-1.54-.36-.1c-2-.5-8.39-.11-9.67.29-4.07,1.27-7,18.61-3.5,42.44-.17,1.87-.33,3.74-.5,5.61-9.28-1.28-12-.4-12.44.85-1,2.69,5.43,18.41,14.27,21.51,11.09,3.88,26.53-6.24,27.46-9.9.37-1.49.31-.21-7.24-4.58-.7-2.19-2.86-8.13-3.55-10.32C629.05,1089.1,638.38,1083.77,639.75,1076.38Z"/><path class="cls-121" d="M627.1,1068.3c-2.05-2.33-5,.31-4.75,3.55s3.71,6.31,6.69,5.39S629.85,1071.44,627.1,1068.3Z"/><path class="cls-122" d="M298.55,962.51C343.57,937,418,972,451.71,1014.9c15.67,19.95,20.8,39.22,44,48.17,17.65,6.8,48.42,9.24,69.74-5.38,2.69-1.84,13.59-9.69,29.16-19,6.86-4.1,13.59-7.86,21.72-6.58,2.07.33,9,1.37,11.92,7,2.41,4.55,1.35,10.78-1.07,14.74-1.45,2.36-2.33,2.38-2.76,4.09-1.2,4.83,6.74,9.65,5.49,11.87-.88,1.59-5.16-.47-6.62,1.41-1.59,2.07,2.67,5.66,2.9,12.22,3.1,3.92,3.48,11.31,1.5,20.41-2.9,13.37-7.59,23.48-12.6,30.63-24.12,34.38-41.37,59-66.75,67.65-33.6,11.47-52-15-120-40.17-93.11-34.42-127-10-153.83-42.81C241,1078.17,251.8,989,298.55,962.51Z"/><g class="cls-123"><path class="cls-124" d="M496.58,1437.71c34.7-23.06,66.12,3.32,90.66-17,20.21-16.73,3.64-38.55,25.5-68,24-32.29,57.24-24,65.16-48.16,8.2-24.94-24.67-41.87-25.5-76.5-.41-17.67,7.52-40.69,39.22-68.3a158.67,158.67,0,0,0-2.5,38.07c3.89,63.61,44,80,45.65,144.5a164.17,164.17,0,0,1-6.59,50,173.07,173.07,0,0,1-45.73,38.74c-31.63,18.31-49.66,14.6-94.76,25.9-73.76,18.47-80.81,42.22-117,35.34A96.06,96.06,0,0,1,441,1481.09a57.52,57.52,0,0,0,24.41-9.38C481.26,1460.73,478.48,1449.73,496.58,1437.71Z"/></g></g></g></svg>