<svg xmlns="http://www.w3.org/2000/svg" xmlns:xlink="http://www.w3.org/1999/xlink" viewBox="0 0 3057.7 2444.94"><defs><style>.cls-1{fill:url(#linear-gradient);}.cls-2{fill:url(#linear-gradient-2);}.cls-3{fill:url(#linear-gradient-3);}.cls-4{fill:none;}.cls-5{isolation:isolate;}.cls-6{fill:#6165d7;opacity:0.19;}.cls-20,.cls-23,.cls-26,.cls-31,.cls-35,.cls-51,.cls-57,.cls-6,.cls-78,.cls-85,.cls-92{mix-blend-mode:multiply;}.cls-7{clip-path:url(#clip-path);}.cls-8{opacity:0.5;}.cls-21,.cls-8,.cls-82{mix-blend-mode:soft-light;}.cls-21,.cls-9{fill:#fff;}.cls-10{clip-path:url(#clip-path-2);}.cls-11{clip-path:url(#clip-path-3);}.cls-12,.cls-13,.cls-14,.cls-15,.cls-17{opacity:0.61;}.cls-12{fill:url(#linear-gradient-7);}.cls-13{fill:url(#linear-gradient-8);}.cls-14{fill:url(#linear-gradient-9);}.cls-15{fill:url(#linear-gradient-10);}.cls-16,.cls-20{fill:#d8dee8;}.cls-17{fill:url(#linear-gradient-11);}.cls-18{fill:#97a6b7;}.cls-19{fill:url(#linear-gradient-12);}.cls-20,.cls-23,.cls-26,.cls-31,.cls-35,.cls-51,.cls-57,.cls-78,.cls-82,.cls-85,.cls-92{opacity:0.3;}.cls-21{opacity:0.6;}.cls-22{fill:url(#linear-gradient-13);}.cls-23{fill:url(#linear-gradient-14);}.cls-24{fill:url(#linear-gradient-15);}.cls-25{fill:url(#linear-gradient-16);}.cls-26{fill:url(#linear-gradient-17);}.cls-27{fill:url(#linear-gradient-18);}.cls-28{fill:url(#linear-gradient-19);}.cls-29{clip-path:url(#clip-path-4);}.cls-30{fill:url(#linear-gradient-20);}.cls-31{fill:url(#linear-gradient-21);}.cls-32{fill:url(#linear-gradient-22);}.cls-33{fill:url(#linear-gradient-23);}.cls-34{fill:url(#linear-gradient-25);}.cls-36{fill:url(#linear-gradient-26);}.cls-37{fill:url(#linear-gradient-27);}.cls-38{fill:url(#linear-gradient-28);}.cls-39{fill:url(#linear-gradient-29);}.cls-40{fill:url(#linear-gradient-30);}.cls-41{fill:url(#linear-gradient-31);}.cls-42{fill:url(#linear-gradient-32);}.cls-43{fill:url(#linear-gradient-33);}.cls-44{fill:url(#linear-gradient-34);}.cls-45{fill:url(#linear-gradient-35);}.cls-46{fill:url(#linear-gradient-36);}.cls-47{fill:url(#linear-gradient-37);}.cls-48{fill:url(#linear-gradient-38);}.cls-49{fill:url(#linear-gradient-39);}.cls-50{fill:url(#linear-gradient-40);}.cls-51{fill:url(#linear-gradient-41);}.cls-52{fill:url(#linear-gradient-42);}.cls-53{fill:url(#linear-gradient-43);}.cls-54{fill:url(#linear-gradient-44);}.cls-55{fill:url(#linear-gradient-45);}.cls-56{fill:url(#linear-gradient-46);}.cls-57{fill:url(#linear-gradient-47);}.cls-58{fill:url(#linear-gradient-48);}.cls-59{fill:url(#linear-gradient-49);}.cls-60{fill:url(#linear-gradient-50);}.cls-61{fill:url(#linear-gradient-51);}.cls-62{fill:url(#linear-gradient-52);}.cls-63{fill:url(#linear-gradient-53);}.cls-64{fill:url(#linear-gradient-54);}.cls-65{fill:url(#linear-gradient-55);}.cls-66{fill:url(#linear-gradient-56);}.cls-67{fill:url(#linear-gradient-57);}.cls-68{fill:url(#linear-gradient-58);}.cls-69{fill:url(#linear-gradient-59);}.cls-70{fill:url(#linear-gradient-60);}.cls-71{fill:url(#linear-gradient-61);}.cls-72{fill:url(#linear-gradient-62);}.cls-73{fill:#26264f;}.cls-74{fill:url(#linear-gradient-63);}.cls-75{fill:#9b305e;}.cls-76{fill:url(#linear-gradient-64);}.cls-77{fill:url(#linear-gradient-65);}.cls-78{fill:url(#linear-gradient-66);}.cls-79{fill:url(#linear-gradient-67);}.cls-80{fill:url(#linear-gradient-68);}.cls-81{fill:url(#linear-gradient-69);}.cls-82{fill:#f4f7fa;}.cls-83{fill:url(#linear-gradient-70);}.cls-84{fill:url(#linear-gradient-71);}.cls-85{fill:url(#linear-gradient-72);}.cls-86{fill:url(#linear-gradient-73);}.cls-87{fill:url(#linear-gradient-74);}.cls-88{fill:url(#linear-gradient-75);}.cls-89{fill:url(#linear-gradient-76);}.cls-90{fill:url(#linear-gradient-77);}.cls-91{fill:url(#linear-gradient-78);}.cls-92{fill:url(#linear-gradient-79);}</style><linearGradient id="linear-gradient" x1="1520.05" y1="1035.67" x2="2260.34" y2="1035.67" gradientUnits="userSpaceOnUse"><stop offset="0" stop-color="#aa80f9"/><stop offset="1" stop-color="#6165d7"/></linearGradient><linearGradient id="linear-gradient-2" x1="2191.09" y1="954.75" x2="1946.61" y2="1611.01" gradientUnits="userSpaceOnUse"><stop offset="0" stop-color="#e38ddd"/><stop offset="1" stop-color="#9571f6"/></linearGradient><linearGradient id="linear-gradient-3" x1="1574.71" y1="1541.41" x2="2206.71" y2="1541.41" gradientUnits="userSpaceOnUse"><stop offset="0" stop-color="#ff9085"/><stop offset="1" stop-color="#fb6fbb"/></linearGradient><clipPath id="clip-path"><path class="cls-1" d="M1520.05,1627c57.15-53.63,132.57-140.74,166.7-263.91,44.75-161.54-20.83-243.17-13.44-516.65,4.68-172.92,9.68-293.55,96.86-358.07,68.32-50.56,178.92-60.62,246-13.75,55.81,39,88.1,121.85,97.95,181,8,48.22,1.58,83.23,29.38,108.63,28.4,25.95,59.06,11.26,85.62,30.48,53.87,39,22.68,168.14,17.64,189-56.07,232.19-270,388.79-364.16,456C1804.8,1495.23,1684.38,1569.25,1520.05,1627Z"/></clipPath><clipPath id="clip-path-2"><path class="cls-2" d="M1539.6,1613.66c111.14,54.44,260.49,107.93,426.28,111.9,42.31,1,303.69,7.27,325.4-102.69,7.65-38.73-20.89-59.17-11.57-111.14,11.05-61.57,58.2-72.29,114.42-128.59,33.54-33.59,131.71-131.91,92.41-231.44-23.48-59.47-95-116.69-163.09-131.87-99.87-22.27-172.82,50.26-294.12,175.12-107.53,110.69-111.8,148.51-190.62,226.86C1780.21,1480,1687.13,1554,1539.6,1613.66Z"/></clipPath><clipPath id="clip-path-3"><path class="cls-3" d="M1576.94,1735c-2.48-20.16-15.27-139.24,65.37-220.81,67.51-68.3,163.8-73.19,186.11-74.33,89.82-4.56,116,34.7,169.19,10.48,63.14-28.76,60.81-99.88,112.82-106.64,35.88-4.67,75,24.25,89.24,56.67,25,56.9-20.39,138.18-79,174.24-80.74,49.68-143-13.22-239.14,38.45-55.88,30-51.77,60.36-110.1,93.47C1703.69,1744.93,1629.62,1742.93,1576.94,1735Z"/></clipPath><linearGradient id="linear-gradient-7" x1="1010.78" y1="218.66" x2="987.02" y2="699.79" gradientTransform="translate(-165.39)" xlink:href="#linear-gradient-2"/><linearGradient id="linear-gradient-8" x1="333.14" y1="893.9" x2="989.84" y2="893.9" gradientTransform="translate(-165.39)" xlink:href="#linear-gradient-2"/><linearGradient id="linear-gradient-9" x1="1757.42" y1="670.97" x2="1460.43" y2="219.55" gradientTransform="translate(-165.39)" xlink:href="#linear-gradient-2"/><linearGradient id="linear-gradient-10" x1="1807.09" y1="345.31" x2="2667.93" y2="345.31" gradientTransform="translate(-165.39)" xlink:href="#linear-gradient-2"/><linearGradient id="linear-gradient-11" x1="2398.71" y1="638.49" x2="3055.4" y2="638.49" gradientTransform="translate(-165.39)" xlink:href="#linear-gradient-2"/><linearGradient id="linear-gradient-12" x1="1664.45" y1="1601.57" x2="1664.45" y2="1772.39" gradientTransform="translate(-165.39)" gradientUnits="userSpaceOnUse"><stop offset="0.49" stop-color="#ebeff2"/><stop offset="1" stop-color="#fff"/></linearGradient><linearGradient id="linear-gradient-13" x1="-1766.98" y1="1389.92" x2="-2047.94" y2="1721.27" gradientTransform="translate(2416.03)" gradientUnits="userSpaceOnUse"><stop offset="0" stop-color="#311944"/><stop offset="1" stop-color="#893976"/></linearGradient><linearGradient id="linear-gradient-14" x1="-1801.59" y1="1360.58" x2="-2082.55" y2="1691.93" xlink:href="#linear-gradient-13"/><linearGradient id="linear-gradient-15" x1="-715.01" y1="1154.68" x2="-941.8" y2="1422.14" gradientTransform="matrix(-1, 0, 0, 1, -537.59, 0)" xlink:href="#linear-gradient-13"/><linearGradient id="linear-gradient-16" x1="-1637.25" y1="781.91" x2="-1377.96" y2="2216.1" gradientTransform="translate(2416.03)" xlink:href="#linear-gradient"/><linearGradient id="linear-gradient-17" x1="-1725.97" y1="784.54" x2="-1463.45" y2="2236.58" gradientTransform="translate(2416.03)" xlink:href="#linear-gradient"/><linearGradient id="linear-gradient-18" x1="-1648.15" y1="984.11" x2="-2164.65" y2="1593.24" gradientTransform="matrix(-1, 0, 0, 1, -537.59, 0)" xlink:href="#linear-gradient-2"/><linearGradient id="linear-gradient-19" x1="-1611.98" y1="1281.18" x2="-2109.89" y2="1293.86" gradientTransform="matrix(-1, 0, 0, 1, -537.59, 0)" xlink:href="#linear-gradient-13"/><clipPath id="clip-path-4"><path class="cls-4" d="M1368.82,1757.09c27.26,0,54-11.44,79.61-34,26-22.95,49.55-56.16,70-98.69,42.86-89.4,66.47-208.63,66.47-335.73s-23.61-246.34-66.47-335.74c-20.4-42.53-43.93-75.73-70-98.69-25.57-22.55-52.35-34-79.61-34s-54,11.44-79.61,34c-26,23-49.56,56.16-70,98.69-42.87,89.4-66.48,208.64-66.48,335.74s23.61,246.33,66.48,335.73c20.39,42.53,43.93,75.74,70,98.69C1314.77,1745.65,1341.56,1757.09,1368.82,1757.09Z"/></clipPath><linearGradient id="linear-gradient-20" x1="-1290.14" y1="827.23" x2="-1120.85" y2="1763.63" gradientTransform="translate(2416.03)" gradientUnits="userSpaceOnUse"><stop offset="0" stop-color="#ffc444"/><stop offset="1" stop-color="#f36f56"/></linearGradient><linearGradient id="linear-gradient-21" x1="-1192.52" y1="947.86" x2="-1067.61" y2="1638.78" xlink:href="#linear-gradient-20"/><linearGradient id="linear-gradient-22" x1="-4029.87" y1="-839.09" x2="-5413.56" y2="2620.12" gradientTransform="matrix(-1, 0, 0, 1, -2721.59, 0)" xlink:href="#linear-gradient-13"/><linearGradient id="linear-gradient-23" x1="-4886.49" y1="485.02" x2="-4250.9" y2="1663.84" gradientTransform="matrix(-1, 0, 0, 1, -2721.59, 0)" xlink:href="#linear-gradient-3"/><linearGradient id="linear-gradient-25" x1="-3909.72" y1="89.79" x2="-3314.65" y2="1193.47" gradientTransform="matrix(-0.99, -0.15, -0.15, 0.99, -1729.83, -190.09)" xlink:href="#linear-gradient-3"/><linearGradient id="linear-gradient-26" x1="-5058.41" y1="550.57" x2="-4430.73" y2="1810.17" gradientTransform="matrix(-1, 0, 0, 1, -2721.59, 0)" xlink:href="#linear-gradient-3"/><linearGradient id="linear-gradient-27" x1="2643.39" y1="404.27" x2="2882.09" y2="460.65" gradientTransform="translate(-165.39)" xlink:href="#linear-gradient"/><linearGradient id="linear-gradient-28" x1="-5398.53" y1="339.46" x2="-5193.89" y2="719" gradientTransform="matrix(-1, 0, 0, 1, -2721.59, 0)" xlink:href="#linear-gradient"/><linearGradient id="linear-gradient-29" x1="-5458.51" y1="364.53" x2="-5257.97" y2="766.96" gradientTransform="matrix(-1, 0, 0, 1, -2721.59, 0)" xlink:href="#linear-gradient"/><linearGradient id="linear-gradient-30" x1="2777.07" y1="804.36" x2="2934.17" y2="984.15" gradientTransform="translate(-165.39)" xlink:href="#linear-gradient-20"/><linearGradient id="linear-gradient-31" x1="-5554.92" y1="832.55" x2="-5248.26" y2="1401.31" gradientTransform="matrix(-1, 0, 0, 1, -2721.59, 0)" xlink:href="#linear-gradient-20"/><linearGradient id="linear-gradient-32" x1="-5640.35" y1="862.69" x2="-5337.96" y2="1469.5" gradientTransform="matrix(-1, 0, 0, 1, -2721.59, 0)" xlink:href="#linear-gradient-20"/><linearGradient id="linear-gradient-33" x1="2328.45" y1="1189.95" x2="2590.62" y2="1204" gradientTransform="translate(-165.39)" xlink:href="#linear-gradient"/><linearGradient id="linear-gradient-34" x1="-5065.38" y1="1084.01" x2="-4840.12" y2="1501.8" gradientTransform="matrix(-1, 0, 0, 1, -2721.59, 0)" xlink:href="#linear-gradient"/><linearGradient id="linear-gradient-35" x1="-5130.55" y1="1108.77" x2="-4908.68" y2="1554.01" gradientTransform="matrix(-1, 0, 0, 1, -2721.59, 0)" xlink:href="#linear-gradient-2"/><linearGradient id="linear-gradient-36" x1="2632.72" y1="1367.25" x2="2639.67" y2="1407.78" gradientTransform="translate(-165.39)" xlink:href="#linear-gradient-20"/><linearGradient id="linear-gradient-37" x1="-3488.44" y1="2590.24" x2="-3481.49" y2="2630.78" gradientTransform="matrix(-0.92, 0.39, 0.39, 0.92, -1645.72, 323.05)" xlink:href="#linear-gradient-20"/><linearGradient id="linear-gradient-38" x1="-3928.4" y1="2328.66" x2="-3873.8" y2="2647.04" gradientTransform="matrix(-0.96, 0.28, 0.28, 0.96, -1821.73, 247.48)" xlink:href="#linear-gradient-3"/><linearGradient id="linear-gradient-39" x1="-5216.67" y1="2176.5" x2="-5216.67" y2="2026.81" gradientTransform="matrix(-1, 0.04, 0.04, 1, -2722.46, 30.09)" xlink:href="#linear-gradient-20"/><linearGradient id="linear-gradient-40" x1="-5230.65" y1="1888.9" x2="-5242.83" y2="2163.02" gradientTransform="matrix(-1, 0.04, 0.04, 1, -2722.46, 30.09)" xlink:href="#linear-gradient-13"/><linearGradient id="linear-gradient-41" x1="-5230.65" y1="1888.9" x2="-5242.83" y2="2163.02" gradientTransform="matrix(-1, 0.04, 0.04, 1, -2722.46, 30.09)" xlink:href="#linear-gradient-13"/><linearGradient id="linear-gradient-42" x1="-5204.3" y1="2177.28" x2="-5229.34" y2="2094.7" gradientTransform="matrix(-1, 0.04, 0.04, 1, -2722.46, 30.09)" xlink:href="#linear-gradient-3"/><linearGradient id="linear-gradient-43" x1="-1971.8" y1="3766.39" x2="-1971.8" y2="3633.72" gradientTransform="matrix(-0.65, 0.76, 0.76, 0.65, -1556.35, 931.04)" xlink:href="#linear-gradient-20"/><linearGradient id="linear-gradient-44" x1="-1962.58" y1="3771.41" x2="-1987.63" y2="3688.83" gradientTransform="matrix(-0.65, 0.76, 0.76, 0.65, -1556.35, 931.04)" xlink:href="#linear-gradient-3"/><linearGradient id="linear-gradient-45" x1="2838.88" y1="1788.09" x2="2583.37" y2="1776.47" gradientTransform="translate(-165.39)" xlink:href="#linear-gradient-13"/><linearGradient id="linear-gradient-46" x1="2737.36" y1="1386.51" x2="2800.89" y2="1756.99" gradientTransform="translate(-165.39)" xlink:href="#linear-gradient-3"/><linearGradient id="linear-gradient-47" x1="5512.01" y1="2616.08" x2="5635.72" y2="2870.48" gradientTransform="translate(-3464.98 123.29) rotate(-12.03)" xlink:href="#linear-gradient-3"/><linearGradient id="linear-gradient-48" x1="-5200.96" y1="1625" x2="-5229.53" y2="1671.22" gradientTransform="matrix(-1, 0.04, 0.04, 1, -2722.46, 30.09)" xlink:href="#linear-gradient-20"/><linearGradient id="linear-gradient-49" x1="2630.48" y1="1429.86" x2="2685.08" y2="1748.23" gradientTransform="translate(-165.39)" xlink:href="#linear-gradient-3"/><linearGradient id="linear-gradient-50" x1="-5359.64" y1="1818.59" x2="-5244.13" y2="1571.78" gradientTransform="matrix(-1, 0.04, 0.04, 1, -2722.46, 30.09)" gradientUnits="userSpaceOnUse"><stop offset="0" stop-color="#444b8c"/><stop offset="1" stop-color="#26264f"/></linearGradient><linearGradient id="linear-gradient-51" x1="-5968.66" y1="1273.04" x2="-5938.81" y2="1341.74" gradientTransform="matrix(-1, 0, 0, 1, -3773.36, 0)" xlink:href="#linear-gradient-20"/><linearGradient id="linear-gradient-52" x1="-5892.32" y1="1322.4" x2="-5771.22" y2="1601.11" gradientTransform="matrix(-1, 0, 0, 1, -3773.36, 0)" xlink:href="#linear-gradient-2"/><linearGradient id="linear-gradient-53" x1="-3101.62" y1="1605.55" x2="-3061.4" y2="1444.67" gradientTransform="matrix(-1, 0, 0, 1, -1164.28, 0)" xlink:href="#linear-gradient-2"/><linearGradient id="linear-gradient-54" x1="-3211.43" y1="1498.71" x2="-3192.35" y2="1515.68" gradientTransform="matrix(-0.99, -0.14, -0.14, 0.99, -1071.2, 44.62)" xlink:href="#linear-gradient-50"/><linearGradient id="linear-gradient-55" x1="-4118.32" y1="1515.69" x2="-4118.32" y2="1482.45" gradientTransform="matrix(-0.99, -0.14, -0.14, 0.99, -1987.4, -84.9)" xlink:href="#linear-gradient-20"/><linearGradient id="linear-gradient-56" x1="-3209.51" y1="1496.55" x2="-3190.43" y2="1513.52" gradientTransform="matrix(-0.99, -0.14, -0.14, 0.99, -1071.2, 44.62)" xlink:href="#linear-gradient-50"/><linearGradient id="linear-gradient-57" x1="-3198.26" y1="1988.78" x2="-3179.18" y2="2005.75" gradientTransform="matrix(-1, 0, 0, 1, -1164.28, 0)" xlink:href="#linear-gradient-50"/><linearGradient id="linear-gradient-58" x1="-4105.19" y1="2005.79" x2="-4105.19" y2="1972.55" gradientTransform="matrix(-1, 0, 0, 1, -2089.59, 0)" xlink:href="#linear-gradient-20"/><linearGradient id="linear-gradient-59" x1="3159.32" y1="2021.03" x2="3034.91" y2="1518.71" gradientTransform="translate(-1142.16)" xlink:href="#linear-gradient-50"/><linearGradient id="linear-gradient-60" x1="-5857.48" y1="1293.27" x2="-5724.08" y2="1600.28" gradientTransform="matrix(-1, 0, 0, 1, -3773.36, 0)" xlink:href="#linear-gradient-2"/><linearGradient id="linear-gradient-61" x1="-3196.34" y1="1986.63" x2="-3177.26" y2="2003.6" gradientTransform="matrix(-1, 0, 0, 1, -1164.28, 0)" xlink:href="#linear-gradient-50"/><linearGradient id="linear-gradient-62" x1="-2333.1" y1="2695.17" x2="-2234.27" y2="2819.51" gradientTransform="matrix(-0.97, 0.26, 0.26, 0.97, -951.63, -632.93)" xlink:href="#linear-gradient-20"/><linearGradient id="linear-gradient-63" x1="-2326.41" y1="2688.88" x2="-2223.09" y2="2818.87" gradientTransform="matrix(-0.97, 0.26, 0.26, 0.97, -951.63, -632.93)" xlink:href="#linear-gradient-20"/><linearGradient id="linear-gradient-64" x1="-3585.99" y1="1121.32" x2="-3332.21" y2="1121.32" gradientTransform="matrix(-1, 0, 0, 1, -2566.21, 0)" xlink:href="#linear-gradient-50"/><linearGradient id="linear-gradient-65" x1="3964.23" y1="322.99" x2="3975.2" y2="520.44" gradientTransform="matrix(0.96, 0.29, -0.29, 0.96, -2895.8, -63.53)" xlink:href="#linear-gradient-50"/><linearGradient id="linear-gradient-66" x1="-3466.7" y1="1130.87" x2="-3212.91" y2="1130.87" gradientTransform="matrix(-1, 0, 0, 1, -2566.21, 0)" gradientUnits="userSpaceOnUse"><stop offset="0" stop-color="#444b8c"/><stop offset="1" stop-color="#3e4177"/></linearGradient><linearGradient id="linear-gradient-67" x1="935.44" y1="1423.87" x2="943.62" y2="1448.9" gradientTransform="translate(-165.39)" gradientUnits="userSpaceOnUse"><stop offset="0" stop-color="#311944"/><stop offset="1" stop-color="#a03976"/></linearGradient><linearGradient id="linear-gradient-68" x1="-3450.48" y1="963.75" x2="-3222.93" y2="1240.23" gradientTransform="matrix(-1, 0, 0, 1, -2566.21, 0)" xlink:href="#linear-gradient-50"/><linearGradient id="linear-gradient-69" x1="1760.21" y1="1373.92" x2="1713.75" y2="1288.98" gradientTransform="translate(-1235.78 -32.4) rotate(-23.05)" xlink:href="#linear-gradient-50"/><linearGradient id="linear-gradient-70" x1="1723.03" y1="889.06" x2="1692" y2="834.17" gradientTransform="matrix(0.99, -0.15, 0.15, 0.99, -889.03, -28.24)" xlink:href="#linear-gradient-67"/><linearGradient id="linear-gradient-71" x1="976.31" y1="604.22" x2="583.67" y2="1250.92" gradientTransform="translate(-165.39)" xlink:href="#linear-gradient-20"/><linearGradient id="linear-gradient-72" x1="786.69" y1="727.98" x2="1086.69" y2="727.98" gradientTransform="translate(-165.39)" xlink:href="#linear-gradient-20"/><linearGradient id="linear-gradient-73" x1="-427.37" y1="228.93" x2="-767.49" y2="513.74" gradientTransform="matrix(-0.92, -0.4, -0.4, 0.92, -84.42, -11.9)" xlink:href="#linear-gradient-50"/><linearGradient id="linear-gradient-74" x1="956.17" y1="591.99" x2="563.53" y2="1238.69" gradientTransform="translate(-165.39)" xlink:href="#linear-gradient-20"/><linearGradient id="linear-gradient-75" x1="759.12" y1="472.35" x2="366.48" y2="1119.06" gradientTransform="translate(-165.39)" xlink:href="#linear-gradient-20"/><linearGradient id="linear-gradient-76" x1="-1315.66" y1="881.51" x2="-1364.39" y2="705.23" gradientTransform="matrix(-1, 0.03, 0.03, 1, -751.79, -61.19)" xlink:href="#linear-gradient-67"/><linearGradient id="linear-gradient-77" x1="-1191.57" y1="610.65" x2="-1346.07" y2="739.24" gradientTransform="matrix(-1, 0.03, 0.03, 1, -751.79, -61.19)" xlink:href="#linear-gradient-67"/><linearGradient id="linear-gradient-78" x1="-1158.53" y1="1170.28" x2="-1239.42" y2="1270.87" gradientTransform="translate(716.59 2402.65) rotate(120.16)" xlink:href="#linear-gradient-67"/><linearGradient id="linear-gradient-79" x1="469.4" y1="923.35" x2="740.3" y2="923.35" gradientTransform="translate(-165.39)" xlink:href="#linear-gradient-20"/></defs><title>2</title><g class="cls-5"><g id="Illustration"><path class="cls-6" d="M1511.05,1692.11c-356.18,5.49-756.94,44.12-759.39,102-1.6,37.79,175.13,60.53,172.85,99.18-4.52,76.54-657.15,50.09-665.88,127.5-9.81,87,789.46,357,1451.35,147.53,20.52-6.5,68.34-27.46,139.07-45.88,194.9-50.77,297.36-22.72,544.43-31.15,125.61-4.29,395.73-13.5,404.72-73.52,4.56-30.43-59.64-63.76-98.93-83.16C2197,1686.76,1613.67,1690.53,1511.05,1692.11Z"/><path class="cls-6" d="M901.84,1989.64c-313.82,33.46-480.19.43-484.53,31.16C411.46,2062.17,711,2134,735,2139.65c268.66,63.61,709.29,119.06,744.12,14.34,16.53-49.7-62.34-123.41-121.1-158.69C1241.63,1925.41,1134.89,1964.79,901.84,1989.64Z"/><path class="cls-6" d="M1420.38,1714.78c-199.42.75-460.48,32.38-461.87,76.51-1.3,41.43,226.41,90.4,422.2,99.17,265.82,11.91,547.81-46.93,546.87-93.51C1926.64,1750.19,1640.46,1714,1420.38,1714.78Z"/><path class="cls-1" d="M1520.05,1627c57.15-53.63,132.57-140.74,166.7-263.91,44.75-161.54-20.83-243.17-13.44-516.65,4.68-172.92,9.68-293.55,96.86-358.07,68.32-50.56,178.92-60.62,246-13.75,55.81,39,88.1,121.85,97.95,181,8,48.22,1.58,83.23,29.38,108.63,28.4,25.95,59.06,11.26,85.62,30.48,53.87,39,22.68,168.14,17.64,189-56.07,232.19-270,388.79-364.16,456C1804.8,1495.23,1684.38,1569.25,1520.05,1627Z"/><g class="cls-7"><g class="cls-8"><path class="cls-9" d="M1454.41,1669l-1.05-2.78c99.33-37.74,184.8-82.75,254-133.77,102.16-75.29,165.76-161.68,189-256.77,18.23-74.46,11.77-151.51,2.84-258.16-7.14-85.12-19.87-144.8-31.1-197.45-14.66-68.7-26.23-123-18.18-201.63,8.18-79.86,34.51-159.25,78.27-236l2.57,1.47c-43.54,76.35-69.75,155.35-77.88,234.79-8,78.21,3.52,132.27,18.12,200.71,11.26,52.74,24,112.52,31.16,197.83,4.42,52.82,8.25,98.45,8.72,140.73.51,46.25-3.18,83.87-11.63,118.38-23.46,95.78-87.44,182.74-190.17,258.45C1639.7,1586.05,1554,1631.19,1454.41,1669Z"/><path class="cls-9" d="M1894.91,956.37l-1.54-.67c-.57-.24-57-25.25-113.48-83.36a413.71,413.71,0,0,1-79.34-115c-24.35-52.76-37.45-111.16-38.93-173.58l3-.07c1.47,62,14.48,120,38.66,172.4A410.84,410.84,0,0,0,1782,870.27c50.88,52.37,101.65,77.61,111,82,20.4-67.92,49.48-130.42,86.45-185.76a610.53,610.53,0,0,1,104-119.25c66.75-58.74,123.35-81,123.92-81.26l1.07,2.77c-.56.21-56.77,22.38-123.14,80.82A607,607,0,0,0,1981.9,768.25c-37.08,55.52-66.19,118.28-86.52,186.52Z"/><path class="cls-9" d="M1908.63,1186.94l-.61-.9c-.56-.81-56.57-82.41-128.75-153.23-71.94-70.59-240.2-95.08-241.89-95.32l.42-2.94c1.7.24,170.92,24.88,243.55,96.14,68.31,67,122.18,143.68,128.5,152.79,40.48-12.2,84.84-44.28,131.88-95.36,38-41.31,77.86-95,118.38-159.71,69-110.15,116.71-215.2,117.18-216.24l2.71,1.22c-.48,1.05-48.24,106.28-117.37,216.6-40.62,64.82-80.56,118.7-118.72,160.14-47.8,51.92-93,84.39-134.25,96.5Z"/><path class="cls-9" d="M1738.88,1513.59l1.48-2.57c24.88-43.22,34-88.4,27.16-134.3-5.5-36.76-21.21-74.08-46.7-110.93-43.48-62.86-101.12-103-101.7-103.43l1.69-2.44c.58.4,58.61,40.82,102.41,104.12,25.77,37.23,41.66,75,47.23,112.2,6.83,45.67-1.93,90.62-26,133.66,15.81-2.18,93.53-14,192-48.36,64.56-22.52,125.26-50.15,180.42-82.13,68.92-40,129.33-86.87,179.55-139.42L2517,1009.13l2.15,2.06-220.65,230.86c-50.43,52.76-111.07,99.84-180.26,140-55.33,32.08-116.21,59.79-181,82.37-88.2,30.75-166.42,45.41-195.45,48.87Z"/></g></g><path class="cls-2" d="M1539.6,1613.66c111.14,54.44,260.49,107.93,426.28,111.9,42.31,1,303.69,7.27,325.4-102.69,7.65-38.73-20.89-59.17-11.57-111.14,11.05-61.57,58.2-72.29,114.42-128.59,33.54-33.59,131.71-131.91,92.41-231.44-23.48-59.47-95-116.69-163.09-131.87-99.87-22.27-172.82,50.26-294.12,175.12-107.53,110.69-111.8,148.51-190.62,226.86C1780.21,1480,1687.13,1554,1539.6,1613.66Z"/><g class="cls-10"><g class="cls-8"><path class="cls-9" d="M1541.65,1611a685.86,685.86,0,0,1-144.44-15.31,741.2,741.2,0,0,1-148.85-49.28c-71.14-32.14-139.11-75.8-202-129.78l1.94-2.25c62.71,53.79,130.44,97.3,201.32,129.32a737.42,737.42,0,0,0,148.26,49.08c86.72,18.67,176.35,20.2,266.38,4.56,82.14-14.27,165.51-43,247.79-85.24,181.26-93.17,318.33-230.57,401.39-329.43,57.59-68.54,95.4-156.9,112.37-262.64l2.93.47c-17.06,106.28-55.08,195.13-113,264.08-83.25,99.07-220.62,236.77-402.32,330.16-82.54,42.43-166.19,71.21-248.63,85.53A719.19,719.19,0,0,1,1541.65,1611Z"/><path class="cls-9" d="M2129.7,1368.84l-.31-1.3c-.12-.53-12.61-54.44-9.23-126,3.11-66.07,20.77-161.18,87.18-239l2.26,1.92c-65.87,77.18-83.38,171.6-86.48,237.22-3.06,65,7,115.26,8.88,123.87,311.95-39.79,394.6-217.59,412.52-271.2.51-1.52.73-2.15.9-2.5l2.66,1.31c-.09.2-.41,1.14-.74,2.13-18.08,54.1-101.56,233.71-416.31,273.38Z"/><path class="cls-9" d="M2205.26,1614c-36.25,0-73.65-5.24-111.54-15.64-58.82-16.14-119-44.85-178.84-85.33l-.66-.45v-.79c0-.42.4-42.48,13.57-106.09,12.14-58.67,38-148.25,92-241.8l104.39-180.75,2.57,1.48-104.39,180.76c-53.82,93.2-79.55,182.45-91.65,240.92s-13.37,98.67-13.49,104.71c59.31,40,118.91,68.43,177.16,84.44,46.75,12.85,92.74,17.79,136.69,14.66,74.83-5.31,118.37-32.51,118.81-32.79l1.59,2.51c-.44.28-44.48,27.83-120,33.23C2222.81,1613.72,2214.06,1614,2205.26,1614Z"/></g></g><path class="cls-3" d="M1576.94,1735c-2.48-20.16-15.27-139.24,65.37-220.81,67.51-68.3,163.8-73.19,186.11-74.33,89.82-4.56,116,34.7,169.19,10.48,63.14-28.76,60.81-99.88,112.82-106.64,35.88-4.67,75,24.25,89.24,56.67,25,56.9-20.39,138.18-79,174.24-80.74,49.68-143-13.22-239.14,38.45-55.88,30-51.77,60.36-110.1,93.47C1703.69,1744.93,1629.62,1742.93,1576.94,1735Z"/><g class="cls-11"><g class="cls-8"><path class="cls-9" d="M1552.27,1781.78,1551,1781a1241.92,1241.92,0,0,1,86.58-122c62.51-77.73,93.88-116.73,134.68-135.67,53-24.62,97.45-13.2,140.43-2.17,38.47,9.89,74.82,19.22,115.87,3.68,65-24.62,111.58-102.85,138.33-232.5l1.45.3c-26.86,130.18-73.71,208.77-139.25,233.59-41.5,15.71-78.06,6.32-116.77-3.63-42.73-11-86.91-22.32-139.44,2.07-40.48,18.8-71.78,57.71-134.13,135.24A1240.62,1240.62,0,0,0,1552.27,1781.78Z"/><path class="cls-9" d="M2093.07,1528.19h-.88c-31.24-.16-49.13-8.41-49.31-8.49l-.23-.11-.11-.22c-34.1-65.57,1-168.55,1.31-169.58l1.4.49c-.35,1-35.12,103.16-1.52,168.18,2.15.93,19.5,8.11,48.57,8.24h.77c28.63,0,74.36-7,131-40.09l.74,1.28C2167.92,1521.12,2121.91,1528.19,2093.07,1528.19Z"/><path class="cls-9" d="M2002.53,1645.61c-37-79.6-228.18-120.54-230.1-120.94l-.65-.14.06-.66c2.86-29.49,34.58-53.73,91.7-70.08,43-12.31,85.69-15.94,86.12-16l.12,1.48c-1.69.14-168.61,14.73-176.39,84a764,764,0,0,1,100.66,30.25c48.44,18.51,110.28,49.39,129.82,91.39Z"/><path class="cls-9" d="M1885,1688.65c-14.28-26.05-35.75-44.21-63.79-54-22.48-7.82-49.22-10.3-79.48-7.37-51.59,5-96.1,24.27-96.54,24.47l-.81.35-.21-.85c-14.09-56.89,4-113.63,21.58-151.21,19.07-40.68,41.77-68.31,42-68.58l1.14,1c-.22.27-22.83,27.77-41.82,68.3-17.42,37.16-35.26,93.16-21.66,149.33,6.29-2.63,48.16-19.58,96.15-24.23,30.48-3,57.43-.46,80.12,7.43,28.41,9.88,50.15,28.27,64.63,54.66Z"/></g></g><path class="cls-6" d="M2367.11,1986.55c-449.71-11.37-533.78-17-535.26-4.61-2,17,153.22,53.56,283.88,67.38,128,13.54,227.07,4.67,310.89-3.26,93.47-8.86,236-29,235.18-42.51C2661.18,1993.22,2577.71,1991.88,2367.11,1986.55Z"/><path class="cls-12" d="M1151.93,465.93,526.47,427c-69.24-4.31-126.19,41.59-126.19,102.58s57,112.55,126.19,115.13L1151.93,668c58.74,2.18,105.74-40.71,105.74-95.78S1210.67,469.59,1151.93,465.93Z"/><path class="cls-13" d="M742.06,823,262.8,800.1c-52.23-2.49-95.06,35.1-95.06,84s42.83,89.66,95.06,91l479.26,12.65c45.72,1.21,82.38-34.31,82.38-79.33S787.78,825.2,742.06,823Z"/><path class="cls-14" d="M1551.14,284.59l1.23,22.47c.36,6.59-5.58,11.76-13.28,11.55l-14-.39a124.15,124.15,0,0,1-7.47,30.94l12,6c6.86,3.46,9.55,10.81,6,16.45l-12.1,19.24c-3.55,5.65-12,7.46-18.93,4l-11.45-5.69a149.75,149.75,0,0,1-25.73,23l6.78,9.32c4.23,5.81,2.31,13.13-4.28,16.37L1447.27,449c-6.64,3.26-15.5,1.18-19.77-4.66l-6.6-9a197.47,197.47,0,0,1-37.86,8.28l.57,10.24c.37,6.72-5.81,12.11-13.83,12l-27.45-.25c-8.09-.08-15-5.62-15.34-12.39l-.58-10.31a223.08,223.08,0,0,1-39.72-9.35l-5.8,9c-3.76,5.85-12.74,7.76-20.06,4.28l-25-11.94c-7.38-3.51-10.27-11.13-6.46-17l6.1-9.39a196.31,196.31,0,0,1-30.11-24.67l-11.64,5.45c-7,3.31-16.46,1.11-21-4.94l-15.52-20.64c-4.56-6.08-2.49-13.67,4.62-16.95l12.36-5.72a143.54,143.54,0,0,1-11.84-32.76l-15.36-.42c-8.46-.23-15.66-6-16.06-13l-1.35-23.62c-.4-6.93,6.16-12.32,14.63-12l16.27.54a124.43,124.43,0,0,1,9.13-31.29l-15-7.43c-7.51-3.73-10.46-11.49-6.57-17.32l13.22-19.82c3.87-5.81,13.07-7.46,20.54-3.7l15.59,7.84A154.45,154.45,0,0,1,1224,166.72l-9.64-13.15c-4.5-6.14-2.46-13.63,4.55-16.72l23.83-10.5c7-3.07,16.21-.6,20.66,5.52l9.75,13.4a201.09,201.09,0,0,1,36.24-6.3l-.84-15c-.38-6.79,5.9-12,14-11.55l27.58,1.41c8,.42,14.88,6.22,15.25,13l.83,14.94a222.33,222.33,0,0,1,36.34,9.66l8-12.34c3.65-5.62,12.32-7.18,19.37-3.49L1453.89,148c7,3.66,9.72,11.16,6.11,16.75l-7.74,12a194.46,194.46,0,0,1,27.45,23l13.77-6.37a16.37,16.37,0,0,1,19.47,5.21l14.26,20.08c4.18,5.88,2.29,13.11-4.23,16.17l-13,6.1a144.23,144.23,0,0,1,11.71,30.73l14.88.49C1544.26,272.44,1550.78,278,1551.14,284.59Zm-96,10.61c-2.77-50.28-53.41-93-113.89-95.52-61.35-2.51-109.37,37.3-106.45,88.91s55.55,94.33,116.75,95.5C1411.85,385.24,1457.87,345.45,1455.11,295.2Z"/><path class="cls-15" d="M2396.37,270.18l-628-51.51c-69.52-5.71-126.69,39-126.69,100s57.17,113.69,126.69,117.67l628,35.87c59,3.37,106.17-38.58,106.17-93.64S2455.35,275,2396.37,270.18Z"/><path class="cls-16" d="M2197.85,614.51l.89,17.45c.26,5.12-4,9.3-9.63,9.35l-10.18.07a104.48,104.48,0,0,1-5.41,24.25l8.68,4.38c5,2.51,6.92,8.16,4.35,12.64l-8.76,15.26c-2.58,4.48-8.71,6.1-13.7,3.6l-8.28-4.13a117.08,117.08,0,0,1-18.57,18.46l4.89,7.07a8.73,8.73,0,0,1-3.09,12.81l-16.27,9.11a11.08,11.08,0,0,1-14.24-3.15l-4.74-6.82a137.13,137.13,0,0,1-27.19,7.29l.41,7.91c.27,5.19-4.17,9.49-9.92,9.62l-19.65.42c-5.78.12-10.69-4-11-9.22l-.41-8a145.46,145.46,0,0,1-28.34-6.3l-4.13,7.07c-2.68,4.59-9.08,6.28-14.28,3.76l-17.8-8.62c-5.23-2.53-7.29-8.33-4.58-12.93l4.33-7.37a134.83,134.83,0,0,1-21.35-18.26l-8.25,4.48a11.76,11.76,0,0,1-14.86-3.29l-11-15.47a8.8,8.8,0,0,1,3.26-13.13l8.73-4.71a112.82,112.82,0,0,1-8.37-24.86l-10.84.08c-6,0-11.05-4.21-11.33-9.52l-1-18.08c-.28-5.31,4.34-9.62,10.32-9.64l11.49,0a104.71,104.71,0,0,1,6.44-24.28L1914,576.54c-5.31-2.65-7.39-8.52-4.64-13.11l9.33-15.61c2.74-4.57,9.24-6.11,14.52-3.44l11,5.56a118.47,118.47,0,0,1,18.87-17.19l-6.84-9.82a8.7,8.7,0,0,1,3.23-13l16.91-8.82a11.71,11.71,0,0,1,14.69,3.61l6.93,10a138.24,138.24,0,0,1,25.83-6l-.6-11.58c-.27-5.23,4.22-9.42,10-9.36L2053,488c5.77.07,10.66,4.34,10.93,9.54l.59,11.53a145.43,145.43,0,0,1,26.06,6.35l5.76-9.8c2.63-4.47,8.86-5.95,13.93-3.31l17.22,9c5,2.62,7,8.35,4.41,12.8l-5.58,9.56a135.88,135.88,0,0,1,19.8,17l9.94-5.35a11.06,11.06,0,0,1,14.08,3.47l10.32,15.18a8.63,8.63,0,0,1-3.06,12.7l-9.43,5.12a112.38,112.38,0,0,1,8.48,23.55l10.78,0C2192.86,605.26,2197.59,609.39,2197.85,614.51Zm-69.44,10.88c-2-38.92-38.42-70.59-81.76-70.72-43.78-.13-77.92,31.92-75.85,71.58s39.51,71.25,83.22,70.64C2097.28,696.29,2130.41,664.29,2128.41,625.39Z"/><path class="cls-17" d="M2807.63,567.6l-479.26-22.91c-52.23-2.49-95.06,35.1-95.06,84s42.83,89.66,95.06,91l479.26,12.65c45.71,1.21,82.38-34.32,82.38-79.33S2853.34,569.78,2807.63,567.6Z"/><path class="cls-16" d="M2743.56,1114.43l.7,14.85a7.92,7.92,0,0,1-7.66,8.23l-8.1.33a96.76,96.76,0,0,1-4.31,20.81l6.91,3.5a7.84,7.84,0,0,1,3.47,10.66l-7,13.24a8.18,8.18,0,0,1-10.9,3.42l-6.58-3.31a101.24,101.24,0,0,1-14.77,16.21l3.89,5.9a7.85,7.85,0,0,1-2.46,11l-12.93,8.18a8.3,8.3,0,0,1-11.31-2.32l-3.77-5.69a105.56,105.56,0,0,1-21.58,6.9l.32,6.72a8.2,8.2,0,0,1-7.87,8.44l-15.59.85a8.1,8.1,0,0,1-8.69-7.56L2615,1228a106.64,106.64,0,0,1-22.46-4.64l-3.27,6.12a8.63,8.63,0,0,1-11.32,3.55l-14.09-6.87a7.89,7.89,0,0,1-3.63-10.88l3.43-6.37a104.86,104.86,0,0,1-16.9-15l-6.53,4a8.73,8.73,0,0,1-11.75-2.41l-8.67-12.87a7.91,7.91,0,0,1,2.58-11.24l6.9-4.22a98,98,0,0,1-6.61-20.9l-8.58.35a8.44,8.44,0,0,1-8.95-7.79l-.75-15.34a8.23,8.23,0,0,1,8.15-8.46l9.09-.34a96.71,96.71,0,0,1,5.09-20.8l-8.35-4.2a8,8,0,0,1-3.67-11l7.38-13.52a8.65,8.65,0,0,1,11.49-3.33l8.73,4.43a101.67,101.67,0,0,1,14.93-15.13l-5.41-8.16a7.83,7.83,0,0,1,2.55-11.15l13.39-8a8.72,8.72,0,0,1,11.63,2.67l5.49,8.33a105.74,105.74,0,0,1,20.47-5.81l-.47-9.83a8,8,0,0,1,7.94-8.25l15.64-.37a8.4,8.4,0,0,1,8.66,7.82l.47,9.79a107.4,107.4,0,0,1,20.69,4.68l4.57-8.51a8.22,8.22,0,0,1,11.06-3.2l13.69,7.15a8,8,0,0,1,3.5,10.78l-4.44,8.3a104.46,104.46,0,0,1,15.74,13.93l7.91-4.83a8.28,8.28,0,0,1,11.2,2.56l8.21,12.66a7.77,7.77,0,0,1-2.44,10.91l-7.5,4.62a97.48,97.48,0,0,1,6.75,19.84l8.58-.32A8.07,8.07,0,0,1,2743.56,1114.43Zm-55.23,11.13c-1.59-33.1-30.52-59.08-64.91-58-34.71,1.08-61.75,29.27-60.11,62.92s31.3,59.56,66,57.91C2663.59,1186.76,2689.91,1158.64,2688.33,1125.56Z"/><path class="cls-16" d="M2377.79,802.05l-536.12-8.8c-58.65-1-106.78,40.26-106.78,92.1S1783,979,1841.67,978.69L2377.79,976c50.95-.25,91.79-39,91.79-86.46S2428.74,802.89,2377.79,802.05Z"/><path class="cls-16" d="M1562.63,1126.43l.88,16.14c.26,4.74-4,8.86-9.61,9.22l-10.16.65a94.41,94.41,0,0,1-5.41,22.79l8.67,3.58c5,2,6.91,7.18,4.35,11.47l-8.75,14.65c-2.57,4.31-8.7,6.15-13.68,4.12l-8.26-3.37a122.66,122.66,0,0,1-18.53,18.17l4.88,6.28c3,3.92,1.66,9.31-3.09,12l-16.23,9.36c-4.77,2.75-11.13,1.8-14.19-2.12l-4.73-6.06a150.45,150.45,0,0,1-27.1,8.28l.4,7.31c.27,4.8-4.15,9-9.87,9.47l-19.58,1.48c-5.76.44-10.65-3.11-10.92-7.92l-.41-7.34a150.61,150.61,0,0,1-28.21-4.25l-4.12,6.78c-2.67,4.4-9,6.31-14.21,4.27l-17.7-7c-5.21-2.06-7.25-7.3-4.56-11.72l4.31-7.06a121.78,121.78,0,0,1-21.24-15.71l-8.2,4.61c-5,2.79-11.58,1.81-14.77-2.21l-10.9-13.7c-3.2-4-1.75-9.56,3.24-12.34l8.68-4.85a94,94,0,0,1-8.31-22.53l-10.78.69c-5.93.38-11-3.28-11.25-8.17l-1-16.68c-.28-4.89,4.31-9.15,10.25-9.51l11.42-.68a95.86,95.86,0,0,1,6.4-22.85l-10.49-4.28c-5.28-2.15-7.34-7.46-4.62-11.86l9.28-15c2.72-4.39,9.18-6.19,14.43-4l11,4.52a126.16,126.16,0,0,1,18.77-17l-6.8-8.7c-3.18-4.06-1.74-9.54,3.21-12.23L1342,1034c4.92-2.67,11.46-1.55,14.61,2.5l6.9,8.88a152.14,152.14,0,0,1,25.72-7l-.6-10.69c-.27-4.83,4.2-9,10-9.25l19.64-1c5.74-.28,10.61,3.4,10.88,8.21l.59,10.64a149.65,149.65,0,0,1,26,4.38l5.74-9.42c2.62-4.29,8.84-6,13.89-3.87l17.17,7.31c5,2.13,7,7.33,4.4,11.61l-5.57,9.18a122.51,122.51,0,0,1,19.76,14.62l9.92-5.54c4.73-2.64,11-1.56,14,2.4l10.31,13.5c3,4,1.65,9.3-3.06,12l-9.41,5.29a94.65,94.65,0,0,1,8.46,21.35l10.76-.64C1557.64,1118.13,1562.37,1121.7,1562.63,1126.43Zm-69.31,14c-2-36-38.31-63.23-81.49-60.86-43.59,2.4-77.56,34-75.5,70.63s39.32,63.75,82.84,60.72C1462.28,1208,1495.31,1176.44,1493.32,1140.48Z"/><path class="cls-16" d="M2174.82,1047.64l-481.7,6.48c-52.26.7-95.07,38.06-95.07,83.43s42.81,80.79,95.07,79.13l481.7-15.36c46.17-1.47,83.22-36.71,83.22-78.72S2221,1047,2174.82,1047.64Z"/><path class="cls-18" d="M1656.15,1764.37a72.65,72.65,0,0,1-48.18-54.72l-35.82-177.25-306.36,10.88-37.7,184.66c-5.28,25.86,15.86,51.8,40.2,61.33l128.18,50.15a166.55,166.55,0,0,0,74.93,10.86l270.88-23.17a16.8,16.8,0,0,0,15.19-14.89c.92-8,6.47-17-1.08-19.45Z"/><path class="cls-19" d="M1659.18,1753.59a72,72,0,0,1-48.13-54l-35.78-175-298.89,10.75-37.67,182.34a53.36,53.36,0,0,0,33,60.55l128,49.52a168.24,168.24,0,0,0,74.86,10.72l270.6-22.88a16.7,16.7,0,0,0,3.8-32.5Z"/><path class="cls-18" d="M639.79,1650.21c-33.22,2-60.4-19.57-60.4-48V575.59c0-28.49,27.18-50.48,60.4-49l45.05,30.23L2176.2,593.12c24.39,1.06,44.14,21.62,44.14,45.84v873.1c0,24.22-19.75,45.11-44.14,46.56Z"/><path class="cls-9" d="M653.6,1650.21c-33.22,2-60.4-19.57-60.4-48V575.59c0-28.49,27.18-50.48,60.4-49L2190,593.12c24.39,1.06,44.14,21.62,44.14,45.84v873.1c0,24.22-19.75,45.11-44.14,46.56Z"/><path class="cls-20" d="M2190,613.67,653.6,550.46c-17.76-.73-32.2,11-32.2,26.22V1600.61c0,15.21,14.44,26.71,32.2,25.69L2190,1538.07a25.29,25.29,0,0,0,23.64-24.89v-875A24.78,24.78,0,0,0,2190,613.67Z"/><path class="cls-16" d="M653.6,1539.09c-6.91.34-12.54-4.19-12.54-10.11V577.43c0-5.91,5.63-10.5,12.54-10.23L2190,628.05a9.69,9.69,0,0,1,9.24,9.57v815.86a9.81,9.81,0,0,1-9.24,9.66Z"/><path class="cls-21" d="M2029.61,1495.08c-129.26-80-39-307.29-184.13-421.51-146.35-115.16-352.28,26.08-454.79-93.18-76.33-88.8,13-196-59.9-279.53C1216.49,569.9,923.9,750,789.48,621c-19.09-18.32-38.35-46.11-49.31-90.7l-86.57-3.75c-33.22-1.44-60.4,20.55-60.4,49V1602.16c0,28.48,27.18,50,60.4,48L2190,1558.62c24.39-1.45,44.14-22.34,44.14-46.56v-15.53C2132.13,1531.15,2069.76,1519.92,2029.61,1495.08Z"/><path class="cls-22" d="M603.27,1895.07c-36.28-2.32-70.54-25.31-85.28-60.71L310.13,1335.1c-18.92-45.46,2.43-96.91,47.93-115.15,45.82-18.37,117.24,3.27,136.65,49.21l213.23,504.66c20.11,47.59-2.56,99.62-50.37,116C645.79,1893.84,615.24,1895.84,603.27,1895.07Z"/><path class="cls-23" d="M358.06,1220c45.82-18.37,117.24,3.27,136.65,49.21l195,461.44c-32.63-8.39-71.26-7.63-108.34-40.15C519.62,1636.33,550,1567,501.06,1505.18c-22.36-28.24-63.74-58-148-66.92L310.13,1335.1C291.21,1289.64,312.56,1238.19,358.06,1220Z"/><path class="cls-24" d="M232.93,1120.88a39.3,39.3,0,0,1,5.32.37l128.48-1.41v334.08l-124.07-1.7a39.44,39.44,0,0,1-9.73,1.23c-44,0-79.73-74.45-79.73-166.29S188.89,1120.88,232.93,1120.88Z"/><path class="cls-25" d="M366.73,1119.84c-48.67,111.25-48.67,222.09,0,334.08l955.75,307.28,9.87-937.65Z"/><path class="cls-26" d="M1064.47,1485.59c-90.87-34.43-119.1-166.26-224.61-170.7-82.78-3.48-107.72,76.9-188.83,68.23-83-8.88-97-98.4-190-129.95-42.27-14.35-86.5-11.69-129.43.43q-8.65,99.66,35.09,200.32l955.75,307.28-56.54-318.36C1171.7,1497.81,1108.53,1502.28,1064.47,1485.59Z"/><ellipse class="cls-27" cx="1368.82" cy="1288.68" rx="232.49" ry="484.86"/><path class="cls-28" d="M1368.82,1757.09c27.26,0,54-11.44,79.61-34,26-22.95,49.55-56.16,70-98.69,42.86-89.4,66.47-208.63,66.47-335.73s-23.61-246.34-66.47-335.74c-20.4-42.53-43.93-75.73-70-98.69-25.57-22.55-52.35-34-79.61-34s-54,11.44-79.61,34c-26,23-49.56,56.16-70,98.69-17.92,37.38-32.48,80-43.35,126.19-15.13,64.3,28.6,131.42,28.6,205.38,0,78.64-42.69,158.44-25.64,225.85,10.5,41.54,24,80,40.39,114.05,20.39,42.53,43.93,75.74,70,98.69C1314.77,1745.65,1341.56,1757.09,1368.82,1757.09Z"/><g class="cls-29"><path class="cls-30" d="M1388,1295c0,122.84-81.34,220.38-180.26,217.89-97.4-2.45-175.25-101.22-175.25-220.64s77.85-217,175.25-217.93C1306.61,1073.4,1388,1172.2,1388,1295Z"/><path class="cls-31" d="M1372.32,1293c0,91.22-39.63,163.65-87.83,161.8C1237,1453,1199.1,1379.68,1199.1,1291s37.94-161.13,85.39-161.83C1332.69,1128.46,1372.32,1201.82,1372.32,1293Z"/></g><path class="cls-32" d="M1549.78,1137.5s64.91-40.32,102.73-103.42c-57.49-65.56-91.26-146.12-91.26-232,0-205.89,194.07-378.66,444.07-386.23,255.7-7.73,473.59,158.68,484.76,375.2a1.62,1.62,0,0,0,0,.22c.13,2.69.24,5.38.31,8.09l0,1.18c.06,2.65.1,5.31.1,8a337.22,337.22,0,0,1-2,36.42q-.84,7.69-2,15.28-2.37,15.19-6.09,29.95-1.85,7.38-4,14.64-1.45,4.83-3,9.62c-25,75-76,140-144,188.5q-2.17,1.55-4.36,3.08a474.23,474.23,0,0,1-75.57,42.77l-5.06,2.26q-17.77,7.8-36.42,14.31-8,2.79-16.11,5.33-5.41,1.69-10.9,3.27-8.22,2.38-16.57,4.49-5.58,1.42-11.2,2.71a550.44,550.44,0,0,1-147.9,13.31c-3.79-.17-7.57-.37-11.33-.62-1.1-.07-2.19-.16-3.28-.24q-4-.27-8-.6c-1.19-.1-2.37-.22-3.55-.33-2.59-.24-5.18-.48-7.76-.75l-3.31-.37c-2.68-.3-5.36-.61-8-.94l-2.84-.38q-4.28-.56-8.54-1.18l-2.16-.33q-4.68-.7-9.32-1.49l-1.26-.22q-5.24-.88-10.41-1.89h-.06a529.26,529.26,0,0,1-84-23.31l.09-.09q-23.64-8.78-45.84-19.64C1760.06,1170.12,1668.73,1221.55,1549.78,1137.5Z"/><path class="cls-33" d="M1527.93,800.68c0,205.89,194.07,381.35,444.07,392.37,262.53,11.58,485.22-161,485.22-385.94S2234.53,406.52,1972,414.46C1722,422,1527.93,594.8,1527.93,800.68Z"/><path class="cls-33" d="M1527.93,800.68c0,205.89,194.07,381.35,444.07,392.37,262.53,11.58,485.22-161,485.22-385.94S2234.53,406.52,1972,414.46C1722,422,1527.93,594.8,1527.93,800.68Z"/><path class="cls-34" d="M1778.7,1126s-107.86,119.13-262.24,10c0,0,123.54-76.7,129.06-184.11Z"/><path class="cls-9" d="M1717.37,699.68c18.79-53.59,65.74-92.06,121.22-92.72,73.26-.88,133.41,64.34,133.41,145.7,0-81.36,60.85-148,136.9-148.95C2168,603,2219,642.08,2239.65,698.07,2318.92,900.15,1972,1077.45,1972,1077.45S1646.63,889.65,1717.37,699.68Z"/><g class="cls-35"><path class="cls-36" d="M1860.61,1090c55.05-112.44-.6-220.08,74-293.12,76.85-75.28,178.43-4.26,290-66.55,43.75-24.44,92.82-71.51,129.58-168.76,64.45,67.29,103.1,152.58,103.1,245.5,0,225-222.69,397.52-485.22,385.94a541.19,541.19,0,0,1-163.86-32.66A240,240,0,0,0,1860.61,1090Z"/></g><path class="cls-37" d="M2636.12,315.87c78.61,2.42,144.63,50.41,157.5,111.17,0,.08,0,.16.05.24.7,3.32,1.23,6.69,1.6,10.08,0,.23.05.45.08.68.16,1.58.29,3.18.38,4.78,0,.29,0,.58,0,.87.08,1.64.13,3.28.13,4.93,0,70.6-72.06,124.11-159.78,119.57-2.33-.12-4.65-.29-7-.49l-.68-.06q-3.27-.3-6.51-.7l-1-.12q-3.14-.41-6.22-.9l-1.17-.19c-2-.34-4-.71-6-1.11l-1.22-.24c-2-.41-4-.84-5.92-1.31l-1.13-.28c-1.95-.48-3.88-1-5.8-1.51l-1-.29q-2.58-.74-5.13-1.54l-1.3-.4c-1.72-.55-3.42-1.14-5.12-1.74l-1.1-.37h0c-58.3-21-99.3-68.38-99.3-121.32C2480.49,366.84,2549.67,313.22,2636.12,315.87Z"/><path class="cls-38" d="M2463.85,435.61c0,68.77,69.17,128.1,155.63,132.58,87.72,4.54,159.78-49,159.78-119.57s-72.06-130-159.78-132.75C2533,313.22,2463.85,366.84,2463.85,435.61Z"/><path class="cls-9" d="M2619.48,359.49c31.22,1.08,56.66,27.45,56.66,58.9,0,20.38-23.86,66.73-40.6,96.73-6.95,12.45-25.17,11.57-32.08-1.51-16.61-31.41-40.12-79.43-40.12-99.63C2563.34,382.82,2588.41,358.43,2619.48,359.49Zm0,87.12a29,29,0,0,0,30.35-29.25,31.83,31.83,0,0,0-30.35-31.62A29,29,0,0,0,2589.27,415,31.84,31.84,0,0,0,2619.48,446.61Z"/><g class="cls-35"><path class="cls-39" d="M2581.32,534.18c18.93-36.27-.21-71.86,25.4-94.81,26.13-23.42,60.25.74,97.19-17.8,14.35-7.2,30.33-21.46,42.25-51.66,20.74,22.21,33.1,49.54,33.1,78.71,0,70.6-72.06,124.11-159.78,119.57a196.21,196.21,0,0,1-56.34-11.25A77.57,77.57,0,0,0,2581.32,534.18Z"/></g><path class="cls-40" d="M3003.2,966.57c.07.76.13,1.53.19,2.3s.09,1.27.13,1.91c.06.92.1,1.85.14,2.78l.06,1.53c0,1.46.07,2.91.07,4.38a144.41,144.41,0,0,1-1.24,18.89,148.24,148.24,0,0,1-7.88,31.78c-.53,1.47-1.1,2.93-1.68,4.38a162.93,162.93,0,0,1-8.07,17.08,182.7,182.7,0,0,1-25.37,35.36q-3.35,3.68-6.89,7.21t-7.31,6.94a232.43,232.43,0,0,1-33.13,24.88q-2.25,1.4-4.54,2.76-4.59,2.71-9.34,5.28a268.75,268.75,0,0,1-35.11,15.7q-5.27,1.92-10.66,3.65t-10.9,3.26c-3.67,1-7.39,2-11.13,2.85a301.06,301.06,0,0,1-64.72,7.89q-2.88,0-5.73,0l-1.83,0c-1.3,0-2.6,0-3.89-.06-.7,0-1.39,0-2.08-.06l-3.61-.13-2.13-.1c-1.18-.06-2.37-.12-3.55-.2l-2.06-.14-3.61-.26-1.94-.17-3.73-.35-1.75-.18-4-.46-1.45-.17c-1.46-.19-2.91-.38-4.36-.59l-1-.14c-1.69-.24-3.36-.5-5-.78l-.29,0a276.68,276.68,0,0,1-31-6.94l0,0c-85.53-24.51-145.35-88-145.35-163.26,0-97.86,101.1-181.82,228.38-187.63,122.91-5.62,225.81,63.35,236.95,156.88.08.6.15,1.21.22,1.82Z"/><path class="cls-41" d="M2522.17,993.33c0,97.86,98.91,175.81,223.43,174.05,127.39-1.79,232.82-85.94,232.82-187.91S2873,799.75,2745.6,805.7C2621.08,811.51,2522.17,895.47,2522.17,993.33Z"/><path class="cls-9" d="M2679.2,891.37V1064.5c0,11.11,9.41,18,17.54,13l145-91c9-5.68,9-21.76,0-26.89l-145-82.2C2688.61,872.74,2679.2,880.25,2679.2,891.37Z"/><g class="cls-35"><path class="cls-42" d="M2690.51,1122.32c27.31-53.76-.29-102.8,36.65-138.28,37.79-36.28,87.28-5.16,141-35.68,20.92-11.88,44.28-34.12,61.7-79,30.39,29.79,48.52,67.94,48.52,110.06,0,102-105.43,186.12-232.82,187.91a275.9,275.9,0,0,1-81.25-10.77A121.5,121.5,0,0,0,2690.51,1122.32Z"/></g><path class="cls-43" d="M2281.72,1332l-1.53-.12-2.79-.22-1.54-.15-2.77-.28-1.47-.16-2.85-.34-1.33-.17-3-.42-1.14-.17-3.24-.51-.85-.14-3.61-.64-.44-.08a220.89,220.89,0,0,1-27.72-7.1l0,0c-64.61-21.25-109.63-70.6-109.63-126.66,0-72.93,76.18-132.61,172.58-133.32,93.72-.7,172.58,54.3,181,125.14,0,.39.09.78.14,1.16.06.59.11,1.17.17,1.75s.09,1.1.14,1.65.07,1,.1,1.5c0,.68.08,1.37.1,2.06,0,.39,0,.78,0,1.17q.06,1.65.06,3.3c0,37.21-19.37,70.38-50.62,94.32-2,1.55-4.08,3.06-6.2,4.52s-4.27,2.9-6.48,4.28c-1.1.7-2.21,1.38-3.34,2.05q-3.37,2-6.88,3.91t-7.14,3.64c-2.05,1-4.13,2-6.24,2.87a204.87,204.87,0,0,1-37.78,12.35q-3.84.86-7.75,1.59a229.27,229.27,0,0,1-49.34,3.68l-4.35-.18-1.35-.08Z"/><path class="cls-44" d="M2108.75,1194.82c0,72.93,74.83,134.51,169.52,137.62,97.44,3.21,178.54-56.4,178.54-133.21s-81.1-138.47-178.54-137.73C2183.58,1062.21,2108.75,1121.89,2108.75,1194.82Z"/><path class="cls-9" d="M2335.9,1290.56l-7.65-51.33,23.9.45v-26.37l-28.6-.43-4.7-32,25,.25V1154.5l-29.12-.18-7.32-49.6-25.91,0,7.26,49.4-26.34-.16-7.49-49.21-25.51,0,7.43,49-22.81-.15v26.12l26.82.27,4.59,31.65-23.73-.36v25.86l28,.53,7.19,50.72,26,.69-7.25-50.92,26.45.5,7.3,51.12Zm-64.8-78.46-4.62-31.77,26.37.27,4.66,31.89Z"/><g class="cls-35"><path class="cls-45" d="M2236.31,1296.77c20.78-39.3-.23-76.92,27.9-102.27,28.82-26,66.64-1,107.83-22.23,16.06-8.26,34-24.25,47.4-57.43,23.39,23.36,37.37,52.66,37.37,84.39,0,76.81-81.1,136.42-178.54,133.21a218,218,0,0,1-61.85-10.94A85.46,85.46,0,0,0,2236.31,1296.77Z"/></g><path class="cls-46" d="M2455.1,1383.35a22.81,22.81,0,0,0,7.17-9.45c1.89-4.86.56-7,2.93-10.06,3-3.85,9.17-5.5,13.39-3.62a5.36,5.36,0,0,1,2.65,2.1c1.88,3.17-2.29,8.66-5.61,11.58-2.51,2.2-3.54,2-6.19,3.91a25.56,25.56,0,0,0-8.47,10.76Z"/><path class="cls-47" d="M2594.34,1356.75a22.83,22.83,0,0,1-10.28-5.9c-3.64-3.74-3.26-6.25-6.63-8.12-4.27-2.37-10.58-1.49-13.74,1.89a5.42,5.42,0,0,0-1.62,3c-.5,3.65,5.48,7.08,9.69,8.47,3.16,1,4,.5,7.22,1.19a25.57,25.57,0,0,1,12,6.59Z"/><path class="cls-48" d="M2581,1361.27c-1.85,8.8,7.67,16.64,14.53,24.33,13.78,15.42,28.19,43,22.9,66.57-2.89,12.91-12.16,26.86-25.25,33.47-14.08,7.12-22.52.65-37.17,9.1-1.08.62-19.61,11.61-20.15,26.43-.66,18.29,26.23,37.75,49.24,39.24,42.1,2.72,92.82-53.26,90.46-108.81-2.57-60.48-67.55-108.48-86.25-100.34C2586.41,1352.54,2582.08,1356.32,2581,1361.27Z"/><polygon class="cls-49" points="2562.3 1987.48 2560.79 2002.8 2567.93 2001.51 2572.72 1987.11 2562.3 1987.48"/><path class="cls-50" d="M2605.78,1704.38a385.45,385.45,0,0,1-8.15,69.49c-4.33,20.45-6.85,24-8.2,38.12-2.93,30.77,7,35.18,8.8,70,2,38.4-8.2,68.92-12.21,80.57a219.22,219.22,0,0,1-9.95,24.1c-3.52,3.07-8.9,1.89-14.57.74-2.1-34.83-4.7-67.61-6.79-102.44q-10.12-78.6-20.23-157.19Z"/><path class="cls-51" d="M2561.5,1987.35c-2.1-34.83-4.7-67.61-6.79-102.44q-10.12-78.6-20.23-157.19l71.3-23.34c-.05,1.8-.14,3.54-.21,5.3-33.35,29-39.87,51.91-39.55,67.55.4,19,10.78,28.39,8.75,55.91-1.45,19.67-7.37,23.14-7.36,40.89,0,22.87,9.81,35.72,14.59,48.93,4.62,12.77,6.26,30.85-2.66,56.58-1.17,2.65-2.28,5-3.27,7.07C2572.55,1989.68,2567.17,1988.5,2561.5,1987.35Z"/><path class="cls-52" d="M2565,2008c3.38-4.19,6.48-3.88,7-6.72a5.79,5.79,0,0,0-3.05-5.92c-2.91-1.39-6.36,1-7.13,1.48-5.29,3.6-3.71,9-8.72,11.49a13.72,13.72,0,0,0-4.27,2.67c-.71.69-2.46,2.4-2,3.55.51,1.32,3.69,1.21,6.72,1.1,3.64-.13,5.45-.2,7.18-1.33C2563.13,2012.79,2562.37,2011.26,2565,2008Z"/><polygon class="cls-53" points="2557.8 1876.95 2571.15 1882.17 2575.04 1876.05 2564.61 1869.04 2557.8 1876.95"/><path class="cls-54" d="M2578.18,1885.41c-.79-5.32,1.54-7.39-.16-9.73a5.78,5.78,0,0,0-6.42-1.77c-3,1.19-3.61,5.31-3.75,6.25-.94,6.32,4.11,8.84,2.53,14.19a13.88,13.88,0,0,0-.94,5c0,1,.1,3.44,1.24,3.89,1.32.52,3.4-1.9,5.37-4.2,2.37-2.76,3.56-4.14,3.9-6.17C2580.42,1890,2578.78,1889.52,2578.18,1885.41Z"/><path class="cls-55" d="M2500.07,1680.19c-24.86,50.69-33.3,93-36.5,120.56-2.05,17.75-1.85,28.73,3.26,39.75,18.3,39.48,82.18,42.09,91.89,42.36q4.79-9.81,9.58-19.62c-5.88-10.9-16.14-26-33.69-37.07-13.51-8.49-18.79-6.68-22.16-12.38-13.53-22.9,59.5-72.49,48.59-105.51C2557.26,1696.86,2542.74,1685.28,2500.07,1680.19Z"/><path class="cls-56" d="M2553.94,1498c-26.87,4.61-47.32,9.41-56.45,23.48-9.64,14.86,5.69,26,9.86,58.66,6.38,49.91-22.32,68.56-14.06,118.83a127.55,127.55,0,0,0,5.59,21.73,51.46,51.46,0,0,0,21.23,26.38,132.86,132.86,0,0,0,26.88,13c27.24,9.53,40.68,4,77.33,6.09,59.94,3.42,68.92,20.81,96,10.12,27.37-10.81,47.18-40,41.38-52.48-3.48-7.47-14.45-2.81-30.17-12-20.28-11.82-16.87-28-33.32-41.8-23.62-19.88-46.35.2-66.55-17.09-20.44-17.49-22.88-60-14.2-85.34,5.68-16.54,5.78-34.52,10-51.49a11,11,0,0,0-.25-6.21c-3.36-9.75-21.2-11.62-34.69-12.91A154.25,154.25,0,0,0,2553.94,1498Z"/><path class="cls-57" d="M2717.18,1757.32c-8.3-5.53-3.81-21.21-16.1-29.54-11.41-7.72-20.31,2.38-37.12-2.77-21.57-6.61-20.44-27.38-41.11-34-14.86-4.77-19.34,4.72-40.78,5.13s-49.45-8.43-67.22-31.11a76.55,76.55,0,0,1-14.06-29.43c-5.72,18.49-11.93,36.36-7.5,63.34a128,128,0,0,0,7.81,27.57,38.24,38.24,0,0,0,13.56,16.94A134.49,134.49,0,0,0,2547,1760c27.24,9.53,40.68,4,77.33,6.09,59.94,3.42,68.92,20.81,96,10.12,17.5-6.91,31.86-21.32,38.46-34.08C2735.09,1759.4,2723.2,1761.33,2717.18,1757.32Z"/><path class="cls-58" d="M2538.42,1451.48s-7.4,13.89-7.87,23.64,10.54,9.05,10.54,9.05l-.42,6.15a13.33,13.33,0,0,1-8.7,11.62l-4.34,1.6s28.34,6.06,43.82-4.87l-4.46-.44a13.34,13.34,0,0,1-12-11.91l-.26-2.63S2559.67,1453.29,2538.42,1451.48Z"/><path class="cls-59" d="M2468.62,1386.12c4.21,8-2.78,18.11-7.26,27.39-9,18.63-15.25,49.07-3.65,70.31,6.34,11.61,19.1,22.47,33.5,25.21,15.5,3,21.83-5.59,38.24-1.51,1.21.3,22.05,5.75,26.66,19.85,5.68,17.4-14.8,43.52-36.51,51.3-39.71,14.23-103.91-25.6-117-79.65-14.21-58.84,35-122.9,55.23-120.23C2461.05,1379.21,2466.26,1381.65,2468.62,1386.12Z"/><path class="cls-60" d="M2542.85,1465.3c1.46-.13,2.67-2,3.68-1.43s.93,3.29,0,5.19a6.92,6.92,0,0,1-2.66,2.85,17.92,17.92,0,0,1,3.17,7.18c1.33,7-2.41,12.71-4,16-7,14.94,3.9,38.57,15.89,50.51,9.74,9.7,14.28,5.79,20.1,13.72,11.32,15.42-4.31,32.36,1.55,53.12,8.9,31.55,58.73,40.94,60.79,41.3.82.15,1.36.24,2.21.37,22.35,3.55,56.23,8.94,80.09-9.41,17.85-13.73,26-37.62,24.69-58.66-.36-5.53-2-26.55-19.15-43.69-2.72-2.73-18.81-18.81-40.56-19-11.51-.11-13.84,3.95-22.64,1.44-12.06-3.43-19.49-14.39-24.1-21.19-8.47-12.51-5-15.18-11.13-21.34-11.95-12-26-2.58-38.72-13.22-12.58-10.49-5-24.71-17.14-33.79-12.53-9.36-36.49-6.09-41.59,5.06C2529,1449.92,2538.36,1465.67,2542.85,1465.3Z"/><path class="cls-61" d="M2171.5,1320.82s5.84-30.52,11.69-39.62,16.75-14.93,16.75-14.93,2.27,3.73-5,11.61-1.2,8.65,0,11.18-1.39,11.63-6.59,14.88-7.14,21-7.14,21Z"/><path class="cls-62" d="M2188.38,1316.93l-18.83-3.25c-22.47,41.66-48.8,68.43-66.72,84-21.18,18.36-34.86,30.22-57.33,36.17-33.19,8.78-61.87-1.53-65.59,7.79-1.82,4.56,4.49,9.49,14.61,21.6,29.46,35.24,26.67,54.19,42.86,59.42,13.38,4.33,26.85-5,49.69-21.27,20.78-14.82,46.83-33.41,68.84-68.84C2185.44,1385,2188.4,1338.24,2188.38,1316.93Z"/><path class="cls-63" d="M1911.72,1445.41c-3.06,1.15-49.61,19.67-59.17,68.25-.78,3.93-8.26,45.67,20,75.16,31.74,33.06,92.87,32.24,117.13,4.6a49.53,49.53,0,0,0,10.31-19.59l-6.39-17c-7.8-9.41-18.42-11.65-24.09-13-14-3.45-24.54,2.78-32.55-4-4.43-3.74-5.31-9.1-6.1-13.9-2.68-16.34,6.54-26.39,7.22-36.47.5-7.53,3.13-24-6.7-34.79C1925.21,1447.86,1916.59,1446,1911.72,1445.41Z"/><path class="cls-64" d="M1893.58,1986.87c-.55-3-10.2-5.7-15-1.7-2.37,2-4,6-2.63,7.85.5.66-1.55,1.82.41,1.85C1882.88,1994.94,1894.12,1989.84,1893.58,1986.87Z"/><path class="cls-65" d="M1883.45,1988l-9.93-1.4c4.6-5.54,3.75-23.19,3.75-23.19l10.56,2.36s-1.2,4.85-3.25,12A47.22,47.22,0,0,0,1883.45,1988Z"/><path class="cls-66" d="M1884.33,1986.73s-12-2.75-13.25-.38-2.3,8.72,5.29,8.52S1885,1988.74,1884.33,1986.73Z"/><path class="cls-67" d="M2029.88,1998.08c-1-2.88-10.9-4.21-15.08.42-2.07,2.31-3.12,6.53-1.51,8.14.59.58-1.27,2,.67,1.77C2020.41,2007.58,2030.83,2001,2029.88,1998.08Z"/><path class="cls-68" d="M2020,2000.58h-10c3.79-6.13.47-23.49.47-23.49l10.79.86s-.51,5-1.54,12.32A47.2,47.2,0,0,0,2020,2000.58Z"/><path class="cls-69" d="M2046,1621.19a465.24,465.24,0,0,1,15.55,71.19c12.19,88.65-13.71,91.47-8.87,189.7,1.54,31.36-27.17,103.66-29.7,105.25a31.33,31.33,0,0,1-4,.16,39.66,39.66,0,0,1-10.11-1.69c-4.55-.78-20.94-45.19-17.14-71.59,2.69-18.69,1.91-38.75.35-78.86-.25-6.5-16.88-126.44-16.88-126.44-5.06,44.39-10.88,82.12-15.92,111.37-16.2,94-68.89,150.84-71.63,151.75-.55.22-5.49,2-9.53-.65a6.52,6.52,0,0,1-2.41-2.71c-1.41-1.1.41-93.82,16.48-163.59,23.32-101.28,13.17-125,20.56-170.22C1919.18,1595.72,2046,1621.19,2046,1621.19Z"/><path class="cls-70" d="M1951.8,1437.51c15.48-.46,51.08-5.93,70.68,11.71.34.31-3.67,2.46-1.7,4.77a127.27,127.27,0,0,1,13.84,19.86c4.14,7.38,7.87,16,11.64,28.78a247.44,247.44,0,0,1,9.18,50.2c3.58,47.13,0,68.88-3.19,83.66-14,7.19-50.08,20.06-93.07,13.67a144.93,144.93,0,0,1-46.39-15.29c11.15-33.77,2.4-51.84-1.73-68.5-5.88-23.75-6-21.95-10.83-40.82-8-31.13-9.31-62.94-3.81-69.45C1911.24,1438.55,1937.93,1437.91,1951.8,1437.51Z"/><path class="cls-71" d="M2020.71,1999.24s-12.23-1-13.18,1.48-1,9,6.43,7.69S2021.66,2001.14,2020.71,1999.24Z"/><path class="cls-72" d="M1984.33,1408.49c2.55-9.07-1.9-17.47-2.88-19.28-4.11-7.58-5.16-8.62-7.12-9.93l-2.73-1.68-.32-.12c-1.75-.63-7.71-.81-8.92-.55-3.85.82-8,16.53-6.79,38.75-.16.84-.31,1.7-.46,2.56-.61,3.51-1.09,6.94-1.46,10.31a8.64,8.64,0,0,1-5.53,7.1c-20.49,7.73-20.45,1.55-22.57,8.21-1.16,3.62,22.12,9.48,33.57,8.16,25.76.19,46.71-2.55,44.46-6.61-1-1.8-21-7-26.57-12.19-5.14-4.73-4.72-9.62-5.14-13.11C1973.42,1419.3,1982.46,1415.17,1984.33,1408.49Z"/><path class="cls-73" d="M1979.59,1371.29c0,6.88-3.26,14.23-4.91,15.41a11.23,11.23,0,0,0-2.5,2.72,3.94,3.94,0,0,0-.39.82c-1.5,4.33,5.39,9.44,4.06,11.38-1,1.41-5.65-.48-6.21.74s3.37,3.51,2.77,4.88c-.45,1-2.84.09-4.35,1.68-.76.79-.54,1.41-1.33,3.83a22.6,22.6,0,0,1-1.58,3.69c-2.38,4-9.11,5.52-10.41,3.9-.36-.45,0-.83-.42-2.34a12.12,12.12,0,0,0-1.31-3c-1.4-2.32-4.76-4-8.15-6.42-6.29-4.53-8-8.38-8.51-9.69-.18-.46-.3-.81-.38-1.06-1.63-5.08-1.64-12.53.64-17.11,3.82-7.67,12.44-4,19.49-11.63,8.14-8.78,3.29-20.77,7.71-22.1C1968.68,1345.51,1979.64,1358.56,1979.59,1371.29Z"/><path class="cls-74" d="M1973.38,1400c-1.69-2.32-4.65-.14-4.67,2.86s2.89,6.11,5.7,5.52S1975.65,1403.12,1973.38,1400Z"/><path class="cls-75" d="M1917.72,1613.48h0a.43.43,0,0,1-.37-.47c1.83-16.48-1.58-28.45-4.6-39-.74-2.6-1.44-5.06-2-7.52-3.34-13.48-4.8-18.68-6.35-24.19-1-3.59-2-7.3-3.67-13.51a.43.43,0,0,1,.31-.52.4.4,0,0,1,.51.31c1.62,6.19,2.66,9.9,3.67,13.48,1.55,5.52,3,10.73,6.36,24.22.6,2.45,1.3,4.9,2,7.5,3,10.63,6.47,22.69,4.62,39.33A.42.42,0,0,1,1917.72,1613.48Z"/><path class="cls-73" d="M1972,1395l3.91,5.09s4.22,6.24,6.68,2.82c2-2.79,2.54-2.73,2.66-2.61a.15.15,0,0,1,0,.06s-.29-1.39-.59-2.61a23,23,0,0,1,3.35,7.19c.84,3.17,1.75,6.56,0,9.82a9.73,9.73,0,0,1-5.75,4.5s-1.45.33-7.56-.74c0,0,6.68-4.85,6.78-6,.28-3.14-4.07-4.83-7.29-11.25A25.71,25.71,0,0,1,1972,1395Z"/><path class="cls-76" d="M693.55,979c84.87,20.61,140.77,53.68,173.42,77.08,17.69,12.68,25.86,20.59,30.28,32.11,25.14,65.69-104,165-117.79,175.41q-9-21-18-42.06c13.35-73.25,35.57-96.23,54.16-103.07,5.2-1.91,13.94-4,13.77-6.42-.4-5.82-49.46,2.47-96.35-14.68s-93.71-60.39-85.33-89C649.2,1003.16,655.62,988.06,693.55,979Z"/><path class="cls-77" d="M775.84,1459.15s-7.9,2.82-7.93,9.07,8,33.76,16.73,43.54,9.51-4.81,9-14.2-2.83-30.44-5-34.51S775.84,1459.15,775.84,1459.15Z"/><path class="cls-78" d="M801.21,1075.06c15.42-.3,51.55-3.18,61.17,14.68,8,14.9-6,37.49-14.68,51.38-23.51,37.77-46.33,41.64-62.4,64.84-6.22,9-11.85,21.53-13.65,39.46l-10.23-23.86c13.35-73.25,35.57-96.24,54.16-103.07,5.2-1.91,13.94-4,13.77-6.42-.4-5.82-49.46,2.47-96.35-14.68-42.61-15.6-85.27-52.91-86.15-81.07C714.33,1064.72,765.12,1075.77,801.21,1075.06Z"/><path class="cls-79" d="M771.28,1432.61c.46,9.62,1.28,17.67,2,23.65,1.63,13.23,3.13,18.46,5.18,23.23,1.79,4.15,6.27,13.21,8.4,12.58s-.06-10.67-1.75-38.59c-.25-4-1-17-1-17Z"/><path class="cls-80" d="M644.61,984.53a381.53,381.53,0,0,1,99.1,85.64c21.79,26.72,54.92,67.37,66.92,128,6.4,32.31,3.25,61.29-3.3,117.93a1189.84,1189.84,0,0,1-23.15,133.33l-11.28,4.53c-10.07-18.51-23.24-47.8-28-85.26-7.72-61.28,15.2-80.75,4.2-124.21-9.53-37.65-37.16-60.74-92.4-106.91-45.38-37.93-87.23-60.44-102.76-107.75-2.64-8-4.89-17.9-.58-26.92C562.65,983.43,598.11,976.64,644.61,984.53Z"/><path class="cls-81" d="M861.08,482.48l24-10.2a6.58,6.58,0,0,1,8.87,4.13l18.78,61.48a6.58,6.58,0,0,1-3.72,8l-23.23,9.89a6.58,6.58,0,0,1-8.84-4l-19.54-61.16A6.59,6.59,0,0,1,861.08,482.48Z"/><path class="cls-82" d="M884.48,522.27c-3.33-11.71,3.12-21.87-3.39-33.85a28.68,28.68,0,0,0-7.3-8.6L864,484a6.14,6.14,0,0,0-3.45,7.52l18.25,57.16a6.14,6.14,0,0,0,8.26,3.79l19-8.1C892,537.12,886.43,529.15,884.48,522.27Z"/><path class="cls-83" d="M913.15,556.5c-2.84-7-3.33-10.74-3.17-12.89,0-.28.12-1.38.19-3,.12-2.5.1-4.46.07-5.72-.12-6.75-.18-10.13-.82-13.38-.7-3.62-1.72-8.88-3.64-9.07-2.57-.25-6.35,7.07-8,13.92-2.09,8.92.54,12.44-2,18.65-2.14,5.22-6.39,8.56-10.05,10.69a9.21,9.21,0,0,0,3.92,1.81c2,.37,3.11-.16,6.14.26,1.15.16,1.92.37,2.25.44C900.22,558.76,904.4,558.67,913.15,556.5Z"/><path class="cls-84" d="M914.2,553.74c-6.76,0-12.67,4.86-19.43,4.87-6.17,44.33-17.33,59.5-31.31,73.46-45.1,45.07-104.7,27-199.16,65.68a407.24,407.24,0,0,0-83.64,46.42c18.83,22.86,57.14,61,113.66,69.89C794.21,829.72,891.51,744.5,918.05,653,930.61,609.69,918.89,575.59,914.2,553.74Z"/><path class="cls-85" d="M776.65,762.91c6.55-6.8,7.5-13.18,22.23-33.45A111.26,111.26,0,0,1,812.66,714c37.72-35.67,69.08-27.72,95.32-55.08A78.79,78.79,0,0,0,921.3,640c-.93,4.28-2,8.6-3.25,13-26.54,91.5-123.84,176.72-223.73,161.06-29.32-4.59-53.69-17.09-73-31.23a168.68,168.68,0,0,1,52.39-15.66C725.2,760.71,758.43,781.83,776.65,762.91Z"/><path class="cls-86" d="M526,682.42c14.51,2.22,36.33,11.2,63.65,2.66,8.23-2.57,37.37-11.67,44.27-38C640,624,623.49,604,621.45,601.59c-11.79-13.9-27.35-17.74-44.7-21.77-22.5-5.23-31.83-2.1-48.22-3.76-40.54-4.1-45.09-29.52-82.76-41.89-48.16-15.8-65.57,17.58-105.71,3.28-45.05-16.06-36.94-63.05-78.24-87.28-57.31-33.62-175.09-3-202.19,73.68C44,568.15,57.48,630.91,93.47,661.93c21,18.07,48.3,25.29,49.76,44,1,13.29-14.25,17.39-20.6,37.45-8.18,25.85,6.83,51.9,9.25,56.1C154.38,838.5,232.7,853,297,834.36,413,800.83,447.16,670.32,526,682.42Z"/><path class="cls-87" d="M512.8,692.35a1027.05,1027.05,0,0,1,111.33-10.81c89.45-3.78,87.06.2,103.6-3.74,15.27-3.63-8.34,42.81-18.35,85.12-10.22,43.19-4.31,79.1-2.08,91.86,3.59,20.55,9.8,36.53,22.21,68.5,21.57,55.53,33.23,67.29,26.24,83.35-10.19,23.41-47.84,27.93-54.46,28.59-33.53,3.34-43.5-15.15-72-14.07-33.15,1.25-37,26.87-80,50.08-50.64,27.41-120.31,32.5-157.64,1.42-14.42-12-25.19-29.94-20.77-36.75,6-9.27,34.69,10.57,60.09-2.76,16.83-8.84,13.2-22.24,32.48-38.71,23.19-19.82,40-10.26,55.8-23.18,24.66-20.15,11.85-66.33,2.53-144.1A1305.51,1305.51,0,0,1,512.8,692.35Z"/><path class="cls-88" d="M512.8,692.35C466.16,701.62,456.64,753,409,769.94c-28.84,10.26-74.35,8.83-147.17-43.53L236.66,743c17.51,54.12,47.89,81.44,62.48,92.67,83.36,64.2,220,41.55,284.64-33.7,20.28-23.61,30-48.38,34.92-64.44C590.92,711.8,552,684.57,512.8,692.35Z"/><path class="cls-89" d="M603.52,637.45s-3.09,32.14-14.7,39.82-30.77,7.9-32.8,10.57,61.29,24.42,98.09,4.51L669.36,681c-12.28.4-28.08,0-34.43-3.4A53.79,53.79,0,0,1,617.09,662l-.37-17.74Z"/><path class="cls-90" d="M602.05,648.84s8,10.36,20,5.6c10.71-4.25,3.44-32-5.23-35-2.89-1-8.14-.36-11.59,1.93-2.43,1.61-8.8,10-4.75,19.08-2.75-.71-5.14.08-5.7,1.45-.72,1.74,1.66,4,2.2,4.53A9.21,9.21,0,0,0,602.05,648.84Z"/><path class="cls-91" d="M254.79,731.05,249.07,723s17.12-40.37-2.3-43.56S234.14,686,237,690.77s1.91,21.7-.56,27.21,5.62,21.43,5.62,21.43Z"/><path class="cls-92" d="M467.23,1058.43c10.52-9.7.15-24.12,11.51-38.7,10.41-13.34,24.69-8.45,45.44-17.85,24.94-11.3,42-35.44,48.5-55.29,4.65-14.15,2.84-22.69-13.26-89.26-15.33-63.4-19.3-78.85-27.87-79.7-15.58-1.56-22,47.65-51.45,52-16.62,2.47-21.11-12.26-43.21-17-37.52-8.07-58.26,27.1-96.41,31.58-9.76,1.15-21.91.37-36.47-5.2,62.58,44.69,152.48,43.13,220.41,8.58,8.73,65.45,17.25,105.34-5.15,123.64-15.81,12.92-32.61,3.36-55.8,23.18-19.28,16.47-15.65,29.87-32.48,38.71-25.4,13.33-54.07-6.51-60.09,2.76-4,6.17,4.52,21.46,16.88,33.21a66.44,66.44,0,0,1,19.45-7.93C434.94,1054.83,454.82,1069.87,467.23,1058.43Z"/></g></g></svg>